{
.appVersion = "1352";
DisplayStrings = (
"/apostrophemod/doubleprimemod/primemod/dieresiscomb/dotaccentcomb/gravecomb/acutecomb/hungarumlautcomb/caroncomb.alt/circumflexcomb/caroncomb/brevecomb/ringcomb/tildecomb/macroncomb/hookabovecomb/dblgravecomb/breveinvertedcomb/commaturnedabovecomb/horncomb/dotbelowcomb/dieresisbelowcomb/commaaccentcomb a/cedillacomb/ogonekcomb/brevebelowcomb/macronbelowcomb/strokeshortcomb ¨/dotaccent `´/hungarumlaut/circumflex/caron/breve/ring/tilde ¯¸/ogonek/brevecomb_acutecomb/brevecomb_gravecomb/brevecomb_hookabovecomb/brevecomb_tildecomb/circumflexcomb_acutecomb/circumflexcomb_gravecomb/circumflexcomb_hookabovecomb/circumflexcomb_tildecomb",
ABCDEFGHIJKLMNOPQRSTUVWXYZ,
"abcdefghijklmnopqrstuvwxyz/space/scedilla",
"emaniln@ncorreo.com"
);
copyright = "Copyright 2005 The Fuzzy Bubbles Project Authors (https://github.com/googlefonts/fuzzy-bubbles)";
customParameters = (
{
name = panose;
value = (
2,
0,
5,
4,
4,
0,
0,
2,
0,
4
);
},
{
name = blueScale;
value = 0.2048;
},
{
name = licenseURL;
value = "https://scripts.sil.org/OFL";
},
{
name = license;
value = "This Font Software is licensed under the SIL Open Font License, Version 1.1. This license is available with a FAQ at: https://scripts.sil.org/OFL";
},
{
name = vendorID;
value = GOOG;
},
{
name = "Disable Subroutines";
value = 1;
},
{
name = glyphOrder;
value = (
.notdef,
CR,
NULL,
space,
nbspace
);
},
{
name = fsType;
value = (
);
},
{
name = "Use Typo Metrics";
value = 1;
},
{
name = Axes;
value = (
{
Name = Weight;
Tag = wght;
}
);
}
);
date = "2021-03-16 05:21:02 +0000";
designer = "Robert E. Leuschke";
designerURL = www.typesetit.com;
disablesAutomaticAlignment = 1;
disablesNiceNames = 1;
familyName = "Fuzzy Bubbles";
featurePrefixes = (
{
automatic = 1;

glyphs = (
{
glyphname = .notdef;
lastChange = "2021-10-16 03:32:20 +0000";
layers = (
{
background = {
paths = (
{
closed = 1;
nodes = (
"469 0 LINE",
"478 8 LINE",
"478 621 LINE",
"469 630 LINE",
"48 630 LINE",
"40 620 LINE",
"40 9 LINE",
"48 0 LINE"
);
},
{
closed = 1;
nodes = (
"144 150 LINE",
"234 316 LINE",
"144 479 LINE",
"163 514 LINE",
"253 350 LINE",
"344 514 LINE",
"363 479 LINE",
"273 314 LINE",
"363 150 LINE",
"344 116 LINE",
"253 279 LINE",
"163 116 LINE"
);
},
{
closed = 1;
nodes = (
"57 16 LINE",
"57 613 LINE",
"461 613 LINE",
"461 16 LINE"
);
},
{
closed = 1;
nodes = (
"427 49 LINE",
"427 577 LINE",
"92 577 LINE",
"92 49 LINE"
);
}
);
};
layerId = "8F40E529-D5F5-4815-B22D-63C5267C70E2";
paths = (
{
closed = 1;
nodes = (
"469 0 LINE",
"478 8 LINE",
"478 621 LINE",
"469 630 LINE",
"48 630 LINE",
"40 620 LINE",
"40 9 LINE",
"48 0 LINE"
);
},
{
closed = 1;
nodes = (
"144 150 LINE",
"234 316 LINE",
"144 479 LINE",
"163 514 LINE",
"253 350 LINE",
"344 514 LINE",
"363 479 LINE",
"273 314 LINE",
"363 150 LINE",
"344 116 LINE",
"253 279 LINE",
"163 116 LINE"
);
},
{
closed = 1;
nodes = (
"57 16 LINE",
"57 613 LINE",
"461 613 LINE",
"461 16 LINE"
);
},
{
closed = 1;
nodes = (
"427 49 LINE",
"427 577 LINE",
"92 577 LINE",
"92 49 LINE"
);
}
);
width = 518;
},
{
background = {
paths = (
{
closed = 1;
nodes = (
"48 0 LINE",
"469 0 LINE",
"478 8 LINE",
"478 621 LINE",
"469 630 LINE",
"48 630 LINE",
"40 620 LINE",
"40 9 LINE"
);
},
{
closed = 1;
nodes = (
"57 613 LINE",
"461 613 LINE",
"461 16 LINE",
"57 16 LINE"
);
},
{
closed = 1;
nodes = (
"92 49 LINE",
"427 49 LINE",
"427 577 LINE",
"92 577 LINE"
);
},
{
closed = 1;
nodes = (
"144 150 LINE",
"234 316 LINE",
"144 479 LINE",
"163 514 LINE",
"253 350 LINE",
"344 514 LINE",
"363 479 LINE",
"273 314 LINE",
"363 150 LINE",
"344 116 LINE",
"253 279 LINE",
"163 116 LINE"
);
}
);
};
layerId = "33ACAFD4-38EF-4E3F-A654-B3CAAACD5815";
paths = (
{
closed = 1;
nodes = (
"469 0 LINE",
"478 8 LINE",
"478 621 LINE",
"469 630 LINE",
"48 630 LINE",
"40 620 LINE",
"40 9 LINE",
"48 0 LINE"
);
},
{
closed = 1;
nodes = (
"144 150 LINE",
"234 316 LINE",
"144 479 LINE",
"163 514 LINE",
"253 350 LINE",
"344 514 LINE",
"363 479 LINE",
"273 314 LINE",
"363 150 LINE",
"344 116 LINE",
"253 279 LINE",
"163 116 LINE"
);
},
{
closed = 1;
nodes = (
"57 613 LINE",
"461 613 LINE",
"461 16 LINE",
"57 16 LINE"
);
},
{
closed = 1;
nodes = (
"427 49 LINE",
"427 577 LINE",
"92 577 LINE",
"92 49 LINE"
);
}
);
width = 518;
}
);
note = .notdef;
},
{
glyphname = A;
lastChange = "2021-10-16 03:32:22 +0000";
layers = (
{
background = {
paths = (
{
closed = 1;
nodes = (
"183 10 OFFCURVE",
"187 46 OFFCURVE",
"194 82 CURVE SMOOTH",
"204 129 OFFCURVE",
"213 189 OFFCURVE",
"265 209 CURVE SMOOTH",
"292 219 OFFCURVE",
"324 222 OFFCURVE",
"353 222 CURVE SMOOTH",
"382 222 OFFCURVE",
"410 221 OFFCURVE",
"431 221 CURVE SMOOTH",
"542 221 LINE",
"552 208 OFFCURVE",
"566 183 OFFCURVE",
"571 164 CURVE SMOOTH",
"575 144 OFFCURVE",
"578 121 OFFCURVE",
"583 99 CURVE SMOOTH",
"592 54 OFFCURVE",
"605 31 OFFCURVE",
"637 31 CURVE SMOOTH",
"646 31 OFFCURVE",
"664 50 OFFCURVE",
"664 73 CURVE SMOOTH",
"664 87 LINE",
"632 248 OFFCURVE",
"576 414 OFFCURVE",
"507 565 CURVE SMOOTH",
"495 591 OFFCURVE",
"485 618 OFFCURVE",
"469 642 CURVE SMOOTH",
"453 665 OFFCURVE",
"435 678 OFFCURVE",
"410 678 CURVE SMOOTH",
"397 678 OFFCURVE",
"380 667 OFFCURVE",
"361 644 CURVE SMOOTH",
"344 624 OFFCURVE",
"330 601 OFFCURVE",
"317 578 CURVE SMOOTH",
"302 552 OFFCURVE",
"234 411 OFFCURVE",
"216 377 CURVE",
"212 372 OFFCURVE",
"209 361 OFFCURVE",
"205 350 CURVE SMOOTH",
"203 343 OFFCURVE",
"200 335 OFFCURVE",
"198 330 CURVE SMOOTH",
"194 321 OFFCURVE",
"191 314 OFFCURVE",
"189 312 CURVE",
"189 312 OFFCURVE",
"177 299 OFFCURVE",
"171 294 CURVE SMOOTH",
"156 282 OFFCURVE",
"138 277 OFFCURVE",
"122 275 CURVE SMOOTH",
"107 273 OFFCURVE",
"90 272 OFFCURVE",
"75 269 CURVE SMOOTH",
"47 264 OFFCURVE",
"35 257 OFFCURVE",
"35 231 CURVE SMOOTH",
"35 208 OFFCURVE",
"43 202 OFFCURVE",
"53 198 CURVE SMOOTH",
"60 196 OFFCURVE",
"69 195 OFFCURVE",
"79 194 CURVE",
"135 194 LINE",
"135 162 OFFCURVE",
"134 152 OFFCURVE",
"131 141 CURVE SMOOTH",
"126 113 OFFCURVE",
"114 85 OFFCURVE",
"114 57 CURVE SMOOTH",
"114 29 LINE",
"118 20 OFFCURVE",
"133 10 OFFCURVE",
"146 10 CURVE SMOOTH"
);
},
{
closed = 1;
nodes = (
"294 294 OFFCURVE",
"277 297 OFFCURVE",
"277 314 CURVE SMOOTH",
"277 319 OFFCURVE",
"279 326 OFFCURVE",
"283 335 CURVE SMOOTH",
"302 384 OFFCURVE",
"373 526 OFFCURVE",
"396 558 CURVE SMOOTH",
"402 566 OFFCURVE",
"407 568 OFFCURVE",
"412 568 CURVE SMOOTH",
"424 568 OFFCURVE",
"433 555 OFFCURVE",
"436 546 CURVE SMOOTH",
"449 510 OFFCURVE",
"489 412 OFFCURVE",
"499 386 CURVE SMOOTH",
"507 367 OFFCURVE",
"514 342 OFFCURVE",
"514 323 CURVE SMOOTH",
"514 316 OFFCURVE",
"513 310 OFFCURVE",
"511 305 CURVE",
"501 293 OFFCURVE",
"479 294 OFFCURVE",
"404 294 CURVE SMOOTH",
"309 294 LINE SMOOTH"
);
}
);
};
layerId = "8F40E529-D5F5-4815-B22D-63C5267C70E2";
paths = (
{
closed = 1;
nodes = (
"183 10 OFFCURVE",
"187 46 OFFCURVE",
"194 82 CURVE SMOOTH",
"204 129 OFFCURVE",
"213 189 OFFCURVE",
"265 209 CURVE SMOOTH",
"292 219 OFFCURVE",
"324 222 OFFCURVE",
"353 222 CURVE SMOOTH",
"382 222 OFFCURVE",
"410 221 OFFCURVE",
"431 221 CURVE SMOOTH",
"542 221 LINE",
"552 208 OFFCURVE",
"566 183 OFFCURVE",
"571 164 CURVE SMOOTH",
"575 144 OFFCURVE",
"578 121 OFFCURVE",
"583 99 CURVE SMOOTH",
"592 54 OFFCURVE",
"605 31 OFFCURVE",
"637 31 CURVE SMOOTH",
"646 31 OFFCURVE",
"664 50 OFFCURVE",
"664 73 CURVE SMOOTH",
"664 87 LINE",
"632 248 OFFCURVE",
"576 414 OFFCURVE",
"507 565 CURVE SMOOTH",
"495 591 OFFCURVE",
"485 618 OFFCURVE",
"469 642 CURVE SMOOTH",
"453 665 OFFCURVE",
"435 678 OFFCURVE",
"410 678 CURVE SMOOTH",
"397 678 OFFCURVE",
"380 667 OFFCURVE",
"361 644 CURVE SMOOTH",
"344 624 OFFCURVE",
"330 601 OFFCURVE",
"317 578 CURVE SMOOTH",
"302 552 OFFCURVE",
"234 411 OFFCURVE",
"216 377 CURVE",
"212 372 OFFCURVE",
"209 361 OFFCURVE",
"205 350 CURVE SMOOTH",
"203 343 OFFCURVE",
"200 335 OFFCURVE",
"198 330 CURVE SMOOTH",
"194 321 OFFCURVE",
"191 314 OFFCURVE",
"189 312 CURVE",
"189 312 OFFCURVE",
"177 299 OFFCURVE",
"171 294 CURVE SMOOTH",
"156 282 OFFCURVE",
"138 277 OFFCURVE",
"122 275 CURVE SMOOTH",
"107 273 OFFCURVE",
"90 272 OFFCURVE",
"75 269 CURVE SMOOTH",
"47 264 OFFCURVE",
"35 257 OFFCURVE",
"35 231 CURVE SMOOTH",
"35 208 OFFCURVE",
"43 202 OFFCURVE",
"53 198 CURVE SMOOTH",
"60 196 OFFCURVE",
"69 195 OFFCURVE",
"79 194 CURVE",
"135 194 LINE",
"135 162 OFFCURVE",
"134 152 OFFCURVE",
"131 141 CURVE SMOOTH",
"126 113 OFFCURVE",
"114 85 OFFCURVE",
"114 57 CURVE SMOOTH",
"114 29 LINE",
"118 20 OFFCURVE",
"133 10 OFFCURVE",
"146 10 CURVE SMOOTH"
);
},
{
closed = 1;
nodes = (
"294 294 OFFCURVE",
"277 297 OFFCURVE",
"277 314 CURVE SMOOTH",
"277 319 OFFCURVE",
"279 326 OFFCURVE",
"283 335 CURVE SMOOTH",
"302 384 OFFCURVE",
"373 526 OFFCURVE",
"396 558 CURVE SMOOTH",
"402 566 OFFCURVE",
"407 568 OFFCURVE",
"412 568 CURVE SMOOTH",
"424 568 OFFCURVE",
"433 555 OFFCURVE",
"436 546 CURVE SMOOTH",
"449 510 OFFCURVE",
"489 412 OFFCURVE",
"499 386 CURVE SMOOTH",
"507 367 OFFCURVE",
"514 342 OFFCURVE",
"514 323 CURVE SMOOTH",
"514 316 OFFCURVE",
"513 310 OFFCURVE",
"511 305 CURVE",
"501 293 OFFCURVE",
"479 294 OFFCURVE",
"404 294 CURVE SMOOTH",
"309 294 LINE SMOOTH"
);
}
);
width = 718;
},
{
background = {
paths = (
{
closed = 1;
nodes = (
"643 30 OFFCURVE",
"664 64 OFFCURVE",
"664 90 CURVE SMOOTH",
"664 105 LINE",
"633 260 OFFCURVE",
"580 417 OFFCURVE",
"516 560 CURVE SMOOTH",
"494 608 OFFCURVE",
"471 678 OFFCURVE",
"405 678 CURVE SMOOTH",
"360 678 OFFCURVE",
"320 607 OFFCURVE",
"301 574 CURVE SMOOTH",
"287 550 OFFCURVE",
"224 420 OFFCURVE",
"207 386 CURVE",
"195 369 OFFCURVE",
"195 345 OFFCURVE",
"184 328 CURVE",
"181 325 OFFCURVE",
"173 317 OFFCURVE",
"169 313 CURVE SMOOTH",
"134 284 OFFCURVE",
"35 319 OFFCURVE",
"35 238 CURVE SMOOTH",
"35 178 OFFCURVE",
"86 182 OFFCURVE",
"128 182 CURVE",
"127 146 OFFCURVE",
"109 112 OFFCURVE",
"109 76 CURVE SMOOTH",
"109 45 LINE",
"117 24 OFFCURVE",
"140 10 OFFCURVE",
"160 10 CURVE SMOOTH",
"253 10 OFFCURVE",
"203 169 OFFCURVE",
"279 197 CURVE SMOOTH",
"322 214 OFFCURVE",
"380 207 OFFCURVE",
"425 207 CURVE SMOOTH",
"513 207 LINE",
"559 174 OFFCURVE",
"523 30 OFFCURVE",
"618 30 CURVE SMOOTH"
);
},
{
closed = 1;
nodes = (
"479 323 LINE",
"414 319 OFFCURVE",
"382 319 OFFCURVE",
"337 319 CURVE SMOOTH",
"312 319 LINE SMOOTH",
"308 319 OFFCURVE",
"309 323 OFFCURVE",
"309 327 CURVE SMOOTH",
"309 332 LINE",
"322 363 OFFCURVE",
"366 453 OFFCURVE",
"378 479 CURVE",
"389 492 OFFCURVE",
"392 509 OFFCURVE",
"402 522 CURVE",
"405 522 LINE SMOOTH",
"408 522 OFFCURVE",
"410 522 OFFCURVE",
"411 521 CURVE",
"412 518 LINE",
"413 517 OFFCURVE",
"414 515 OFFCURVE",
"414 514 CURVE",
"424 494 OFFCURVE",
"460 400 OFFCURVE",
"469 375 CURVE SMOOTH",
"475 360 OFFCURVE",
"479 347 OFFCURVE",
"479 332 CURVE SMOOTH"
);
}
);
};
layerId = "33ACAFD4-38EF-4E3F-A654-B3CAAACD5815";
paths = (
{
closed = 1;
nodes = (
"253 10 OFFCURVE",
"203 169 OFFCURVE",
"279 197 CURVE SMOOTH",
"303 206 OFFCURVE",
"331 208 OFFCURVE",
"359 208 CURVE SMOOTH",
"382 208 OFFCURVE",
"405 207 OFFCURVE",
"425 207 CURVE SMOOTH",
"513 207 LINE",
"559 174 OFFCURVE",
"523 30 OFFCURVE",
"618 30 CURVE SMOOTH",
"643 30 OFFCURVE",
"664 64 OFFCURVE",
"664 90 CURVE SMOOTH",
"664 105 LINE",
"633 260 OFFCURVE",
"580 417 OFFCURVE",
"516 560 CURVE SMOOTH",
"494 608 OFFCURVE",
"471 678 OFFCURVE",
"405 678 CURVE SMOOTH",
"360 678 OFFCURVE",
"320 607 OFFCURVE",
"301 574 CURVE SMOOTH",
"287 550 OFFCURVE",
"224 420 OFFCURVE",
"207 386 CURVE",
"195 369 OFFCURVE",
"195 345 OFFCURVE",
"184 328 CURVE",
"169 313 LINE",
"134 284 OFFCURVE",
"35 319 OFFCURVE",
"35 238 CURVE SMOOTH",
"35 178 OFFCURVE",
"86 182 OFFCURVE",
"128 182 CURVE",
"127 146 OFFCURVE",
"109 112 OFFCURVE",
"109 76 CURVE SMOOTH",
"109 45 LINE",
"117 24 OFFCURVE",
"140 10 OFFCURVE",
"160 10 CURVE SMOOTH"
);
},
{
closed = 1;
nodes = (
"308 319 OFFCURVE",
"309 323 OFFCURVE",
"309 327 CURVE SMOOTH",
"309 332 LINE",
"322 363 OFFCURVE",
"366 453 OFFCURVE",
"378 479 CURVE",
"389 492 OFFCURVE",
"392 509 OFFCURVE",
"402 522 CURVE",
"405 522 LINE SMOOTH",
"408 522 OFFCURVE",
"410 522 OFFCURVE",
"411 521 CURVE",
"412 518 LINE",
"413 517 OFFCURVE",
"414 515 OFFCURVE",
"414 514 CURVE",
"424 494 OFFCURVE",
"460 400 OFFCURVE",
"469 375 CURVE SMOOTH",
"475 360 OFFCURVE",
"479 347 OFFCURVE",
"479 332 CURVE SMOOTH",
"479 323 LINE",
"414 319 OFFCURVE",
"382 319 OFFCURVE",
"337 319 CURVE SMOOTH",
"312 319 LINE SMOOTH"
);
}
);
width = 718;
}
);
note = A;
unicode = 0041;
},
{
glyphname = AE;
lastChange = "2021-10-16 03:32:22 +0000";
layers = (
{
background = {
paths = (
{
closed = 1;
nodes = (
"183 10 OFFCURVE",
"197 93 OFFCURVE",
"204 129 CURVE SMOOTH",
"214 176 OFFCURVE",
"216 205 OFFCURVE",
"251 218 CURVE SMOOTH",
"263 223 OFFCURVE",
"279 224 OFFCURVE",
"296 224 CURVE SMOOTH",
"316 224 OFFCURVE",
"337 222 OFFCURVE",
"353 222 CURVE SMOOTH",
"382 222 OFFCURVE",
"410 221 OFFCURVE",
"431 221 CURVE SMOOTH",
"501 221 LINE",
"502 55 OFFCURVE",
"527 10 OFFCURVE",
"682 10 CURVE SMOOTH",
"698 10 OFFCURVE",
"722 10 OFFCURVE",
"749 11 CURVE SMOOTH",
"776 13 OFFCURVE",
"806 15 OFFCURVE",
"834 21 CURVE SMOOTH",
"894 33 OFFCURVE",
"925 54 OFFCURVE",
"925 84 CURVE SMOOTH",
"925 113 OFFCURVE",
"920 115 OFFCURVE",
"893 115 CURVE SMOOTH",
"860 115 OFFCURVE",
"828 109 OFFCURVE",
"794 102 CURVE SMOOTH",
"759 96 OFFCURVE",
"723 89 OFFCURVE",
"687 89 CURVE SMOOTH",
"636 89 LINE",
"574 102 OFFCURVE",
"582 164 OFFCURVE",
"582 210 CURVE SMOOTH",
"582 215 OFFCURVE",
"582 223 OFFCURVE",
"581 232 CURVE SMOOTH",
"581 242 OFFCURVE",
"581 253 OFFCURVE",
"582 264 CURVE SMOOTH",
"585 285 OFFCURVE",
"582 318 OFFCURVE",
"620 320 CURVE SMOOTH",
"789 331 LINE SMOOTH",
"814 333 OFFCURVE",
"827 344 OFFCURVE",
"827 358 CURVE SMOOTH",
"827 381 OFFCURVE",
"815 396 OFFCURVE",
"787 405 CURVE",
"747 405 LINE SMOOTH",
"709 405 OFFCURVE",
"649 399 OFFCURVE",
"583 399 CURVE",
"583 426 OFFCURVE",
"581 457 OFFCURVE",
"581 487 CURVE SMOOTH",
"581 547 OFFCURVE",
"590 601 OFFCURVE",
"649 602 CURVE SMOOTH",
"893 604 LINE",
"903 605 OFFCURVE",
"914 616 OFFCURVE",
"914 631 CURVE SMOOTH",
"914 684 OFFCURVE",
"806 678 OFFCURVE",
"769 678 CURVE SMOOTH",
"683 678 OFFCURVE",
"608 667 OFFCURVE",
"523 653 CURVE SMOOTH",
"507 650 OFFCURVE",
"506 646 OFFCURVE",
"506 639 CURVE SMOOTH",
"506 634 LINE SMOOTH",
"506 632 OFFCURVE",
"506 629 OFFCURVE",
"505 625 CURVE",
"502 630 OFFCURVE",
"498 635 OFFCURVE",
"495 641 CURVE SMOOTH",
"480 674 OFFCURVE",
"456 679 OFFCURVE",
"435 679 CURVE SMOOTH",
"426 679 OFFCURVE",
"417 678 OFFCURVE",
"410 678 CURVE SMOOTH",
"397 678 OFFCURVE",
"380 667 OFFCURVE",
"361 644 CURVE SMOOTH",
"344 624 OFFCURVE",
"330 601 OFFCURVE",
"317 578 CURVE SMOOTH",
"302 552 OFFCURVE",
"234 411 OFFCURVE",
"216 377 CURVE",
"212 372 OFFCURVE",
"209 361 OFFCURVE",
"205 350 CURVE SMOOTH",
"203 343 OFFCURVE",
"200 335 OFFCURVE",
"198 330 CURVE SMOOTH",
"194 321 OFFCURVE",
"191 314 OFFCURVE",
"189 312 CURVE",
"189 312 OFFCURVE",
"177 299 OFFCURVE",
"171 294 CURVE SMOOTH",
"156 282 OFFCURVE",
"138 277 OFFCURVE",
"122 275 CURVE SMOOTH",
"107 273 OFFCURVE",
"90 272 OFFCURVE",
"75 269 CURVE SMOOTH",
"47 264 OFFCURVE",
"35 257 OFFCURVE",
"35 231 CURVE SMOOTH",
"35 208 OFFCURVE",
"43 202 OFFCURVE",
"53 198 CURVE SMOOTH",
"60 196 OFFCURVE",
"69 195 OFFCURVE",
"79 194 CURVE",
"135 194 LINE",
"135 162 OFFCURVE",
"134 152 OFFCURVE",
"131 141 CURVE SMOOTH",
"126 113 OFFCURVE",
"114 85 OFFCURVE",
"114 57 CURVE SMOOTH",
"114 29 LINE",
"118 20 OFFCURVE",
"133 10 OFFCURVE",
"146 10 CURVE SMOOTH"
);
},
{
closed = 1;
nodes = (
"287 297 OFFCURVE",
"278 310 OFFCURVE",
"278 332 CURVE SMOOTH",
"278 342 LINE",
"290 376 OFFCURVE",
"343 501 OFFCURVE",
"410 587 CURVE",
"418 593 OFFCURVE",
"427 597 OFFCURVE",
"437 597 CURVE SMOOTH",
"456 597 OFFCURVE",
"474 582 OFFCURVE",
"483 540 CURVE SMOOTH",
"498 471 OFFCURVE",
"499 408 OFFCURVE",
"499 344 CURVE SMOOTH",
"499 302 LINE",
"440 298 OFFCURVE",
"404 297 OFFCURVE",
"368 297 CURVE SMOOTH",
"331 297 LINE",
"305 297 LINE SMOOTH"
);
}
);
};
layerId = "8F40E529-D5F5-4815-B22D-63C5267C70E2";
paths = (
{
closed = 1;
nodes = (
"183 10 OFFCURVE",
"197 93 OFFCURVE",
"204 129 CURVE SMOOTH",
"214 176 OFFCURVE",
"216 205 OFFCURVE",
"251 218 CURVE SMOOTH",
"263 223 OFFCURVE",
"279 224 OFFCURVE",
"296 224 CURVE SMOOTH",
"316 224 OFFCURVE",
"337 222 OFFCURVE",
"353 222 CURVE SMOOTH",
"382 222 OFFCURVE",
"410 221 OFFCURVE",
"431 221 CURVE SMOOTH",
"501 221 LINE",
"502 55 OFFCURVE",
"527 10 OFFCURVE",
"682 10 CURVE SMOOTH",
"698 10 OFFCURVE",
"722 10 OFFCURVE",
"749 11 CURVE SMOOTH",
"776 13 OFFCURVE",
"806 15 OFFCURVE",
"834 21 CURVE SMOOTH",
"894 33 OFFCURVE",
"925 54 OFFCURVE",
"925 84 CURVE SMOOTH",
"925 113 OFFCURVE",
"920 115 OFFCURVE",
"893 115 CURVE SMOOTH",
"860 115 OFFCURVE",
"828 109 OFFCURVE",
"794 102 CURVE SMOOTH",
"759 96 OFFCURVE",
"723 89 OFFCURVE",
"687 89 CURVE SMOOTH",
"636 89 LINE",
"574 102 OFFCURVE",
"582 164 OFFCURVE",
"582 210 CURVE SMOOTH",
"582 215 OFFCURVE",
"582 223 OFFCURVE",
"581 232 CURVE SMOOTH",
"581 242 OFFCURVE",
"581 253 OFFCURVE",
"582 264 CURVE SMOOTH",
"585 285 OFFCURVE",
"582 318 OFFCURVE",
"620 320 CURVE SMOOTH",
"789 331 LINE SMOOTH",
"814 333 OFFCURVE",
"827 344 OFFCURVE",
"827 358 CURVE SMOOTH",
"827 381 OFFCURVE",
"815 396 OFFCURVE",
"787 405 CURVE",
"747 405 LINE SMOOTH",
"709 405 OFFCURVE",
"649 399 OFFCURVE",
"583 399 CURVE",
"583 426 OFFCURVE",
"581 457 OFFCURVE",
"581 487 CURVE SMOOTH",
"581 547 OFFCURVE",
"590 601 OFFCURVE",
"649 602 CURVE SMOOTH",
"893 604 LINE",
"903 605 OFFCURVE",
"914 616 OFFCURVE",
"914 631 CURVE SMOOTH",
"914 684 OFFCURVE",
"806 678 OFFCURVE",
"769 678 CURVE SMOOTH",
"683 678 OFFCURVE",
"608 667 OFFCURVE",
"523 653 CURVE SMOOTH",
"507 650 OFFCURVE",
"506 646 OFFCURVE",
"506 639 CURVE SMOOTH",
"506 634 LINE SMOOTH",
"506 632 OFFCURVE",
"506 629 OFFCURVE",
"505 625 CURVE",
"502 630 OFFCURVE",
"498 635 OFFCURVE",
"495 641 CURVE SMOOTH",
"480 674 OFFCURVE",
"456 679 OFFCURVE",
"435 679 CURVE SMOOTH",
"426 679 OFFCURVE",
"417 678 OFFCURVE",
"410 678 CURVE SMOOTH",
"397 678 OFFCURVE",
"380 667 OFFCURVE",
"361 644 CURVE SMOOTH",
"344 624 OFFCURVE",
"330 601 OFFCURVE",
"317 578 CURVE SMOOTH",
"302 552 OFFCURVE",
"234 411 OFFCURVE",
"216 377 CURVE",
"212 372 OFFCURVE",
"209 361 OFFCURVE",
"205 350 CURVE SMOOTH",
"203 343 OFFCURVE",
"200 335 OFFCURVE",
"198 330 CURVE SMOOTH",
"194 321 OFFCURVE",
"191 314 OFFCURVE",
"189 312 CURVE",
"189 312 OFFCURVE",
"177 299 OFFCURVE",
"171 294 CURVE SMOOTH",
"156 282 OFFCURVE",
"138 277 OFFCURVE",
"122 275 CURVE SMOOTH",
"107 273 OFFCURVE",
"90 272 OFFCURVE",
"75 269 CURVE SMOOTH",
"47 264 OFFCURVE",
"35 257 OFFCURVE",
"35 231 CURVE SMOOTH",
"35 208 OFFCURVE",
"43 202 OFFCURVE",
"53 198 CURVE SMOOTH",
"60 196 OFFCURVE",
"69 195 OFFCURVE",
"79 194 CURVE",
"135 194 LINE",
"135 162 OFFCURVE",
"134 152 OFFCURVE",
"131 141 CURVE SMOOTH",
"126 113 OFFCURVE",
"114 85 OFFCURVE",
"114 57 CURVE SMOOTH",
"114 29 LINE",
"118 20 OFFCURVE",
"133 10 OFFCURVE",
"146 10 CURVE SMOOTH"
);
},
{
closed = 1;
nodes = (
"287 297 OFFCURVE",
"278 310 OFFCURVE",
"278 332 CURVE SMOOTH",
"278 342 LINE",
"290 376 OFFCURVE",
"343 501 OFFCURVE",
"410 587 CURVE",
"418 593 OFFCURVE",
"427 597 OFFCURVE",
"437 597 CURVE SMOOTH",
"456 597 OFFCURVE",
"474 582 OFFCURVE",
"483 540 CURVE SMOOTH",
"498 471 OFFCURVE",
"499 408 OFFCURVE",
"499 344 CURVE SMOOTH",
"499 302 LINE",
"440 298 OFFCURVE",
"404 297 OFFCURVE",
"368 297 CURVE SMOOTH",
"331 297 LINE",
"305 297 LINE SMOOTH"
);
}
);
width = 961;
},
{
background = {
paths = (
{
closed = 1;
nodes = (
"876 32 OFFCURVE",
"925 54 OFFCURVE",
"925 100 CURVE SMOOTH",
"925 141 OFFCURVE",
"909 151 OFFCURVE",
"873 151 CURVE SMOOTH",
"806 151 OFFCURVE",
"743 127 OFFCURVE",
"677 127 CURVE SMOOTH",
"631 127 LINE",
"586 138 OFFCURVE",
"586 185 OFFCURVE",
"586 218 CURVE SMOOTH",
"586 243 OFFCURVE",
"576 298 OFFCURVE",
"615 300 CURVE SMOOTH",
"696 306 OFFCURVE",
"832 292 OFFCURVE",
"832 357 CURVE SMOOTH",
"832 391 OFFCURVE",
"812 411 OFFCURVE",
"775 422 CURVE",
"734 422 LINE SMOOTH",
"702 422 OFFCURVE",
"653 418 OFFCURVE",
"599 417 CURVE",
"599 430 OFFCURVE",
"598 444 OFFCURVE",
"598 458 CURVE SMOOTH",
"597 491 OFFCURVE",
"591 563 OFFCURVE",
"641 564 CURVE SMOOTH",
"744 565 OFFCURVE",
"914 531 OFFCURVE",
"914 612 CURVE SMOOTH",
"914 683 OFFCURVE",
"801 678 OFFCURVE",
"754 678 CURVE SMOOTH",
"672 678 OFFCURVE",
"600 667 OFFCURVE",
"517 654 CURVE SMOOTH",
"511 653 OFFCURVE",
"506 652 OFFCURVE",
"502 650 CURVE",
"480 678 OFFCURVE",
"461 678 OFFCURVE",
"413 678 CURVE SMOOTH",
"367 678 OFFCURVE",
"326 607 OFFCURVE",
"306 574 CURVE SMOOTH",
"292 550 OFFCURVE",
"228 420 OFFCURVE",
"210 386 CURVE",
"199 369 OFFCURVE",
"198 345 OFFCURVE",
"187 328 CURVE",
"184 325 OFFCURVE",
"176 317 OFFCURVE",
"172 313 CURVE SMOOTH",
"136 284 OFFCURVE",
"35 319 OFFCURVE",
"35 238 CURVE SMOOTH",
"35 178 OFFCURVE",
"87 182 OFFCURVE",
"130 182 CURVE",
"128 146 OFFCURVE",
"110 112 OFFCURVE",
"110 76 CURVE SMOOTH",
"110 45 LINE",
"119 24 OFFCURVE",
"142 10 OFFCURVE",
"163 10 CURVE SMOOTH",
"257 10 OFFCURVE",
"207 169 OFFCURVE",
"284 197 CURVE SMOOTH",
"328 214 OFFCURVE",
"387 207 OFFCURVE",
"433 207 CURVE SMOOTH",
"478 207 LINE",
"482 62 OFFCURVE",
"516 10 OFFCURVE",
"672 10 CURVE SMOOTH",
"722 10 OFFCURVE",
"772 11 OFFCURVE",
"821 21 CURVE SMOOTH"
);
},
{
closed = 1;
nodes = (
"469 378 OFFCURVE",
"471 349 OFFCURVE",
"474 322 CURVE",
"418 318 OFFCURVE",
"400 319 OFFCURVE",
"357 319 CURVE SMOOTH",
"331 319 LINE SMOOTH",
"327 319 OFFCURVE",
"328 323 OFFCURVE",
"328 327 CURVE SMOOTH",
"328 332 LINE",
"341 363 OFFCURVE",
"386 453 OFFCURVE",
"399 479 CURVE",
"409 492 OFFCURVE",
"413 509 OFFCURVE",
"423 522 CURVE",
"426 522 LINE SMOOTH",
"429 522 OFFCURVE",
"431 522 OFFCURVE",
"432 521 CURVE",
"433 518 LINE SMOOTH",
"452 461 OFFCURVE",
"457 468 OFFCURVE",
"465 408 CURVE SMOOTH"
);
}
);
};
layerId = "33ACAFD4-38EF-4E3F-A654-B3CAAACD5815";
paths = (
{
closed = 1;
nodes = (
"257 10 OFFCURVE",
"207 169 OFFCURVE",
"284 197 CURVE SMOOTH",
"308 206 OFFCURVE",
"337 208 OFFCURVE",
"365 208 CURVE SMOOTH",
"389 208 OFFCURVE",
"412 207 OFFCURVE",
"433 207 CURVE SMOOTH",
"478 207 LINE",
"482 62 OFFCURVE",
"516 10 OFFCURVE",
"672 10 CURVE SMOOTH",
"722 10 OFFCURVE",
"772 11 OFFCURVE",
"821 21 CURVE SMOOTH",
"876 32 OFFCURVE",
"925 54 OFFCURVE",
"925 100 CURVE SMOOTH",
"925 141 OFFCURVE",
"909 151 OFFCURVE",
"873 151 CURVE SMOOTH",
"806 151 OFFCURVE",
"743 127 OFFCURVE",
"677 127 CURVE SMOOTH",
"631 127 LINE",
"586 138 OFFCURVE",
"586 185 OFFCURVE",
"586 218 CURVE SMOOTH",
"586 226 OFFCURVE",
"585 238 OFFCURVE",
"585 251 CURVE SMOOTH",
"585 274 OFFCURVE",
"589 299 OFFCURVE",
"615 300 CURVE SMOOTH",
"696 306 OFFCURVE",
"832 292 OFFCURVE",
"832 357 CURVE SMOOTH",
"832 391 OFFCURVE",
"812 411 OFFCURVE",
"775 422 CURVE",
"734 422 LINE SMOOTH",
"702 422 OFFCURVE",
"653 418 OFFCURVE",
"599 417 CURVE",
"599 430 OFFCURVE",
"598 444 OFFCURVE",
"598 458 CURVE SMOOTH",
"597 491 OFFCURVE",
"591 563 OFFCURVE",
"641 564 CURVE SMOOTH",
"688 564 OFFCURVE",
"748 558 OFFCURVE",
"800 558 CURVE SMOOTH",
"863 558 OFFCURVE",
"914 568 OFFCURVE",
"914 612 CURVE SMOOTH",
"914 674 OFFCURVE",
"827 678 OFFCURVE",
"774 678 CURVE SMOOTH",
"684 678 OFFCURVE",
"607 668 OFFCURVE",
"517 654 CURVE SMOOTH",
"511 653 OFFCURVE",
"506 652 OFFCURVE",
"502 650 CURVE",
"480 678 OFFCURVE",
"461 678 OFFCURVE",
"413 678 CURVE SMOOTH",
"367 678 OFFCURVE",
"326 607 OFFCURVE",
"306 574 CURVE SMOOTH",
"292 550 OFFCURVE",
"228 420 OFFCURVE",
"210 386 CURVE",
"199 369 OFFCURVE",
"198 345 OFFCURVE",
"187 328 CURVE",
"172 313 LINE",
"136 284 OFFCURVE",
"35 319 OFFCURVE",
"35 238 CURVE SMOOTH",
"35 178 OFFCURVE",
"87 182 OFFCURVE",
"130 182 CURVE",
"128 146 OFFCURVE",
"110 112 OFFCURVE",
"110 76 CURVE SMOOTH",
"110 45 LINE",
"119 24 OFFCURVE",
"142 10 OFFCURVE",
"163 10 CURVE SMOOTH"
);
},
{
closed = 1;
nodes = (
"327 319 OFFCURVE",
"328 323 OFFCURVE",
"328 327 CURVE SMOOTH",
"328 332 LINE",
"341 363 OFFCURVE",
"386 453 OFFCURVE",
"399 479 CURVE",
"409 492 OFFCURVE",
"413 509 OFFCURVE",
"423 522 CURVE",
"426 522 LINE SMOOTH",
"429 522 OFFCURVE",
"431 522 OFFCURVE",
"432 521 CURVE",
"433 518 LINE SMOOTH",
"452 461 OFFCURVE",
"457 468 OFFCURVE",
"465 408 CURVE SMOOTH",
"469 378 OFFCURVE",
"471 349 OFFCURVE",
"474 322 CURVE",
"437 319 OFFCURVE",
"416 319 OFFCURVE",
"394 319 CURVE SMOOTH",
"357 319 LINE",
"331 319 LINE SMOOTH"
);
}
);
width = 961;
}
);
note = AE;
unicode = 00C6;
},
{
glyphname = B;
lastChange = "2021-10-16 03:32:20 +0000";
layers = (
{
background = {
paths = (
{
closed = 1;
nodes = (
"483 -5 OFFCURVE",
"644 68 OFFCURVE",
"644 226 CURVE SMOOTH",
"644 361 OFFCURVE",
"574 404 OFFCURVE",
"459 420 CURVE",
"512 442 OFFCURVE",
"533 491 OFFCURVE",
"533 551 CURVE SMOOTH",
"533 650 OFFCURVE",
"446 708 OFFCURVE",
"347 708 CURVE SMOOTH",
"279 708 OFFCURVE",
"50 674 OFFCURVE",
"50 593 CURVE SMOOTH",
"50 573 OFFCURVE",
"59 566 OFFCURVE",
"73 561 CURVE SMOOTH",
"82 557 OFFCURVE",
"90 555 OFFCURVE",
"96 553 CURVE SMOOTH",
"115 546 OFFCURVE",
"121 535 OFFCURVE",
"119 523 CURVE",
"124 466 OFFCURVE",
"124 430 OFFCURVE",
"124 372 CURVE SMOOTH",
"124 298 OFFCURVE",
"113 240 OFFCURVE",
"104 167 CURVE",
"104 147 LINE SMOOTH",
"104 110 OFFCURVE",
"102 66 OFFCURVE",
"144 61 CURVE",
"144 18 OFFCURVE",
"196 -5 OFFCURVE",
"279 -5 CURVE SMOOTH"
);
},
{
closed = 1;
nodes = (
"230 73 OFFCURVE",
"194 73 OFFCURVE",
"177 91 CURVE",
"177 112 OFFCURVE",
"181 129 OFFCURVE",
"185 147 CURVE SMOOTH",
"189 161 OFFCURVE",
"193 174 OFFCURVE",
"193 183 CURVE SMOOTH",
"193 199 OFFCURVE",
"198 262 OFFCURVE",
"198 278 CURVE SMOOTH",
"198 326 LINE SMOOTH",
"198 393 OFFCURVE",
"193 461 OFFCURVE",
"193 530 CURVE SMOOTH",
"193 578 LINE",
"227 626 OFFCURVE",
"298 635 OFFCURVE",
"347 635 CURVE SMOOTH",
"388 635 OFFCURVE",
"459 615 OFFCURVE",
"459 561 CURVE SMOOTH",
"459 499 OFFCURVE",
"409 470 OFFCURVE",
"356 446 CURVE SMOOTH",
"345 441 OFFCURVE",
"334 436 OFFCURVE",
"324 430 CURVE SMOOTH",
"314 425 OFFCURVE",
"306 420 OFFCURVE",
"299 415 CURVE SMOOTH",
"282 401 OFFCURVE",
"278 388 OFFCURVE",
"278 365 CURVE SMOOTH",
"278 361 OFFCURVE",
"279 357 OFFCURVE",
"284 352 CURVE SMOOTH",
"288 349 OFFCURVE",
"294 347 OFFCURVE",
"303 347 CURVE SMOOTH",
"328 347 OFFCURVE",
"369 357 OFFCURVE",
"409 357 CURVE SMOOTH",
"424 357 OFFCURVE",
"439 356 OFFCURVE",
"453 352 CURVE SMOOTH",
"508 338 OFFCURVE",
"570 308 OFFCURVE",
"570 246 CURVE SMOOTH",
"570 195 OFFCURVE",
"544 173 OFFCURVE",
"511 142 CURVE SMOOTH",
"441 76 OFFCURVE",
"346 73 OFFCURVE",
"268 73 CURVE SMOOTH"
);
}
);
};
layerId = "8F40E529-D5F5-4815-B22D-63C5267C70E2";
paths = (
{
closed = 1;
nodes = (
"483 -5 OFFCURVE",
"644 68 OFFCURVE",
"644 226 CURVE SMOOTH",
"644 361 OFFCURVE",
"574 404 OFFCURVE",
"459 420 CURVE",
"512 442 OFFCURVE",
"533 491 OFFCURVE",
"533 551 CURVE SMOOTH",
"533 650 OFFCURVE",
"446 708 OFFCURVE",
"347 708 CURVE SMOOTH",
"279 708 OFFCURVE",
"50 674 OFFCURVE",
"50 593 CURVE SMOOTH",
"50 573 OFFCURVE",
"59 566 OFFCURVE",
"73 561 CURVE SMOOTH",
"82 557 OFFCURVE",
"90 555 OFFCURVE",
"96 553 CURVE SMOOTH",
"115 546 OFFCURVE",
"121 535 OFFCURVE",
"119 523 CURVE",
"124 466 OFFCURVE",
"124 430 OFFCURVE",
"124 372 CURVE SMOOTH",
"124 298 OFFCURVE",
"113 240 OFFCURVE",
"104 167 CURVE",
"104 147 LINE SMOOTH",
"104 110 OFFCURVE",
"102 66 OFFCURVE",
"144 61 CURVE",
"144 18 OFFCURVE",
"196 -5 OFFCURVE",
"279 -5 CURVE SMOOTH"
);
},
{
closed = 1;
nodes = (
"230 73 OFFCURVE",
"194 73 OFFCURVE",
"177 91 CURVE",
"177 112 OFFCURVE",
"181 129 OFFCURVE",
"185 147 CURVE SMOOTH",
"189 161 OFFCURVE",
"193 174 OFFCURVE",
"193 183 CURVE SMOOTH",
"193 199 OFFCURVE",
"198 262 OFFCURVE",
"198 278 CURVE SMOOTH",
"198 326 LINE SMOOTH",
"198 393 OFFCURVE",
"193 461 OFFCURVE",
"193 530 CURVE SMOOTH",
"193 578 LINE",
"227 626 OFFCURVE",
"298 635 OFFCURVE",
"347 635 CURVE SMOOTH",
"388 635 OFFCURVE",
"459 615 OFFCURVE",
"459 561 CURVE SMOOTH",
"459 499 OFFCURVE",
"409 470 OFFCURVE",
"356 446 CURVE SMOOTH",
"345 441 OFFCURVE",
"334 436 OFFCURVE",
"324 430 CURVE SMOOTH",
"314 425 OFFCURVE",
"306 420 OFFCURVE",
"299 415 CURVE SMOOTH",
"282 401 OFFCURVE",
"278 388 OFFCURVE",
"278 365 CURVE SMOOTH",
"278 361 OFFCURVE",
"279 357 OFFCURVE",
"284 352 CURVE SMOOTH",
"288 349 OFFCURVE",
"294 347 OFFCURVE",
"303 347 CURVE SMOOTH",
"328 347 OFFCURVE",
"369 357 OFFCURVE",
"409 357 CURVE SMOOTH",
"424 357 OFFCURVE",
"439 356 OFFCURVE",
"453 352 CURVE SMOOTH",
"508 338 OFFCURVE",
"570 308 OFFCURVE",
"570 246 CURVE SMOOTH",
"570 195 OFFCURVE",
"544 173 OFFCURVE",
"511 142 CURVE SMOOTH",
"441 76 OFFCURVE",
"346 73 OFFCURVE",
"268 73 CURVE SMOOTH"
);
}
);
width = 693;
},
{
background = {
paths = (
{
closed = 1;
nodes = (
"405 -5 OFFCURVE",
"611 48 OFFCURVE",
"644 193 CURVE",
"644 233 LINE SMOOTH",
"644 303 OFFCURVE",
"618 347 OFFCURVE",
"565 397 CURVE SMOOTH",
"555 406 OFFCURVE",
"506 420 OFFCURVE",
"506 431 CURVE SMOOTH",
"506 448 OFFCURVE",
"534 490 OFFCURVE",
"541 514 CURVE",
"541 539 LINE SMOOTH",
"541 648 OFFCURVE",
"446 708 OFFCURVE",
"347 708 CURVE SMOOTH",
"278 708 OFFCURVE",
"50 662 OFFCURVE",
"50 578 CURVE SMOOTH",
"50 548 OFFCURVE",
"68 535 OFFCURVE",
"85 528 CURVE SMOOTH",
"90 526 OFFCURVE",
"115 521 OFFCURVE",
"114 514 CURVE",
"119 458 OFFCURVE",
"119 424 OFFCURVE",
"119 371 CURVE SMOOTH",
"119 303 OFFCURVE",
"109 248 OFFCURVE",
"100 179 CURVE",
"100 159 LINE SMOOTH",
"100 119 OFFCURVE",
"115 94 OFFCURVE",
"154 85 CURVE",
"172 2 OFFCURVE",
"205 -5 OFFCURVE",
"284 -5 CURVE SMOOTH"
);
},
{
closed = 1;
nodes = (
"445 330 LINE SMOOTH",
"490 330 OFFCURVE",
"533 296 OFFCURVE",
"533 252 CURVE SMOOTH",
"533 225 OFFCURVE",
"523 209 OFFCURVE",
"505 190 CURVE SMOOTH",
"435 118 OFFCURVE",
"369 112 OFFCURVE",
"273 112 CURVE SMOOTH",
"214 112 LINE",
"210 115 LINE",
"212 142 OFFCURVE",
"225 167 OFFCURVE",
"225 194 CURVE SMOOTH",
"225 209 OFFCURVE",
"230 267 OFFCURVE",
"230 283 CURVE SMOOTH",
"230 327 LINE SMOOTH",
"230 391 OFFCURVE",
"225 455 OFFCURVE",
"225 519 CURVE SMOOTH",
"225 557 LINE",
"252 588 OFFCURVE",
"304 596 OFFCURVE",
"347 596 CURVE SMOOTH",
"376 596 OFFCURVE",
"429 587 OFFCURVE",
"429 548 CURVE SMOOTH",
"429 452 OFFCURVE",
"262 465 OFFCURVE",
"262 376 CURVE SMOOTH",
"262 372 OFFCURVE",
"261 366 OFFCURVE",
"261 361 CURVE SMOOTH",
"261 342 OFFCURVE",
"270 330 OFFCURVE",
"288 330 CURVE SMOOTH"
);
}
);
};
layerId = "33ACAFD4-38EF-4E3F-A654-B3CAAACD5815";
paths = (
{
closed = 1;
nodes = (
"405 -5 OFFCURVE",
"611 48 OFFCURVE",
"644 193 CURVE",
"644 233 LINE SMOOTH",
"644 303 OFFCURVE",
"618 347 OFFCURVE",
"565 397 CURVE SMOOTH",
"555 406 OFFCURVE",
"506 420 OFFCURVE",
"506 431 CURVE SMOOTH",
"506 448 OFFCURVE",
"534 490 OFFCURVE",
"541 514 CURVE",
"541 539 LINE SMOOTH",
"541 648 OFFCURVE",
"446 708 OFFCURVE",
"347 708 CURVE SMOOTH",
"278 708 OFFCURVE",
"50 662 OFFCURVE",
"50 578 CURVE SMOOTH",
"50 548 OFFCURVE",
"68 535 OFFCURVE",
"85 528 CURVE SMOOTH",
"90 526 OFFCURVE",
"115 521 OFFCURVE",
"114 514 CURVE",
"119 458 OFFCURVE",
"119 424 OFFCURVE",
"119 371 CURVE SMOOTH",
"119 303 OFFCURVE",
"109 248 OFFCURVE",
"100 179 CURVE",
"100 159 LINE SMOOTH",
"100 119 OFFCURVE",
"115 94 OFFCURVE",
"154 85 CURVE",
"172 2 OFFCURVE",
"205 -5 OFFCURVE",
"284 -5 CURVE SMOOTH"
);
},
{
closed = 1;
nodes = (
"210 115 LINE",
"212 142 OFFCURVE",
"225 167 OFFCURVE",
"225 194 CURVE SMOOTH",
"225 209 OFFCURVE",
"230 267 OFFCURVE",
"230 283 CURVE SMOOTH",
"230 327 LINE SMOOTH",
"230 391 OFFCURVE",
"225 455 OFFCURVE",
"225 519 CURVE SMOOTH",
"225 557 LINE",
"252 588 OFFCURVE",
"304 596 OFFCURVE",
"347 596 CURVE SMOOTH",
"376 596 OFFCURVE",
"429 587 OFFCURVE",
"429 548 CURVE SMOOTH",
"429 452 OFFCURVE",
"262 465 OFFCURVE",
"262 376 CURVE SMOOTH",
"262 372 OFFCURVE",
"261 366 OFFCURVE",
"261 361 CURVE SMOOTH",
"261 342 OFFCURVE",
"270 330 OFFCURVE",
"288 330 CURVE SMOOTH",
"445 330 LINE SMOOTH",
"490 330 OFFCURVE",
"533 296 OFFCURVE",
"533 252 CURVE SMOOTH",
"533 225 OFFCURVE",
"523 209 OFFCURVE",
"505 190 CURVE SMOOTH",
"435 118 OFFCURVE",
"369 112 OFFCURVE",
"273 112 CURVE SMOOTH",
"214 112 LINE"
);
}
);
width = 693;
}
);
note = B;
unicode = 0042;
},
{
glyphname = C;
lastChange = "2021-10-16 03:32:20 +0000";
layers = (
{
background = {
paths = (
{
closed = 1;
nodes = (
"432 -25 OFFCURVE",
"511 6 OFFCURVE",
"579 64 CURVE SMOOTH",
"590 74 OFFCURVE",
"603 84 OFFCURVE",
"613 96 CURVE SMOOTH",
"624 109 OFFCURVE",
"629 119 OFFCURVE",
"629 127 CURVE SMOOTH",
"629 151 OFFCURVE",
"613 163 OFFCURVE",
"593 163 CURVE SMOOTH",
"579 163 OFFCURVE",
"564 157 OFFCURVE",
"550 144 CURVE SMOOTH",
"498 96 OFFCURVE",
"439 48 OFFCURVE",
"326 48 CURVE SMOOTH",
"196 48 OFFCURVE",
"130 192 OFFCURVE",
"130 295 CURVE SMOOTH",
"130 431 OFFCURVE",
"229 620 OFFCURVE",
"401 620 CURVE SMOOTH",
"465 620 OFFCURVE",
"489 582 OFFCURVE",
"505 551 CURVE SMOOTH",
"517 523 OFFCURVE",
"529 505 OFFCURVE",
"550 505 CURVE SMOOTH",
"563 505 OFFCURVE",
"576 511 OFFCURVE",
"576 541 CURVE SMOOTH",
"576 633 OFFCURVE",
"481 688 OFFCURVE",
"391 688 CURVE SMOOTH",
"196 688 OFFCURVE",
"50 447 OFFCURVE",
"50 268 CURVE SMOOTH",
"50 97 OFFCURVE",
"174 -25 OFFCURVE",
"342 -25 CURVE SMOOTH"
);
}
);
};
layerId = "8F40E529-D5F5-4815-B22D-63C5267C70E2";
paths = (
{
closed = 1;
nodes = (
"432 -25 OFFCURVE",
"511 6 OFFCURVE",
"579 64 CURVE SMOOTH",
"590 74 OFFCURVE",
"603 84 OFFCURVE",
"613 96 CURVE SMOOTH",
"624 109 OFFCURVE",
"629 119 OFFCURVE",
"629 127 CURVE SMOOTH",
"629 151 OFFCURVE",
"613 163 OFFCURVE",
"593 163 CURVE SMOOTH",
"579 163 OFFCURVE",
"564 157 OFFCURVE",
"550 144 CURVE SMOOTH",
"498 96 OFFCURVE",
"439 48 OFFCURVE",
"326 48 CURVE SMOOTH",
"196 48 OFFCURVE",
"130 192 OFFCURVE",
"130 295 CURVE SMOOTH",
"130 431 OFFCURVE",
"229 620 OFFCURVE",
"401 620 CURVE SMOOTH",
"465 620 OFFCURVE",
"489 582 OFFCURVE",
"505 551 CURVE SMOOTH",
"517 523 OFFCURVE",
"529 505 OFFCURVE",
"550 505 CURVE SMOOTH",
"563 505 OFFCURVE",
"576 511 OFFCURVE",
"576 541 CURVE SMOOTH",
"576 633 OFFCURVE",
"481 688 OFFCURVE",
"391 688 CURVE SMOOTH",
"196 688 OFFCURVE",
"50 447 OFFCURVE",
"50 268 CURVE SMOOTH",
"50 97 OFFCURVE",
"174 -25 OFFCURVE",
"342 -25 CURVE SMOOTH"
);
}
);
width = 678;
},
{
background = {
paths = (
{
closed = 1;
nodes = (
"620 109 OFFCURVE",
"629 124 OFFCURVE",
"629 139 CURVE SMOOTH",
"629 175 OFFCURVE",
"603 195 OFFCURVE",
"574 195 CURVE SMOOTH",
"543 195 OFFCURVE",
"520 172 OFFCURVE",
"499 152 CURVE SMOOTH",
"454 110 OFFCURVE",
"388 87 OFFCURVE",
"327 87 CURVE SMOOTH",
"225 87 OFFCURVE",
"166 204 OFFCURVE",
"166 297 CURVE SMOOTH",
"166 420 OFFCURVE",
"254 581 OFFCURVE",
"397 581 CURVE SMOOTH",
"489 581 OFFCURVE",
"464 473 OFFCURVE",
"534 473 CURVE SMOOTH",
"554 473 OFFCURVE",
"571 475 OFFCURVE",
"580 498 CURVE",
"580 528 LINE SMOOTH",
"580 633 OFFCURVE",
"476 688 OFFCURVE",
"387 688 CURVE SMOOTH",
"189 688 OFFCURVE",
"50 445 OFFCURVE",
"50 272 CURVE SMOOTH",
"50 99 OFFCURVE",
"174 -25 OFFCURVE",
"342 -25 CURVE SMOOTH",
"431 -25 OFFCURVE",
"508 6 OFFCURVE",
"575 64 CURVE SMOOTH",
"587 74 OFFCURVE",
"599 84 OFFCURVE",
"609 96 CURVE SMOOTH"
);
}
);
};
layerId = "33ACAFD4-38EF-4E3F-A654-B3CAAACD5815";
paths = (
{
closed = 1;
nodes = (
"431 -25 OFFCURVE",
"508 6 OFFCURVE",
"575 64 CURVE SMOOTH",
"587 74 OFFCURVE",
"599 84 OFFCURVE",
"609 96 CURVE SMOOTH",
"620 109 OFFCURVE",
"629 124 OFFCURVE",
"629 139 CURVE SMOOTH",
"629 175 OFFCURVE",
"603 195 OFFCURVE",
"574 195 CURVE SMOOTH",
"543 195 OFFCURVE",
"520 172 OFFCURVE",
"499 152 CURVE SMOOTH",
"454 110 OFFCURVE",
"388 87 OFFCURVE",
"327 87 CURVE SMOOTH",
"225 87 OFFCURVE",
"166 204 OFFCURVE",
"166 297 CURVE SMOOTH",
"166 420 OFFCURVE",
"254 581 OFFCURVE",
"397 581 CURVE SMOOTH",
"489 581 OFFCURVE",
"464 473 OFFCURVE",
"534 473 CURVE SMOOTH",
"554 473 OFFCURVE",
"571 475 OFFCURVE",
"580 498 CURVE",
"580 528 LINE SMOOTH",
"580 633 OFFCURVE",
"476 688 OFFCURVE",
"387 688 CURVE SMOOTH",
"189 688 OFFCURVE",
"50 445 OFFCURVE",
"50 272 CURVE SMOOTH",
"50 99 OFFCURVE",
"174 -25 OFFCURVE",
"342 -25 CURVE SMOOTH"
);
}
);
width = 678;
}
);
note = C;
unicode = 0043;
},
{
color = 11;
glyphname = Ccedilla;
lastChange = "2021-10-16 03:32:22 +0000";
layers = (
{
background = {
paths = (
{
closed = 1;
nodes = (
"276 -375 OFFCURVE",
"364 -333 OFFCURVE",
"364 -244 CURVE SMOOTH",
"364 -183 OFFCURVE",
"339 -145 OFFCURVE",
"285 -132 CURVE",
"296 -101 OFFCURVE",
"310 -69 OFFCURVE",
"320 -42 CURVE SMOOTH",
"321 -38 OFFCURVE",
"322 -33 OFFCURVE",
"322 -29 CURVE SMOOTH",
"322 -24 LINE",
"328 -25 OFFCURVE",
"335 -25 OFFCURVE",
"342 -25 CURVE SMOOTH",
"432 -25 OFFCURVE",
"511 6 OFFCURVE",
"579 64 CURVE SMOOTH",
"590 74 OFFCURVE",
"603 84 OFFCURVE",
"613 96 CURVE SMOOTH",
"624 109 OFFCURVE",
"629 119 OFFCURVE",
"629 127 CURVE SMOOTH",
"629 151 OFFCURVE",
"613 163 OFFCURVE",
"593 163 CURVE SMOOTH",
"579 163 OFFCURVE",
"565 156 OFFCURVE",
"550 144 CURVE SMOOTH",
"542 138 OFFCURVE",
"534 131 OFFCURVE",
"527 124 CURVE SMOOTH",
"505 104 LINE",
"458 69 OFFCURVE",
"384 48 OFFCURVE",
"326 48 CURVE SMOOTH",
"196 48 OFFCURVE",
"130 192 OFFCURVE",
"130 295 CURVE SMOOTH",
"130 431 OFFCURVE",
"229 620 OFFCURVE",
"401 620 CURVE SMOOTH",
"465 620 OFFCURVE",
"489 582 OFFCURVE",
"505 551 CURVE SMOOTH",
"508 544 OFFCURVE",
"512 537 OFFCURVE",
"515 530 CURVE",
"519 524 OFFCURVE",
"522 519 OFFCURVE",
"526 516 CURVE",
"532 508 OFFCURVE",
"540 505 OFFCURVE",
"555 505 CURVE SMOOTH",
"563 505 OFFCURVE",
"573 506 OFFCURVE",
"576 513 CURVE",
"576 541 LINE SMOOTH",
"576 633 OFFCURVE",
"481 688 OFFCURVE",
"391 688 CURVE SMOOTH",
"196 688 OFFCURVE",
"50 447 OFFCURVE",
"50 268 CURVE SMOOTH",
"50 126 OFFCURVE",
"135 18 OFFCURVE",
"261 -15 CURVE",
"260 -16 OFFCURVE",
"259 -18 OFFCURVE",
"259 -20 CURVE",
"244 -59 OFFCURVE",
"222 -109 OFFCURVE",
"211 -152 CURVE SMOOTH",
"210 -156 OFFCURVE",
"210 -159 OFFCURVE",
"210 -162 CURVE SMOOTH",
"210 -180 OFFCURVE",
"223 -193 OFFCURVE",
"242 -193 CURVE SMOOTH",
"290 -193 OFFCURVE",
"299 -205 OFFCURVE",
"299 -244 CURVE SMOOTH",
"299 -279 OFFCURVE",
"262 -310 OFFCURVE",
"207 -310 CURVE SMOOTH",
"184 -310 OFFCURVE",
"158 -305 OFFCURVE",
"135 -301 CURVE",
"131 -299 OFFCURVE",
"126 -299 OFFCURVE",
"121 -299 CURVE SMOOTH",
"102 -299 OFFCURVE",
"83 -315 OFFCURVE",
"83 -332 CURVE SMOOTH",
"83 -342 OFFCURVE",
"89 -353 OFFCURVE",
"106 -361 CURVE SMOOTH",
"119 -367 OFFCURVE",
"198 -375 OFFCURVE",
"207 -375 CURVE SMOOTH"
);
}
);
};
layerId = "8F40E529-D5F5-4815-B22D-63C5267C70E2";
paths = (
{
closed = 1;
nodes = (
"276 -375 OFFCURVE",
"364 -333 OFFCURVE",
"364 -244 CURVE SMOOTH",
"364 -183 OFFCURVE",
"339 -145 OFFCURVE",
"285 -132 CURVE",
"296 -101 OFFCURVE",
"310 -69 OFFCURVE",
"320 -42 CURVE SMOOTH",
"321 -38 OFFCURVE",
"322 -33 OFFCURVE",
"322 -29 CURVE SMOOTH",
"322 -24 LINE",
"328 -25 OFFCURVE",
"335 -25 OFFCURVE",
"342 -25 CURVE SMOOTH",
"432 -25 OFFCURVE",
"511 6 OFFCURVE",
"579 64 CURVE SMOOTH",
"590 74 OFFCURVE",
"603 84 OFFCURVE",
"613 96 CURVE SMOOTH",
"624 109 OFFCURVE",
"629 119 OFFCURVE",
"629 127 CURVE SMOOTH",
"629 151 OFFCURVE",
"613 163 OFFCURVE",
"593 163 CURVE SMOOTH",
"579 163 OFFCURVE",
"565 156 OFFCURVE",
"550 144 CURVE SMOOTH",
"542 138 OFFCURVE",
"534 131 OFFCURVE",
"527 124 CURVE SMOOTH",
"505 104 LINE",
"458 69 OFFCURVE",
"384 48 OFFCURVE",
"326 48 CURVE SMOOTH",
"196 48 OFFCURVE",
"130 192 OFFCURVE",
"130 295 CURVE SMOOTH",
"130 431 OFFCURVE",
"229 620 OFFCURVE",
"401 620 CURVE SMOOTH",
"465 620 OFFCURVE",
"489 582 OFFCURVE",
"505 551 CURVE SMOOTH",
"508 544 OFFCURVE",
"512 537 OFFCURVE",
"515 530 CURVE",
"519 524 OFFCURVE",
"522 519 OFFCURVE",
"526 516 CURVE",
"532 508 OFFCURVE",
"540 505 OFFCURVE",
"555 505 CURVE SMOOTH",
"563 505 OFFCURVE",
"573 506 OFFCURVE",
"576 513 CURVE",
"576 541 LINE SMOOTH",
"576 633 OFFCURVE",
"481 688 OFFCURVE",
"391 688 CURVE SMOOTH",
"196 688 OFFCURVE",
"50 447 OFFCURVE",
"50 268 CURVE SMOOTH",
"50 126 OFFCURVE",
"135 18 OFFCURVE",
"261 -15 CURVE",
"260 -16 OFFCURVE",
"259 -18 OFFCURVE",
"259 -20 CURVE",
"244 -59 OFFCURVE",
"222 -109 OFFCURVE",
"211 -152 CURVE SMOOTH",
"210 -156 OFFCURVE",
"210 -159 OFFCURVE",
"210 -162 CURVE SMOOTH",
"210 -180 OFFCURVE",
"223 -193 OFFCURVE",
"242 -193 CURVE SMOOTH",
"290 -193 OFFCURVE",
"299 -205 OFFCURVE",
"299 -244 CURVE SMOOTH",
"299 -279 OFFCURVE",
"262 -310 OFFCURVE",
"207 -310 CURVE SMOOTH",
"184 -310 OFFCURVE",
"158 -305 OFFCURVE",
"135 -301 CURVE",
"131 -299 OFFCURVE",
"126 -299 OFFCURVE",
"121 -299 CURVE SMOOTH",
"102 -299 OFFCURVE",
"83 -315 OFFCURVE",
"83 -332 CURVE SMOOTH",
"83 -342 OFFCURVE",
"89 -353 OFFCURVE",
"106 -361 CURVE SMOOTH",
"119 -367 OFFCURVE",
"198 -375 OFFCURVE",
"207 -375 CURVE SMOOTH"
);
}
);
width = 678;
},
{
background = {
paths = (
{
closed = 1;
nodes = (
"225 -57 OFFCURVE",
"209 -98 OFFCURVE",
"200 -133 CURVE SMOOTH",
"191 -169 OFFCURVE",
"214 -200 OFFCURVE",
"249 -200 CURVE SMOOTH",
"275 -200 OFFCURVE",
"280 -206 OFFCURVE",
"280 -227 CURVE SMOOTH",
"280 -243 OFFCURVE",
"262 -268 OFFCURVE",
"217 -268 CURVE SMOOTH",
"197 -268 OFFCURVE",
"175 -264 OFFCURVE",
"155 -261 CURVE",
"149 -259 OFFCURVE",
"143 -258 OFFCURVE",
"137 -258 CURVE SMOOTH",
"109 -258 OFFCURVE",
"32 -319 OFFCURVE",
"114 -359 CURVE SMOOTH",
"127 -366 OFFCURVE",
"207 -375 OFFCURVE",
"217 -375 CURVE SMOOTH",
"285 -375 OFFCURVE",
"383 -331 OFFCURVE",
"383 -227 CURVE SMOOTH",
"383 -170 OFFCURVE",
"363 -127 OFFCURVE",
"317 -106 CURVE",
"325 -85 OFFCURVE",
"335 -61 OFFCURVE",
"342 -39 CURVE",
"431 -39 OFFCURVE",
"508 -8 OFFCURVE",
"575 51 CURVE SMOOTH",
"596 70 OFFCURVE",
"629 98 OFFCURVE",
"629 128 CURVE SMOOTH",
"629 164 OFFCURVE",
"603 185 OFFCURVE",
"574 185 CURVE SMOOTH",
"543 185 OFFCURVE",
"520 162 OFFCURVE",
"499 141 CURVE SMOOTH",
"454 98 OFFCURVE",
"388 75 OFFCURVE",
"327 75 CURVE SMOOTH",
"225 75 OFFCURVE",
"166 194 OFFCURVE",
"166 289 CURVE SMOOTH",
"166 414 OFFCURVE",
"254 579 OFFCURVE",
"397 579 CURVE SMOOTH",
"489 579 OFFCURVE",
"464 468 OFFCURVE",
"534 468 CURVE SMOOTH",
"554 468 OFFCURVE",
"571 470 OFFCURVE",
"580 494 CURVE",
"580 525 LINE SMOOTH",
"580 632 OFFCURVE",
"476 688 OFFCURVE",
"387 688 CURVE SMOOTH",
"189 688 OFFCURVE",
"50 440 OFFCURVE",
"50 264 CURVE SMOOTH",
"50 126 OFFCURVE",
"125 19 OFFCURVE",
"238 -22 CURVE"
);
}
);
};
layerId = "33ACAFD4-38EF-4E3F-A654-B3CAAACD5815";
paths = (
{
closed = 1;
nodes = (
"285 -375 OFFCURVE",
"383 -331 OFFCURVE",
"383 -227 CURVE SMOOTH",
"383 -170 OFFCURVE",
"363 -127 OFFCURVE",
"317 -106 CURVE",
"325 -85 OFFCURVE",
"335 -61 OFFCURVE",
"342 -39 CURVE",
"431 -39 OFFCURVE",
"508 -8 OFFCURVE",
"575 51 CURVE SMOOTH",
"596 70 OFFCURVE",
"629 98 OFFCURVE",
"629 128 CURVE SMOOTH",
"629 164 OFFCURVE",
"603 185 OFFCURVE",
"574 185 CURVE SMOOTH",
"543 185 OFFCURVE",
"520 162 OFFCURVE",
"499 141 CURVE SMOOTH",
"454 98 OFFCURVE",
"388 75 OFFCURVE",
"327 75 CURVE SMOOTH",
"225 75 OFFCURVE",
"166 194 OFFCURVE",
"166 289 CURVE SMOOTH",
"166 414 OFFCURVE",
"254 579 OFFCURVE",
"397 579 CURVE SMOOTH",
"489 579 OFFCURVE",
"464 468 OFFCURVE",
"534 468 CURVE SMOOTH",
"554 468 OFFCURVE",
"571 470 OFFCURVE",
"580 494 CURVE",
"580 525 LINE SMOOTH",
"580 632 OFFCURVE",
"476 688 OFFCURVE",
"387 688 CURVE SMOOTH",
"189 688 OFFCURVE",
"50 440 OFFCURVE",
"50 264 CURVE SMOOTH",
"50 126 OFFCURVE",
"125 19 OFFCURVE",
"238 -22 CURVE",
"225 -57 OFFCURVE",
"209 -98 OFFCURVE",
"200 -133 CURVE SMOOTH",
"199 -138 OFFCURVE",
"198 -144 OFFCURVE",
"198 -149 CURVE SMOOTH",
"198 -177 OFFCURVE",
"219 -200 OFFCURVE",
"249 -200 CURVE SMOOTH",
"275 -200 OFFCURVE",
"280 -206 OFFCURVE",
"280 -227 CURVE SMOOTH",
"280 -243 OFFCURVE",
"262 -268 OFFCURVE",
"217 -268 CURVE SMOOTH",
"197 -268 OFFCURVE",
"175 -264 OFFCURVE",
"155 -261 CURVE",
"149 -259 OFFCURVE",
"143 -258 OFFCURVE",
"137 -258 CURVE SMOOTH",
"118 -258 OFFCURVE",
"77 -286 OFFCURVE",
"77 -316 CURVE SMOOTH",
"77 -330 OFFCURVE",
"87 -346 OFFCURVE",
"114 -359 CURVE SMOOTH",
"127 -366 OFFCURVE",
"207 -375 OFFCURVE",
"217 -375 CURVE SMOOTH"
);
}
);
width = 678;
}
);
note = Ccedilla;
unicode = 00C7;
},
{
glyphname = D;
lastChange = "2021-10-16 03:32:22 +0000";
layers = (
{
background = {
paths = (
{
closed = 1;
nodes = (
"512 -15 OFFCURVE",
"713 175 OFFCURVE",
"713 383 CURVE SMOOTH",
"713 577 OFFCURVE",
"527 698 OFFCURVE",
"339 703 CURVE SMOOTH",
"334 703 OFFCURVE",
"263 698 OFFCURVE",
"235 698 CURVE",
"184 693 OFFCURVE",
"50 682 OFFCURVE",
"50 609 CURVE SMOOTH",
"50 589 OFFCURVE",
"66 579 OFFCURVE",
"88 579 CURVE SMOOTH",
"102 579 OFFCURVE",
"118 582 OFFCURVE",
"134 590 CURVE",
"163 575 OFFCURVE",
"182 499 OFFCURVE",
"182 436 CURVE SMOOTH",
"182 264 OFFCURVE",
"177 63 OFFCURVE",
"177 21 CURVE",
"193 -17 OFFCURVE",
"273 -15 OFFCURVE",
"308 -15 CURVE SMOOTH"
);
},
{
closed = 1;
nodes = (
"286 69 OFFCURVE",
"270 72 OFFCURVE",
"256 86 CURVE",
"256 116 LINE SMOOTH",
"256 179 OFFCURVE",
"261 236 OFFCURVE",
"261 294 CURVE SMOOTH",
"261 398 OFFCURVE",
"256 490 OFFCURVE",
"234 594 CURVE",
"240 614 OFFCURVE",
"258 624 OFFCURVE",
"282 625 CURVE SMOOTH",
"293 626 OFFCURVE",
"304 626 OFFCURVE",
"314 626 CURVE SMOOTH",
"478 626 OFFCURVE",
"645 536 OFFCURVE",
"645 394 CURVE SMOOTH",
"645 228 OFFCURVE",
"460 69 OFFCURVE",
"302 69 CURVE SMOOTH"
);
}
);
};
layerId = "8F40E529-D5F5-4815-B22D-63C5267C70E2";
paths = (
{
closed = 1;
nodes = (
"512 -15 OFFCURVE",
"713 175 OFFCURVE",
"713 383 CURVE SMOOTH",
"713 577 OFFCURVE",
"527 698 OFFCURVE",
"339 703 CURVE SMOOTH",
"334 703 OFFCURVE",
"263 698 OFFCURVE",
"235 698 CURVE",
"184 693 OFFCURVE",
"50 682 OFFCURVE",
"50 609 CURVE SMOOTH",
"50 589 OFFCURVE",
"66 579 OFFCURVE",
"88 579 CURVE SMOOTH",
"102 579 OFFCURVE",
"118 582 OFFCURVE",
"134 590 CURVE",
"163 575 OFFCURVE",
"182 499 OFFCURVE",
"182 436 CURVE SMOOTH",
"182 264 OFFCURVE",
"177 63 OFFCURVE",
"177 21 CURVE",
"193 -17 OFFCURVE",
"273 -15 OFFCURVE",
"308 -15 CURVE SMOOTH"
);
},
{
closed = 1;
nodes = (
"286 69 OFFCURVE",
"270 72 OFFCURVE",
"256 86 CURVE",
"256 116 LINE SMOOTH",
"256 179 OFFCURVE",
"261 236 OFFCURVE",
"261 294 CURVE SMOOTH",
"261 398 OFFCURVE",
"256 490 OFFCURVE",
"234 594 CURVE",
"240 614 OFFCURVE",
"258 624 OFFCURVE",
"282 625 CURVE SMOOTH",
"293 626 OFFCURVE",
"304 626 OFFCURVE",
"314 626 CURVE SMOOTH",
"478 626 OFFCURVE",
"645 536 OFFCURVE",
"645 394 CURVE SMOOTH",
"645 228 OFFCURVE",
"460 69 OFFCURVE",
"302 69 CURVE SMOOTH"
);
}
);
width = 762;
},
{
background = {
paths = (
{
closed = 1;
nodes = (
"515 -15 OFFCURVE",
"713 173 OFFCURVE",
"713 381 CURVE SMOOTH",
"713 579 OFFCURVE",
"525 698 OFFCURVE",
"342 703 CURVE SMOOTH",
"337 703 OFFCURVE",
"269 698 OFFCURVE",
"244 698 CURVE",
"181 692 OFFCURVE",
"50 680 OFFCURVE",
"50 593 CURVE SMOOTH",
"50 567 OFFCURVE",
"81 541 OFFCURVE",
"105 541 CURVE SMOOTH",
"122 541 OFFCURVE",
"132 544 OFFCURVE",
"149 551 CURVE",
"158 543 OFFCURVE",
"159 533 OFFCURVE",
"159 529 CURVE SMOOTH",
"159 511 OFFCURVE",
"168 492 OFFCURVE",
"168 474 CURVE SMOOTH",
"168 464 OFFCURVE",
"173 435 OFFCURVE",
"173 431 CURVE SMOOTH",
"173 154 LINE",
"168 124 OFFCURVE",
"168 105 OFFCURVE",
"168 76 CURVE SMOOTH",
"168 36 LINE",
"191 -17 OFFCURVE",
"265 -15 OFFCURVE",
"312 -15 CURVE SMOOTH"
);
},
{
closed = 1;
nodes = (
"436 586 OFFCURVE",
"606 527 OFFCURVE",
"606 391 CURVE SMOOTH",
"606 249 OFFCURVE",
"445 107 OFFCURVE",
"307 107 CURVE SMOOTH",
"299 107 OFFCURVE",
"292 108 OFFCURVE",
"285 112 CURVE",
"285 130 LINE SMOOTH",
"285 189 OFFCURVE",
"290 243 OFFCURVE",
"290 297 CURVE SMOOTH",
"290 394 OFFCURVE",
"286 480 OFFCURVE",
"266 577 CURVE",
"276 592 OFFCURVE",
"307 586 OFFCURVE",
"322 586 CURVE SMOOTH"
);
}
);
};
layerId = "33ACAFD4-38EF-4E3F-A654-B3CAAACD5815";
paths = (
{
closed = 1;
nodes = (
"515 -15 OFFCURVE",
"713 173 OFFCURVE",
"713 381 CURVE SMOOTH",
"713 579 OFFCURVE",
"525 698 OFFCURVE",
"342 703 CURVE SMOOTH",
"337 703 OFFCURVE",
"269 698 OFFCURVE",
"244 698 CURVE",
"181 692 OFFCURVE",
"50 680 OFFCURVE",
"50 593 CURVE SMOOTH",
"50 567 OFFCURVE",
"81 541 OFFCURVE",
"105 541 CURVE SMOOTH",
"122 541 OFFCURVE",
"132 544 OFFCURVE",
"149 551 CURVE",
"158 543 OFFCURVE",
"159 533 OFFCURVE",
"159 529 CURVE SMOOTH",
"159 511 OFFCURVE",
"168 492 OFFCURVE",
"168 474 CURVE SMOOTH",
"168 464 OFFCURVE",
"173 435 OFFCURVE",
"173 431 CURVE SMOOTH",
"173 154 LINE",
"168 124 OFFCURVE",
"168 105 OFFCURVE",
"168 76 CURVE SMOOTH",
"168 36 LINE",
"191 -17 OFFCURVE",
"265 -15 OFFCURVE",
"312 -15 CURVE SMOOTH"
);
},
{
closed = 1;
nodes = (
"299 107 OFFCURVE",
"292 108 OFFCURVE",
"285 112 CURVE",
"285 130 LINE SMOOTH",
"285 189 OFFCURVE",
"290 243 OFFCURVE",
"290 297 CURVE SMOOTH",
"290 394 OFFCURVE",
"286 480 OFFCURVE",
"266 577 CURVE",
"272 585 OFFCURVE",
"284 587 OFFCURVE",
"296 587 CURVE SMOOTH",
"306 587 OFFCURVE",
"315 586 OFFCURVE",
"322 586 CURVE SMOOTH",
"436 586 OFFCURVE",
"606 527 OFFCURVE",
"606 391 CURVE SMOOTH",
"606 249 OFFCURVE",
"445 107 OFFCURVE",
"307 107 CURVE SMOOTH"
);
}
);
width = 762;
}
);
note = D;
unicode = 0044;
},
{
glyphname = E;
lastChange = "2021-10-16 03:32:22 +0000";
layers = (
{
background = {
paths = (
{
closed = 1;
nodes = (
"323 10 OFFCURVE",
"381 12 OFFCURVE",
"424 21 CURVE SMOOTH",
"484 33 OFFCURVE",
"515 54 OFFCURVE",
"515 84 CURVE SMOOTH",
"515 100 OFFCURVE",
"511 116 OFFCURVE",
"492 116 CURVE SMOOTH",
"490 116 OFFCURVE",
"486 116 OFFCURVE",
"483 115 CURVE SMOOTH",
"425 102 OFFCURVE",
"344 89 OFFCURVE",
"277 89 CURVE SMOOTH",
"226 89 LINE",
"164 102 OFFCURVE",
"158 164 OFFCURVE",
"158 210 CURVE SMOOTH",
"158 215 OFFCURVE",
"158 223 OFFCURVE",
"157 232 CURVE SMOOTH",
"157 242 OFFCURVE",
"157 254 OFFCURVE",
"160 279 CURVE SMOOTH",
"164 309 OFFCURVE",
"172 318 OFFCURVE",
"210 320 CURVE SMOOTH",
"379 331 LINE SMOOTH",
"404 333 OFFCURVE",
"417 344 OFFCURVE",
"417 368 CURVE SMOOTH",
"417 390 OFFCURVE",
"407 405 OFFCURVE",
"377 405 CURVE SMOOTH",
"337 405 LINE SMOOTH",
"299 405 OFFCURVE",
"221 401 OFFCURVE",
"196 399 CURVE",
"196 481 OFFCURVE",
"206 581 OFFCURVE",
"237 593 CURVE SMOOTH",
"265 604 OFFCURVE",
"325 604 OFFCURVE",
"333 604 CURVE SMOOTH",
"483 604 LINE SMOOTH",
"493 604 OFFCURVE",
"504 616 OFFCURVE",
"504 631 CURVE SMOOTH",
"504 684 OFFCURVE",
"396 678 OFFCURVE",
"359 678 CURVE SMOOTH",
"273 678 OFFCURVE",
"198 667 OFFCURVE",
"113 653 CURVE SMOOTH",
"80 647 OFFCURVE",
"66 637 OFFCURVE",
"66 610 CURVE SMOOTH",
"66 572 OFFCURVE",
"119 582 OFFCURVE",
"142 570 CURVE",
"139 556 OFFCURVE",
"119 438 OFFCURVE",
"114 406 CURVE",
"92 392 OFFCURVE",
"45 390 OFFCURVE",
"45 353 CURVE SMOOTH",
"45 337 OFFCURVE",
"56 327 OFFCURVE",
"84 316 CURVE",
"82 289 OFFCURVE",
"81 264 OFFCURVE",
"81 241 CURVE SMOOTH",
"81 89 OFFCURVE",
"123 10 OFFCURVE",
"272 10 CURVE SMOOTH"
);
}
);
};
layerId = "8F40E529-D5F5-4815-B22D-63C5267C70E2";
paths = (
{
closed = 1;
nodes = (
"323 10 OFFCURVE",
"381 12 OFFCURVE",
"424 21 CURVE SMOOTH",
"484 33 OFFCURVE",
"515 54 OFFCURVE",
"515 84 CURVE SMOOTH",
"515 100 OFFCURVE",
"511 116 OFFCURVE",
"492 116 CURVE SMOOTH",
"490 116 OFFCURVE",
"486 116 OFFCURVE",
"483 115 CURVE SMOOTH",
"425 102 OFFCURVE",
"344 89 OFFCURVE",
"277 89 CURVE SMOOTH",
"226 89 LINE",
"164 102 OFFCURVE",
"158 164 OFFCURVE",
"158 210 CURVE SMOOTH",
"158 215 OFFCURVE",
"158 223 OFFCURVE",
"157 232 CURVE SMOOTH",
"157 242 OFFCURVE",
"157 254 OFFCURVE",
"160 279 CURVE SMOOTH",
"164 309 OFFCURVE",
"172 318 OFFCURVE",
"210 320 CURVE SMOOTH",
"379 331 LINE SMOOTH",
"404 333 OFFCURVE",
"417 344 OFFCURVE",
"417 368 CURVE SMOOTH",
"417 390 OFFCURVE",
"407 405 OFFCURVE",
"377 405 CURVE SMOOTH",
"337 405 LINE SMOOTH",
"299 405 OFFCURVE",
"221 401 OFFCURVE",
"196 399 CURVE",
"196 481 OFFCURVE",
"206 581 OFFCURVE",
"237 593 CURVE SMOOTH",
"265 604 OFFCURVE",
"325 604 OFFCURVE",
"333 604 CURVE SMOOTH",
"483 604 LINE SMOOTH",
"493 604 OFFCURVE",
"504 616 OFFCURVE",
"504 631 CURVE SMOOTH",
"504 684 OFFCURVE",
"396 678 OFFCURVE",
"359 678 CURVE SMOOTH",
"273 678 OFFCURVE",
"198 667 OFFCURVE",
"113 653 CURVE SMOOTH",
"80 647 OFFCURVE",
"66 637 OFFCURVE",
"66 610 CURVE SMOOTH",
"66 572 OFFCURVE",
"119 582 OFFCURVE",
"142 570 CURVE",
"139 556 OFFCURVE",
"119 438 OFFCURVE",
"114 406 CURVE",
"92 392 OFFCURVE",
"45 390 OFFCURVE",
"45 353 CURVE SMOOTH",
"45 337 OFFCURVE",
"56 327 OFFCURVE",
"84 316 CURVE",
"82 289 OFFCURVE",
"81 264 OFFCURVE",
"81 241 CURVE SMOOTH",
"81 89 OFFCURVE",
"123 10 OFFCURVE",
"272 10 CURVE SMOOTH"
);
}
);
width = 574;
},
{
background = {
paths = (
{
closed = 1;
nodes = (
"468 32 OFFCURVE",
"515 54 OFFCURVE",
"515 100 CURVE SMOOTH",
"515 141 OFFCURVE",
"499 151 OFFCURVE",
"465 151 CURVE SMOOTH",
"402 151 OFFCURVE",
"341 127 OFFCURVE",
"278 127 CURVE SMOOTH",
"233 127 LINE",
"191 138 OFFCURVE",
"190 185 OFFCURVE",
"190 218 CURVE SMOOTH",
"190 243 OFFCURVE",
"181 298 OFFCURVE",
"218 300 CURVE SMOOTH",
"296 306 OFFCURVE",
"426 292 OFFCURVE",
"426 357 CURVE SMOOTH",
"426 391 OFFCURVE",
"407 411 OFFCURVE",
"372 422 CURVE",
"332 422 LINE SMOOTH",
"302 422 OFFCURVE",
"272 418 OFFCURVE",
"225 417 CURVE",
"228 482 OFFCURVE",
"245 566 OFFCURVE",
"307 566 CURVE SMOOTH",
"465 566 LINE SMOOTH",
"489 566 OFFCURVE",
"505 590 OFFCURVE",
"505 612 CURVE SMOOTH",
"505 683 OFFCURVE",
"396 678 OFFCURVE",
"352 678 CURVE SMOOTH",
"273 678 OFFCURVE",
"204 667 OFFCURVE",
"125 654 CURVE SMOOTH",
"90 648 OFFCURVE",
"65 634 OFFCURVE",
"65 593 CURVE SMOOTH",
"65 557 OFFCURVE",
"98 548 OFFCURVE",
"124 539 CURVE SMOOTH",
"129 537 OFFCURVE",
"133 536 OFFCURVE",
"133 534 CURVE SMOOTH",
"133 529 LINE",
"125 500 OFFCURVE",
"125 469 OFFCURVE",
"114 441 CURVE",
"112 433 OFFCURVE",
"108 421 OFFCURVE",
"104 417 CURVE",
"85 388 OFFCURVE",
"50 391 OFFCURVE",
"50 347 CURVE SMOOTH",
"50 318 OFFCURVE",
"60 307 OFFCURVE",
"80 291 CURVE",
"76 134 OFFCURVE",
"99 10 OFFCURVE",
"273 10 CURVE SMOOTH",
"321 10 OFFCURVE",
"369 11 OFFCURVE",
"416 21 CURVE SMOOTH"
);
}
);
};
layerId = "33ACAFD4-38EF-4E3F-A654-B3CAAACD5815";
paths = (
{
closed = 1;
nodes = (
"321 10 OFFCURVE",
"369 11 OFFCURVE",
"416 21 CURVE SMOOTH",
"468 32 OFFCURVE",
"515 54 OFFCURVE",
"515 100 CURVE SMOOTH",
"515 141 OFFCURVE",
"499 151 OFFCURVE",
"465 151 CURVE SMOOTH",
"402 151 OFFCURVE",
"341 127 OFFCURVE",
"278 127 CURVE SMOOTH",
"233 127 LINE",
"191 138 OFFCURVE",
"190 185 OFFCURVE",
"190 218 CURVE SMOOTH",
"190 226 OFFCURVE",
"189 238 OFFCURVE",
"189 249 CURVE SMOOTH",
"189 273 OFFCURVE",
"193 299 OFFCURVE",
"218 300 CURVE SMOOTH",
"296 306 OFFCURVE",
"426 292 OFFCURVE",
"426 357 CURVE SMOOTH",
"426 391 OFFCURVE",
"407 411 OFFCURVE",
"372 422 CURVE",
"332 422 LINE SMOOTH",
"302 422 OFFCURVE",
"272 418 OFFCURVE",
"225 417 CURVE",
"228 482 OFFCURVE",
"245 566 OFFCURVE",
"307 566 CURVE SMOOTH",
"465 566 LINE SMOOTH",
"489 566 OFFCURVE",
"505 590 OFFCURVE",
"505 612 CURVE SMOOTH",
"505 674 OFFCURVE",
"421 678 OFFCURVE",
"371 678 CURVE SMOOTH",
"284 678 OFFCURVE",
"210 668 OFFCURVE",
"125 654 CURVE SMOOTH",
"90 648 OFFCURVE",
"65 634 OFFCURVE",
"65 593 CURVE SMOOTH",
"65 557 OFFCURVE",
"98 548 OFFCURVE",
"124 539 CURVE SMOOTH",
"129 537 OFFCURVE",
"133 536 OFFCURVE",
"133 534 CURVE SMOOTH",
"133 529 LINE",
"125 500 OFFCURVE",
"125 469 OFFCURVE",
"114 441 CURVE",
"112 433 OFFCURVE",
"108 421 OFFCURVE",
"104 417 CURVE",
"85 388 OFFCURVE",
"50 391 OFFCURVE",
"50 347 CURVE SMOOTH",
"50 318 OFFCURVE",
"60 307 OFFCURVE",
"80 291 CURVE",
"76 134 OFFCURVE",
"99 10 OFFCURVE",
"273 10 CURVE SMOOTH"
);
}
);
width = 574;
}
);
note = E;
unicode = 0045;
},
{
glyphname = F;
lastChange = "2021-10-16 03:32:22 +0000";
layers = (
{
background = {
hints = (
{
horizontal = 1;
place = "{304, 79}";
type = Stem;
},
{
horizontal = 1;
place = "{620, 73}";
type = Stem;
},
{
place = "{50, 120}";
type = Stem;
}
);
paths = (
{
closed = 1;
nodes = (
"150 22 OFFCURVE",
"169 42 OFFCURVE",
"179 76 CURVE",
"170 165 OFFCURVE",
"160 231 OFFCURVE",
"160 279 CURVE",
"164 291 OFFCURVE",
"172 300 OFFCURVE",
"210 302 CURVE SMOOTH",
"388 313 LINE SMOOTH",
"413 315 OFFCURVE",
"426 326 OFFCURVE",
"426 350 CURVE SMOOTH",
"426 372 OFFCURVE",
"416 387 OFFCURVE",
"386 387 CURVE SMOOTH",
"346 387 LINE SMOOTH",
"308 387 OFFCURVE",
"200 383 OFFCURVE",
"175 381 CURVE",
"175 463 OFFCURVE",
"189 565 OFFCURVE",
"216 586 CURVE SMOOTH",
"242 606 OFFCURVE",
"336 613 OFFCURVE",
"344 613 CURVE SMOOTH",
"494 613 LINE SMOOTH",
"504 613 OFFCURVE",
"515 625 OFFCURVE",
"515 640 CURVE SMOOTH",
"515 683 OFFCURVE",
"443 687 OFFCURVE",
"376 687 CURVE SMOOTH",
"332 687 LINE SMOOTH",
"185 687 OFFCURVE",
"141 640 OFFCURVE",
"133 603 CURVE",
"118 561 OFFCURVE",
"98 420 OFFCURVE",
"93 388 CURVE",
"71 374 OFFCURVE",
"45 372 OFFCURVE",
"45 335 CURVE SMOOTH",
"45 319 OFFCURVE",
"56 309 OFFCURVE",
"84 298 CURVE",
"83 279 OFFCURVE",
"82 260 OFFCURVE",
"82 240 CURVE SMOOTH",
"82 151 OFFCURVE",
"94 63 OFFCURVE",
"108 52 CURVE",
"112 31 OFFCURVE",
"122 22 OFFCURVE",
"133 22 CURVE SMOOTH"
);
}
);
};
layerId = "8F40E529-D5F5-4815-B22D-63C5267C70E2";
paths = (
{
closed = 1;
nodes = (
"150 22 OFFCURVE",
"169 42 OFFCURVE",
"179 76 CURVE",
"170 165 OFFCURVE",
"160 231 OFFCURVE",
"160 279 CURVE",
"164 291 OFFCURVE",
"172 300 OFFCURVE",
"210 302 CURVE SMOOTH",
"388 313 LINE SMOOTH",
"413 315 OFFCURVE",
"426 326 OFFCURVE",
"426 350 CURVE SMOOTH",
"426 372 OFFCURVE",
"416 387 OFFCURVE",
"386 387 CURVE SMOOTH",
"346 387 LINE SMOOTH",
"308 387 OFFCURVE",
"200 383 OFFCURVE",
"175 381 CURVE",
"175 463 OFFCURVE",
"189 565 OFFCURVE",
"216 586 CURVE SMOOTH",
"242 606 OFFCURVE",
"336 613 OFFCURVE",
"344 613 CURVE SMOOTH",
"494 613 LINE SMOOTH",
"504 613 OFFCURVE",
"515 625 OFFCURVE",
"515 640 CURVE SMOOTH",
"515 683 OFFCURVE",
"443 687 OFFCURVE",
"376 687 CURVE SMOOTH",
"332 687 LINE SMOOTH",
"185 687 OFFCURVE",
"141 640 OFFCURVE",
"133 603 CURVE",
"118 561 OFFCURVE",
"98 420 OFFCURVE",
"93 388 CURVE",
"71 374 OFFCURVE",
"45 372 OFFCURVE",
"45 335 CURVE SMOOTH",
"45 319 OFFCURVE",
"56 309 OFFCURVE",
"84 298 CURVE",
"83 279 OFFCURVE",
"82 260 OFFCURVE",
"82 240 CURVE SMOOTH",
"82 151 OFFCURVE",
"94 63 OFFCURVE",
"108 52 CURVE",
"112 31 OFFCURVE",
"122 22 OFFCURVE",
"133 22 CURVE SMOOTH"
);
}
);
width = 550;
},
{
background = {
paths = (
{
closed = 1;
nodes = (
"68 379 LINE",
"55 376 OFFCURVE",
"48 368 OFFCURVE",
"43 357 CURVE SMOOTH",
"37 343 OFFCURVE",
"33 324 OFFCURVE",
"50 302 CURVE",
"78 277 OFFCURVE",
"86 257 OFFCURVE",
"88 233 CURVE SMOOTH",
"92 183 OFFCURVE",
"76 15 OFFCURVE",
"160 15 CURVE SMOOTH",
"214 15 OFFCURVE",
"209 84 OFFCURVE",
"209 120 CURVE SMOOTH",
"209 169 OFFCURVE",
"201 218 OFFCURVE",
"201 268 CURVE SMOOTH",
"201 276 LINE",
"213 281 LINE",
"381 291 LINE SMOOTH",
"405 292 OFFCURVE",
"441 321 OFFCURVE",
"441 347 CURVE SMOOTH",
"441 369 OFFCURVE",
"425 402 OFFCURVE",
"400 402 CURVE SMOOTH",
"209 402 LINE",
"201 412 LINE",
"201 431 LINE SMOOTH",
"201 489 OFFCURVE",
"204 569 OFFCURVE",
"278 572 CURVE SMOOTH",
"475 581 LINE SMOOTH",
"499 582 OFFCURVE",
"515 606 OFFCURVE",
"515 632 CURVE SMOOTH",
"515 703 OFFCURVE",
"421 693 OFFCURVE",
"377 693 CURVE SMOOTH",
"142 693 OFFCURVE",
"96 625 OFFCURVE",
"85 392 CURVE",
"81 388 OFFCURVE",
"78 386 OFFCURVE",
"76 385 CURVE SMOOTH"
);
}
);
};
layerId = "33ACAFD4-38EF-4E3F-A654-B3CAAACD5815";
paths = (
{
closed = 1;
nodes = (
"214 15 OFFCURVE",
"209 84 OFFCURVE",
"209 120 CURVE SMOOTH",
"209 169 OFFCURVE",
"201 218 OFFCURVE",
"201 268 CURVE SMOOTH",
"201 276 LINE",
"213 281 LINE",
"381 291 LINE SMOOTH",
"405 292 OFFCURVE",
"441 321 OFFCURVE",
"441 347 CURVE SMOOTH",
"441 369 OFFCURVE",
"425 402 OFFCURVE",
"400 402 CURVE SMOOTH",
"209 402 LINE",
"201 412 LINE",
"201 431 LINE SMOOTH",
"201 489 OFFCURVE",
"204 569 OFFCURVE",
"278 572 CURVE SMOOTH",
"475 581 LINE SMOOTH",
"499 582 OFFCURVE",
"515 606 OFFCURVE",
"515 632 CURVE SMOOTH",
"515 687 OFFCURVE",
"458 693 OFFCURVE",
"412 693 CURVE SMOOTH",
"377 693 LINE SMOOTH",
"142 693 OFFCURVE",
"96 625 OFFCURVE",
"85 392 CURVE",
"81 388 OFFCURVE",
"78 386 OFFCURVE",
"76 385 CURVE SMOOTH",
"68 379 LINE",
"55 376 OFFCURVE",
"48 368 OFFCURVE",
"43 357 CURVE SMOOTH",
"40 350 OFFCURVE",
"38 343 OFFCURVE",
"38 334 CURVE SMOOTH",
"38 325 OFFCURVE",
"41 314 OFFCURVE",
"50 302 CURVE",
"78 277 OFFCURVE",
"86 257 OFFCURVE",
"88 233 CURVE SMOOTH",
"92 183 OFFCURVE",
"76 15 OFFCURVE",
"160 15 CURVE SMOOTH"
);
}
);
width = 550;
}
);
note = F;
unicode = 0046;
},
{
glyphname = G;
lastChange = "2021-10-16 03:32:18 +0000";
layers = (
{
background = {
paths = (
{
closed = 1;
nodes = (
"457 -35 OFFCURVE",
"609 79 OFFCURVE",
"609 221 CURVE SMOOTH",
"609 333 OFFCURVE",
"497 332 OFFCURVE",
"406 332 CURVE SMOOTH",
"344 332 LINE",
"314 327 OFFCURVE",
"301 311 OFFCURVE",
"301 295 CURVE SMOOTH",
"301 267 OFFCURVE",
"315 253 OFFCURVE",
"337 253 CURVE SMOOTH",
"365 253 OFFCURVE",
"394 254 OFFCURVE",
"422 254 CURVE SMOOTH",
"436 254 OFFCURVE",
"450 254 OFFCURVE",
"463 253 CURVE SMOOTH",
"523 250 OFFCURVE",
"533 248 OFFCURVE",
"535 243 CURVE",
"535 135 OFFCURVE",
"429 44 OFFCURVE",
"321 44 CURVE SMOOTH",
"176 44 OFFCURVE",
"119 159 OFFCURVE",
"119 280 CURVE SMOOTH",
"119 410 OFFCURVE",
"218 605 OFFCURVE",
"386 605 CURVE SMOOTH",
"445 605 OFFCURVE",
"475 580 OFFCURVE",
"498 557 CURVE SMOOTH",
"513 541 LINE SMOOTH",
"517 537 OFFCURVE",
"522 533 OFFCURVE",
"526 530 CURVE SMOOTH",
"533 525 OFFCURVE",
"541 521 OFFCURVE",
"551 521 CURVE SMOOTH",
"569 521 OFFCURVE",
"583 536 OFFCURVE",
"583 547 CURVE SMOOTH",
"583 616 OFFCURVE",
"460 678 OFFCURVE",
"386 678 CURVE SMOOTH",
"185 678 OFFCURVE",
"50 467 OFFCURVE",
"50 280 CURVE SMOOTH",
"50 103 OFFCURVE",
"135 -35 OFFCURVE",
"321 -35 CURVE SMOOTH"
);
}
);
};
layerId = "8F40E529-D5F5-4815-B22D-63C5267C70E2";
paths = (
{
closed = 1;
nodes = (
"457 -35 OFFCURVE",
"609 79 OFFCURVE",
"609 221 CURVE SMOOTH",
"609 333 OFFCURVE",
"497 332 OFFCURVE",
"406 332 CURVE SMOOTH",
"344 332 LINE",
"314 327 OFFCURVE",
"301 311 OFFCURVE",
"301 295 CURVE SMOOTH",
"301 267 OFFCURVE",
"315 253 OFFCURVE",
"337 253 CURVE SMOOTH",
"365 253 OFFCURVE",
"394 254 OFFCURVE",
"422 254 CURVE SMOOTH",
"436 254 OFFCURVE",
"450 254 OFFCURVE",
"463 253 CURVE SMOOTH",
"523 250 OFFCURVE",
"533 248 OFFCURVE",
"535 243 CURVE",
"535 135 OFFCURVE",
"429 44 OFFCURVE",
"321 44 CURVE SMOOTH",
"176 44 OFFCURVE",
"119 159 OFFCURVE",
"119 280 CURVE SMOOTH",
"119 410 OFFCURVE",
"218 605 OFFCURVE",
"386 605 CURVE SMOOTH",
"445 605 OFFCURVE",
"475 580 OFFCURVE",
"498 557 CURVE SMOOTH",
"513 541 LINE SMOOTH",
"517 537 OFFCURVE",
"522 533 OFFCURVE",
"526 530 CURVE SMOOTH",
"533 525 OFFCURVE",
"541 521 OFFCURVE",
"551 521 CURVE SMOOTH",
"569 521 OFFCURVE",
"583 536 OFFCURVE",
"583 547 CURVE SMOOTH",
"583 616 OFFCURVE",
"460 678 OFFCURVE",
"386 678 CURVE SMOOTH",
"185 678 OFFCURVE",
"50 467 OFFCURVE",
"50 280 CURVE SMOOTH",
"50 103 OFFCURVE",
"135 -35 OFFCURVE",
"321 -35 CURVE SMOOTH"
);
}
);
width = 663;
},
{
background = {
paths = (
{
closed = 1;
nodes = (
"456 -35 OFFCURVE",
"609 79 OFFCURVE",
"609 228 CURVE SMOOTH",
"609 353 OFFCURVE",
"487 353 OFFCURVE",
"401 353 CURVE SMOOTH",
"342 353 LINE",
"306 347 OFFCURVE",
"282 327 OFFCURVE",
"282 297 CURVE SMOOTH",
"282 261 OFFCURVE",
"302 236 OFFCURVE",
"337 236 CURVE SMOOTH",
"488 236 LINE",
"491 233 OFFCURVE",
"494 231 OFFCURVE",
"497 230 CURVE",
"496 211 OFFCURVE",
"493 202 OFFCURVE",
"489 194 CURVE SMOOTH",
"450 130 OFFCURVE",
"400 82 OFFCURVE",
"322 82 CURVE SMOOTH",
"205 82 OFFCURVE",
"156 174 OFFCURVE",
"156 282 CURVE SMOOTH",
"156 400 OFFCURVE",
"245 566 OFFCURVE",
"382 566 CURVE SMOOTH",
"475 566 OFFCURVE",
"475 488 OFFCURVE",
"534 488 CURVE SMOOTH",
"560 488 OFFCURVE",
"585 508 OFFCURVE",
"585 533 CURVE SMOOTH",
"585 618 OFFCURVE",
"451 678 OFFCURVE",
"382 678 CURVE SMOOTH",
"179 678 OFFCURVE",
"50 465 OFFCURVE",
"50 282 CURVE SMOOTH",
"50 109 OFFCURVE",
"134 -35 OFFCURVE",
"322 -35 CURVE SMOOTH"
);
}
);
};
layerId = "33ACAFD4-38EF-4E3F-A654-B3CAAACD5815";
paths = (
{
closed = 1;
nodes = (
"456 -35 OFFCURVE",
"609 79 OFFCURVE",
"609 228 CURVE SMOOTH",
"609 353 OFFCURVE",
"487 353 OFFCURVE",
"401 353 CURVE SMOOTH",
"342 353 LINE",
"306 347 OFFCURVE",
"282 327 OFFCURVE",
"282 297 CURVE SMOOTH",
"282 261 OFFCURVE",
"302 236 OFFCURVE",
"337 236 CURVE SMOOTH",
"488 236 LINE",
"491 233 OFFCURVE",
"494 231 OFFCURVE",
"497 230 CURVE",
"496 211 OFFCURVE",
"493 202 OFFCURVE",
"489 194 CURVE SMOOTH",
"450 130 OFFCURVE",
"400 82 OFFCURVE",
"322 82 CURVE SMOOTH",
"205 82 OFFCURVE",
"156 174 OFFCURVE",
"156 282 CURVE SMOOTH",
"156 400 OFFCURVE",
"245 566 OFFCURVE",
"382 566 CURVE SMOOTH",
"475 566 OFFCURVE",
"475 488 OFFCURVE",
"534 488 CURVE SMOOTH",
"560 488 OFFCURVE",
"585 508 OFFCURVE",
"585 533 CURVE SMOOTH",
"585 618 OFFCURVE",
"451 678 OFFCURVE",
"382 678 CURVE SMOOTH",
"179 678 OFFCURVE",
"50 465 OFFCURVE",
"50 282 CURVE SMOOTH",
"50 109 OFFCURVE",
"134 -35 OFFCURVE",
"322 -35 CURVE SMOOTH"
);
}
);
width = 663;
}
);
note = G;
unicode = 0047;
},
{
glyphname = H;
lastChange = "2021-10-16 03:32:22 +0000";
layers = (
{
background = {
hints = (
{
horizontal = 1;
place = "{310, 73}";
type = Stem;
},
{
horizontal = 1;
place = "{682, -20}";
target = down;
type = TopGhost;
},
{
place = "{145, 79}";
type = Stem;
},
{
place = "{556, 84}";
type = Stem;
},
{
place = "{572, 74}";
type = Stem;
},
{
place = "{118, 89}";
type = Stem;
}
);
paths = (
{
closed = 1;
nodes = (
"203 -9 OFFCURVE",
"202 53 OFFCURVE",
"207 130 CURVE SMOOTH",
"211 175 OFFCURVE",
"211 220 OFFCURVE",
"213 260 CURVE",
"221 304 OFFCURVE",
"231 310 OFFCURVE",
"293 310 CURVE SMOOTH",
"318 310 LINE SMOOTH",
"351 310 OFFCURVE",
"504 305 OFFCURVE",
"544 305 CURVE SMOOTH",
"559 305 OFFCURVE",
"561 295 OFFCURVE",
"561 268 CURVE SMOOTH",
"561 226 OFFCURVE",
"556 184 OFFCURVE",
"556 141 CURVE SMOOTH",
"556 118 OFFCURVE",
"556 88 OFFCURVE",
"564 67 CURVE SMOOTH",
"570 49 OFFCURVE",
"580 38 OFFCURVE",
"604 38 CURVE SMOOTH",
"640 38 OFFCURVE",
"640 98 OFFCURVE",
"640 127 CURVE SMOOTH",
"640 297 LINE",
"656 304 OFFCURVE",
"699 299 OFFCURVE",
"699 346 CURVE SMOOTH",
"699 364 OFFCURVE",
"685 385 OFFCURVE",
"646 389 CURVE",
"646 436 LINE SMOOTH",
"646 509 OFFCURVE",
"661 557 OFFCURVE",
"673 639 CURVE SMOOTH",
"679 681 OFFCURVE",
"656 682 OFFCURVE",
"640 682 CURVE SMOOTH",
"613 682 OFFCURVE",
"599 659 OFFCURVE",
"593 617 CURVE SMOOTH",
"591 598 OFFCURVE",
"584 545 OFFCURVE",
"578 498 CURVE SMOOTH",
"575 465 OFFCURVE",
"567 396 OFFCURVE",
"567 384 CURVE",
"550 384 OFFCURVE",
"532 383 OFFCURVE",
"382 383 CURVE SMOOTH",
"329 383 OFFCURVE",
"246 383 OFFCURVE",
"227 389 CURVE SMOOTH",
"222 391 OFFCURVE",
"220 418 OFFCURVE",
"220 457 CURVE SMOOTH",
"220 517 OFFCURVE",
"224 604 OFFCURVE",
"224 661 CURVE SMOOTH",
"224 679 OFFCURVE",
"203 698 OFFCURVE",
"182 698 CURVE SMOOTH",
"139 698 OFFCURVE",
"145 655 OFFCURVE",
"145 625 CURVE SMOOTH",
"145 436 LINE SMOOTH",
"145 419 OFFCURVE",
"140 387 OFFCURVE",
"112 378 CURVE",
"70 373 OFFCURVE",
"50 360 OFFCURVE",
"50 331 CURVE SMOOTH",
"50 302 OFFCURVE",
"82 300 OFFCURVE",
"108 300 CURVE SMOOTH",
"124 300 OFFCURVE",
"133 280 OFFCURVE",
"133 268 CURVE SMOOTH",
"134 198 OFFCURVE",
"118 141 OFFCURVE",
"118 84 CURVE SMOOTH",
"118 31 LINE SMOOTH",
"118 25 OFFCURVE",
"119 -9 OFFCURVE",
"150 -9 CURVE SMOOTH"
);
}
);
};
layerId = "8F40E529-D5F5-4815-B22D-63C5267C70E2";
paths = (
{
closed = 1;
nodes = (
"203 -9 OFFCURVE",
"202 53 OFFCURVE",
"207 130 CURVE SMOOTH",
"211 175 OFFCURVE",
"211 220 OFFCURVE",
"213 260 CURVE",
"221 304 OFFCURVE",
"231 310 OFFCURVE",
"293 310 CURVE SMOOTH",
"318 310 LINE SMOOTH",
"351 310 OFFCURVE",
"504 305 OFFCURVE",
"544 305 CURVE SMOOTH",
"559 305 OFFCURVE",
"561 295 OFFCURVE",
"561 268 CURVE SMOOTH",
"561 226 OFFCURVE",
"556 184 OFFCURVE",
"556 141 CURVE SMOOTH",
"556 118 OFFCURVE",
"556 88 OFFCURVE",
"564 67 CURVE SMOOTH",
"570 49 OFFCURVE",
"580 38 OFFCURVE",
"604 38 CURVE SMOOTH",
"640 38 OFFCURVE",
"640 98 OFFCURVE",
"640 127 CURVE SMOOTH",
"640 297 LINE",
"656 304 OFFCURVE",
"699 299 OFFCURVE",
"699 346 CURVE SMOOTH",
"699 364 OFFCURVE",
"685 385 OFFCURVE",
"646 389 CURVE",
"646 436 LINE SMOOTH",
"646 509 OFFCURVE",
"661 557 OFFCURVE",
"673 639 CURVE SMOOTH",
"679 681 OFFCURVE",
"656 682 OFFCURVE",
"640 682 CURVE SMOOTH",
"613 682 OFFCURVE",
"599 659 OFFCURVE",
"593 617 CURVE SMOOTH",
"591 598 OFFCURVE",
"584 545 OFFCURVE",
"578 498 CURVE SMOOTH",
"575 465 OFFCURVE",
"567 396 OFFCURVE",
"567 384 CURVE",
"550 384 OFFCURVE",
"532 383 OFFCURVE",
"382 383 CURVE SMOOTH",
"329 383 OFFCURVE",
"246 383 OFFCURVE",
"227 389 CURVE SMOOTH",
"222 391 OFFCURVE",
"220 418 OFFCURVE",
"220 457 CURVE SMOOTH",
"220 517 OFFCURVE",
"224 604 OFFCURVE",
"224 661 CURVE SMOOTH",
"224 679 OFFCURVE",
"203 698 OFFCURVE",
"182 698 CURVE SMOOTH",
"139 698 OFFCURVE",
"145 655 OFFCURVE",
"145 625 CURVE SMOOTH",
"145 436 LINE SMOOTH",
"145 419 OFFCURVE",
"140 387 OFFCURVE",
"112 378 CURVE",
"70 373 OFFCURVE",
"50 360 OFFCURVE",
"50 331 CURVE SMOOTH",
"50 302 OFFCURVE",
"82 300 OFFCURVE",
"108 300 CURVE SMOOTH",
"124 300 OFFCURVE",
"133 280 OFFCURVE",
"133 268 CURVE SMOOTH",
"134 198 OFFCURVE",
"118 141 OFFCURVE",
"118 84 CURVE SMOOTH",
"118 31 LINE SMOOTH",
"118 25 OFFCURVE",
"119 -9 OFFCURVE",
"150 -9 CURVE SMOOTH"
);
}
);
width = 752;
},
{
background = {
paths = (
{
closed = 1;
nodes = (
"129 264 LINE",
"128 207 OFFCURVE",
"113 153 OFFCURVE",
"113 100 CURVE SMOOTH",
"113 50 LINE SMOOTH",
"113 29 OFFCURVE",
"116 -10 OFFCURVE",
"145 -10 CURVE SMOOTH",
"190 -10 LINE SMOOTH",
"208 -10 OFFCURVE",
"213 6 OFFCURVE",
"215 21 CURVE",
"246 95 OFFCURVE",
"240 184 OFFCURVE",
"245 262 CURVE",
"250 285 OFFCURVE",
"269 291 OFFCURVE",
"298 291 CURVE SMOOTH",
"322 291 LINE SMOOTH",
"350 291 OFFCURVE",
"475 286 OFFCURVE",
"523 286 CURVE",
"527 280 OFFCURVE",
"527 276 OFFCURVE",
"527 272 CURVE SMOOTH",
"527 233 OFFCURVE",
"523 194 OFFCURVE",
"523 154 CURVE SMOOTH",
"523 107 OFFCURVE",
"522 35 OFFCURVE",
"589 35 CURVE SMOOTH",
"633 35 OFFCURVE",
"644 104 OFFCURVE",
"644 140 CURVE SMOOTH",
"644 282 LINE",
"658 303 OFFCURVE",
"699 287 OFFCURVE",
"699 346 CURVE SMOOTH",
"699 375 OFFCURVE",
"681 389 OFFCURVE",
"649 401 CURVE",
"649 431 LINE SMOOTH",
"649 499 OFFCURVE",
"669 563 OFFCURVE",
"669 632 CURVE SMOOTH",
"669 658 LINE",
"659 680 OFFCURVE",
"641 683 OFFCURVE",
"623 683 CURVE SMOOTH",
"578 683 OFFCURVE",
"563 642 OFFCURVE",
"558 603 CURVE SMOOTH",
"554 574 OFFCURVE",
"539 459 OFFCURVE",
"538 421 CURVE",
"532 406 OFFCURVE",
"518 402 OFFCURVE",
"504 402 CURVE SMOOTH",
"255 402 LINE",
"255 642 LINE SMOOTH",
"255 672 OFFCURVE",
"225 698 OFFCURVE",
"195 698 CURVE SMOOTH",
"137 698 OFFCURVE",
"139 647 OFFCURVE",
"139 608 CURVE SMOOTH",
"139 431 LINE SMOOTH",
"139 415 OFFCURVE",
"134 402 OFFCURVE",
"124 397 CURVE",
"84 392 OFFCURVE",
"50 376 OFFCURVE",
"50 332 CURVE SMOOTH",
"50 291 OFFCURVE",
"90 281 OFFCURVE",
"125 281 CURVE",
"125 281 OFFCURVE",
"129 277 OFFCURVE",
"128 264 CURVE"
);
}
);
};
layerId = "33ACAFD4-38EF-4E3F-A654-B3CAAACD5815";
paths = (
{
closed = 1;
nodes = (
"190 -10 LINE SMOOTH",
"208 -10 OFFCURVE",
"213 6 OFFCURVE",
"215 21 CURVE",
"246 95 OFFCURVE",
"240 184 OFFCURVE",
"245 262 CURVE",
"250 285 OFFCURVE",
"269 291 OFFCURVE",
"298 291 CURVE SMOOTH",
"322 291 LINE SMOOTH",
"350 291 OFFCURVE",
"475 286 OFFCURVE",
"523 286 CURVE",
"527 280 OFFCURVE",
"527 276 OFFCURVE",
"527 272 CURVE SMOOTH",
"527 232 OFFCURVE",
"523 191 OFFCURVE",
"523 150 CURVE SMOOTH",
"523 103 OFFCURVE",
"524 35 OFFCURVE",
"589 35 CURVE SMOOTH",
"633 35 OFFCURVE",
"644 104 OFFCURVE",
"644 140 CURVE SMOOTH",
"644 282 LINE",
"658 303 OFFCURVE",
"699 287 OFFCURVE",
"699 346 CURVE SMOOTH",
"699 375 OFFCURVE",
"681 389 OFFCURVE",
"649 401 CURVE",
"649 431 LINE SMOOTH",
"649 499 OFFCURVE",
"669 563 OFFCURVE",
"669 632 CURVE SMOOTH",
"669 658 LINE",
"659 680 OFFCURVE",
"641 683 OFFCURVE",
"623 683 CURVE SMOOTH",
"578 683 OFFCURVE",
"563 642 OFFCURVE",
"558 603 CURVE SMOOTH",
"554 574 OFFCURVE",
"539 459 OFFCURVE",
"538 421 CURVE",
"532 406 OFFCURVE",
"518 402 OFFCURVE",
"504 402 CURVE SMOOTH",
"255 402 LINE",
"255 642 LINE SMOOTH",
"255 672 OFFCURVE",
"225 698 OFFCURVE",
"195 698 CURVE SMOOTH",
"137 698 OFFCURVE",
"139 647 OFFCURVE",
"139 608 CURVE SMOOTH",
"139 431 LINE SMOOTH",
"139 415 OFFCURVE",
"134 402 OFFCURVE",
"124 397 CURVE",
"84 392 OFFCURVE",
"50 376 OFFCURVE",
"50 332 CURVE SMOOTH",
"50 291 OFFCURVE",
"90 281 OFFCURVE",
"125 281 CURVE",
"125 281 OFFCURVE",
"128 278 OFFCURVE",
"128 268 CURVE SMOOTH",
"128 264 LINE",
"129 264 LINE",
"128 207 OFFCURVE",
"113 153 OFFCURVE",
"113 100 CURVE SMOOTH",
"113 50 LINE SMOOTH",
"113 29 OFFCURVE",
"116 -10 OFFCURVE",
"145 -10 CURVE SMOOTH"
);
}
);
width = 752;
}
);
note = H;
unicode = 0048;
},
{
glyphname = I;
lastChange = "2021-10-16 03:32:20 +0000";
layers = (
{
background = {
paths = (
{
closed = 1;
nodes = (
"101 5 LINE SMOOTH",
"106 5 OFFCURVE",
"125 9 OFFCURVE",
"143 12 CURVE SMOOTH",
"153 14 OFFCURVE",
"164 17 OFFCURVE",
"172 18 CURVE SMOOTH",
"181 20 OFFCURVE",
"188 20 OFFCURVE",
"192 21 CURVE",
"230 24 LINE SMOOTH",
"243 25 OFFCURVE",
"257 26 OFFCURVE",
"269 29 CURVE SMOOTH",
"294 35 OFFCURVE",
"303 44 OFFCURVE",
"303 57 CURVE SMOOTH",
"303 74 OFFCURVE",
"294 80 OFFCURVE",
"274 84 CURVE SMOOTH",
"262 87 OFFCURVE",
"250 88 OFFCURVE",
"241 90 CURVE SMOOTH",
"221 94 OFFCURVE",
"209 104 OFFCURVE",
"205 117 CURVE",
"199 167 OFFCURVE",
"199 183 OFFCURVE",
"199 221 CURVE SMOOTH",
"199 292 OFFCURVE",
"203 362 OFFCURVE",
"211 431 CURVE SMOOTH",
"217 481 OFFCURVE",
"226 531 OFFCURVE",
"236 582 CURVE",
"249 600 OFFCURVE",
"264 607 OFFCURVE",
"277 611 CURVE SMOOTH",
"288 614 OFFCURVE",
"300 616 OFFCURVE",
"311 619 CURVE SMOOTH",
"324 622 OFFCURVE",
"332 625 OFFCURVE",
"332 647 CURVE SMOOTH",
"332 667 OFFCURVE",
"325 673 OFFCURVE",
"304 673 CURVE SMOOTH",
"298 673 LINE SMOOTH",
"293 673 OFFCURVE",
"265 669 OFFCURVE",
"238 665 CURVE SMOOTH",
"208 661 OFFCURVE",
"177 657 OFFCURVE",
"171 657 CURVE SMOOTH",
"160 657 LINE SMOOTH",
"142 657 OFFCURVE",
"124 662 OFFCURVE",
"101 662 CURVE SMOOTH",
"86 662 OFFCURVE",
"79 657 OFFCURVE",
"79 642 CURVE SMOOTH",
"79 629 OFFCURVE",
"84 624 OFFCURVE",
"93 619 CURVE SMOOTH",
"112 607 LINE SMOOTH",
"120 602 OFFCURVE",
"129 595 OFFCURVE",
"142 581 CURVE",
"142 548 LINE",
"138 512 OFFCURVE",
"135 477 OFFCURVE",
"131 443 CURVE SMOOTH",
"125 398 OFFCURVE",
"123 294 OFFCURVE",
"123 213 CURVE SMOOTH",
"123 180 OFFCURVE",
"123 151 OFFCURVE",
"124 132 CURVE SMOOTH",
"125 111 OFFCURVE",
"118 96 OFFCURVE",
"106 85 CURVE SMOOTH",
"97 76 OFFCURVE",
"86 71 OFFCURVE",
"74 66 CURVE SMOOTH",
"62 61 OFFCURVE",
"50 55 OFFCURVE",
"50 31 CURVE SMOOTH",
"50 8 OFFCURVE",
"55 5 OFFCURVE",
"79 5 CURVE SMOOTH"
);
}
);
};
layerId = "8F40E529-D5F5-4815-B22D-63C5267C70E2";
paths = (
{
closed = 1;
nodes = (
"101 5 LINE SMOOTH",
"106 5 OFFCURVE",
"125 9 OFFCURVE",
"143 12 CURVE SMOOTH",
"153 14 OFFCURVE",
"164 17 OFFCURVE",
"172 18 CURVE SMOOTH",
"181 20 OFFCURVE",
"188 20 OFFCURVE",
"192 21 CURVE",
"230 24 LINE SMOOTH",
"243 25 OFFCURVE",
"257 26 OFFCURVE",
"269 29 CURVE SMOOTH",
"294 35 OFFCURVE",
"303 44 OFFCURVE",
"303 57 CURVE SMOOTH",
"303 74 OFFCURVE",
"294 80 OFFCURVE",
"274 84 CURVE SMOOTH",
"262 87 OFFCURVE",
"250 88 OFFCURVE",
"241 90 CURVE SMOOTH",
"221 94 OFFCURVE",
"209 104 OFFCURVE",
"205 117 CURVE",
"199 167 OFFCURVE",
"199 183 OFFCURVE",
"199 221 CURVE SMOOTH",
"199 292 OFFCURVE",
"203 362 OFFCURVE",
"211 431 CURVE SMOOTH",
"217 481 OFFCURVE",
"226 531 OFFCURVE",
"236 582 CURVE",
"249 600 OFFCURVE",
"264 607 OFFCURVE",
"277 611 CURVE SMOOTH",
"288 614 OFFCURVE",
"300 616 OFFCURVE",
"311 619 CURVE SMOOTH",
"324 622 OFFCURVE",
"332 625 OFFCURVE",
"332 647 CURVE SMOOTH",
"332 667 OFFCURVE",
"325 673 OFFCURVE",
"304 673 CURVE SMOOTH",
"298 673 LINE SMOOTH",
"293 673 OFFCURVE",
"265 669 OFFCURVE",
"238 665 CURVE SMOOTH",
"208 661 OFFCURVE",
"177 657 OFFCURVE",
"171 657 CURVE SMOOTH",
"160 657 LINE SMOOTH",
"142 657 OFFCURVE",
"124 662 OFFCURVE",
"101 662 CURVE SMOOTH",
"86 662 OFFCURVE",
"79 657 OFFCURVE",
"79 642 CURVE SMOOTH",
"79 629 OFFCURVE",
"84 624 OFFCURVE",
"93 619 CURVE SMOOTH",
"112 607 LINE SMOOTH",
"120 602 OFFCURVE",
"129 595 OFFCURVE",
"142 581 CURVE",
"142 548 LINE",
"138 512 OFFCURVE",
"135 477 OFFCURVE",
"131 443 CURVE SMOOTH",
"125 398 OFFCURVE",
"123 294 OFFCURVE",
"123 213 CURVE SMOOTH",
"123 180 OFFCURVE",
"123 151 OFFCURVE",
"124 132 CURVE SMOOTH",
"125 111 OFFCURVE",
"118 96 OFFCURVE",
"106 85 CURVE SMOOTH",
"97 76 OFFCURVE",
"86 71 OFFCURVE",
"74 66 CURVE SMOOTH",
"62 61 OFFCURVE",
"50 55 OFFCURVE",
"50 31 CURVE SMOOTH",
"50 8 OFFCURVE",
"55 5 OFFCURVE",
"79 5 CURVE SMOOTH"
);
}
);
width = 386;
},
{
background = {
paths = (
{
closed = 1;
nodes = (
"316 585 OFFCURVE",
"332 593 OFFCURVE",
"332 628 CURVE SMOOTH",
"332 659 OFFCURVE",
"315 673 OFFCURVE",
"288 673 CURVE SMOOTH",
"283 673 LINE SMOOTH",
"247 673 OFFCURVE",
"210 658 OFFCURVE",
"174 658 CURVE SMOOTH",
"164 658 LINE SMOOTH",
"149 658 OFFCURVE",
"134 663 OFFCURVE",
"114 663 CURVE SMOOTH",
"92 663 OFFCURVE",
"75 650 OFFCURVE",
"75 623 CURVE SMOOTH",
"75 584 OFFCURVE",
"109 579 OFFCURVE",
"129 557 CURVE",
"129 534 LINE SMOOTH",
"129 498 OFFCURVE",
"129 485 OFFCURVE",
"119 451 CURVE",
"119 408 OFFCURVE",
"109 267 OFFCURVE",
"109 233 CURVE SMOOTH",
"109 213 LINE SMOOTH",
"109 194 OFFCURVE",
"114 169 OFFCURVE",
"114 145 CURVE SMOOTH",
"114 89 OFFCURVE",
"50 120 OFFCURVE",
"50 51 CURVE SMOOTH",
"50 14 OFFCURVE",
"66 5 OFFCURVE",
"95 5 CURVE SMOOTH",
"114 5 LINE SMOOTH",
"134 5 OFFCURVE",
"158 14 OFFCURVE",
"178 18 CURVE SMOOTH",
"215 25 OFFCURVE",
"307 16 OFFCURVE",
"307 75 CURVE SMOOTH",
"307 136 OFFCURVE",
"231 116 OFFCURVE",
"223 136 CURVE",
"218 180 OFFCURVE",
"218 194 OFFCURVE",
"218 229 CURVE SMOOTH",
"218 340 OFFCURVE",
"228 447 OFFCURVE",
"248 556 CURVE",
"262 574 OFFCURVE",
"279 575 OFFCURVE",
"299 580 CURVE SMOOTH"
);
}
);
};
layerId = "33ACAFD4-38EF-4E3F-A654-B3CAAACD5815";
paths = (
{
closed = 1;
nodes = (
"114 5 LINE SMOOTH",
"134 5 OFFCURVE",
"158 14 OFFCURVE",
"178 18 CURVE SMOOTH",
"215 25 OFFCURVE",
"307 16 OFFCURVE",
"307 75 CURVE SMOOTH",
"307 136 OFFCURVE",
"231 116 OFFCURVE",
"223 136 CURVE",
"218 180 OFFCURVE",
"218 194 OFFCURVE",
"218 229 CURVE SMOOTH",
"218 340 OFFCURVE",
"228 447 OFFCURVE",
"248 556 CURVE",
"262 574 OFFCURVE",
"279 575 OFFCURVE",
"299 580 CURVE SMOOTH",
"316 585 OFFCURVE",
"332 593 OFFCURVE",
"332 628 CURVE SMOOTH",
"332 659 OFFCURVE",
"315 673 OFFCURVE",
"288 673 CURVE SMOOTH",
"283 673 LINE SMOOTH",
"247 673 OFFCURVE",
"210 658 OFFCURVE",
"174 658 CURVE SMOOTH",
"164 658 LINE SMOOTH",
"149 658 OFFCURVE",
"134 663 OFFCURVE",
"114 663 CURVE SMOOTH",
"92 663 OFFCURVE",
"75 650 OFFCURVE",
"75 623 CURVE SMOOTH",
"75 584 OFFCURVE",
"109 579 OFFCURVE",
"129 557 CURVE",
"129 534 LINE SMOOTH",
"129 498 OFFCURVE",
"129 485 OFFCURVE",
"119 451 CURVE",
"119 408 OFFCURVE",
"109 267 OFFCURVE",
"109 233 CURVE SMOOTH",
"109 213 LINE SMOOTH",
"109 194 OFFCURVE",
"114 169 OFFCURVE",
"114 145 CURVE SMOOTH",
"114 89 OFFCURVE",
"50 120 OFFCURVE",
"50 51 CURVE SMOOTH",
"50 14 OFFCURVE",
"66 5 OFFCURVE",
"95 5 CURVE SMOOTH"
);
}
);
width = 386;
}
);
note = I;
unicode = 0049;
},
{
glyphname = J;
lastChange = "2021-10-16 03:32:20 +0000";
layers = (
{
background = {
paths = (
{
closed = 1;
nodes = (
"407 15 OFFCURVE",
"433 241 OFFCURVE",
"441 379 CURVE SMOOTH",
"443 410 OFFCURVE",
"446 565 OFFCURVE",
"446 604 CURVE SMOOTH",
"446 617 OFFCURVE",
"451 624 OFFCURVE",
"465 624 CURVE SMOOTH",
"481 622 OFFCURVE",
"498 620 OFFCURVE",
"514 620 CURVE SMOOTH",
"548 620 OFFCURVE",
"575 629 OFFCURVE",
"575 663 CURVE SMOOTH",
"575 673 OFFCURVE",
"571 679 OFFCURVE",
"556 683 CURVE",
"508 683 OFFCURVE",
"317 688 OFFCURVE",
"275 688 CURVE SMOOTH",
"270 688 LINE SMOOTH",
"263 688 OFFCURVE",
"254 682 OFFCURVE",
"254 657 CURVE SMOOTH",
"254 638 OFFCURVE",
"266 625 OFFCURVE",
"275 625 CURVE SMOOTH",
"345 625 LINE SMOOTH",
"365 625 OFFCURVE",
"372 612 OFFCURVE",
"372 593 CURVE SMOOTH",
"372 471 OFFCURVE",
"362 333 OFFCURVE",
"328 210 CURVE SMOOTH",
"316 165 OFFCURVE",
"285 88 OFFCURVE",
"227 88 CURVE SMOOTH",
"150 88 OFFCURVE",
"117 191 OFFCURVE",
"106 237 CURVE SMOOTH",
"100 261 OFFCURVE",
"86 267 OFFCURVE",
"72 267 CURVE SMOOTH",
"51 267 OFFCURVE",
"40 248 OFFCURVE",
"40 215 CURVE SMOOTH",
"40 119 OFFCURVE",
"129 15 OFFCURVE",
"227 15 CURVE SMOOTH"
);
}
);
};
layerId = "8F40E529-D5F5-4815-B22D-63C5267C70E2";
paths = (
{
closed = 1;
nodes = (
"407 15 OFFCURVE",
"433 241 OFFCURVE",
"441 379 CURVE SMOOTH",
"443 410 OFFCURVE",
"446 565 OFFCURVE",
"446 604 CURVE SMOOTH",
"446 617 OFFCURVE",
"451 624 OFFCURVE",
"465 624 CURVE SMOOTH",
"481 622 OFFCURVE",
"498 620 OFFCURVE",
"514 620 CURVE SMOOTH",
"548 620 OFFCURVE",
"575 629 OFFCURVE",
"575 663 CURVE SMOOTH",
"575 673 OFFCURVE",
"571 679 OFFCURVE",
"556 683 CURVE",
"508 683 OFFCURVE",
"317 688 OFFCURVE",
"275 688 CURVE SMOOTH",
"270 688 LINE SMOOTH",
"263 688 OFFCURVE",
"254 682 OFFCURVE",
"254 657 CURVE SMOOTH",
"254 638 OFFCURVE",
"266 625 OFFCURVE",
"275 625 CURVE SMOOTH",
"345 625 LINE SMOOTH",
"365 625 OFFCURVE",
"372 612 OFFCURVE",
"372 593 CURVE SMOOTH",
"372 471 OFFCURVE",
"362 333 OFFCURVE",
"328 210 CURVE SMOOTH",
"316 165 OFFCURVE",
"285 88 OFFCURVE",
"227 88 CURVE SMOOTH",
"150 88 OFFCURVE",
"117 191 OFFCURVE",
"106 237 CURVE SMOOTH",
"100 261 OFFCURVE",
"86 267 OFFCURVE",
"72 267 CURVE SMOOTH",
"51 267 OFFCURVE",
"40 248 OFFCURVE",
"40 215 CURVE SMOOTH",
"40 119 OFFCURVE",
"129 15 OFFCURVE",
"227 15 CURVE SMOOTH"
);
}
);
width = 614;
},
{
background = {
paths = (
{
closed = 1;
nodes = (
"549 590 OFFCURVE",
"575 605 OFFCURVE",
"575 643 CURVE SMOOTH",
"575 665 OFFCURVE",
"562 677 OFFCURVE",
"539 683 CURVE",
"492 683 OFFCURVE",
"316 688 OFFCURVE",
"278 688 CURVE SMOOTH",
"273 688 LINE SMOOTH",
"249 688 OFFCURVE",
"237 666 OFFCURVE",
"237 638 CURVE SMOOTH",
"237 620 OFFCURVE",
"253 586 OFFCURVE",
"273 586 CURVE SMOOTH",
"342 586 LINE SMOOTH",
"346 586 OFFCURVE",
"346 582 OFFCURVE",
"346 578 CURVE SMOOTH",
"346 515 OFFCURVE",
"337 127 OFFCURVE",
"233 127 CURVE SMOOTH",
"220 127 OFFCURVE",
"206 135 OFFCURVE",
"194 146 CURVE",
"175 181 OFFCURVE",
"162 220 OFFCURVE",
"141 254 CURVE",
"130 279 OFFCURVE",
"115 294 OFFCURVE",
"91 294 CURVE SMOOTH",
"51 294 OFFCURVE",
"40 255 OFFCURVE",
"40 224 CURVE SMOOTH",
"40 124 OFFCURVE",
"129 15 OFFCURVE",
"233 15 CURVE SMOOTH",
"412 15 OFFCURVE",
"443 237 OFFCURVE",
"452 376 CURVE SMOOTH",
"453 403 OFFCURVE",
"456 540 OFFCURVE",
"457 587 CURVE",
"461 591 LINE",
"481 589 OFFCURVE",
"502 585 OFFCURVE",
"523 587 CURVE SMOOTH"
);
}
);
};
layerId = "33ACAFD4-38EF-4E3F-A654-B3CAAACD5815";
paths = (
{
closed = 1;
nodes = (
"412 15 OFFCURVE",
"443 237 OFFCURVE",
"452 376 CURVE SMOOTH",
"453 403 OFFCURVE",
"456 540 OFFCURVE",
"457 587 CURVE",
"461 591 LINE",
"481 589 OFFCURVE",
"502 585 OFFCURVE",
"523 587 CURVE SMOOTH",
"549 590 OFFCURVE",
"575 605 OFFCURVE",
"575 643 CURVE SMOOTH",
"575 665 OFFCURVE",
"562 677 OFFCURVE",
"539 683 CURVE",
"492 683 OFFCURVE",
"316 688 OFFCURVE",
"278 688 CURVE SMOOTH",
"273 688 LINE SMOOTH",
"249 688 OFFCURVE",
"237 666 OFFCURVE",
"237 638 CURVE SMOOTH",
"237 620 OFFCURVE",
"253 586 OFFCURVE",
"273 586 CURVE SMOOTH",
"342 586 LINE SMOOTH",
"346 586 OFFCURVE",
"346 582 OFFCURVE",
"346 578 CURVE SMOOTH",
"346 515 OFFCURVE",
"337 127 OFFCURVE",
"233 127 CURVE SMOOTH",
"220 127 OFFCURVE",
"206 135 OFFCURVE",
"194 146 CURVE",
"175 181 OFFCURVE",
"162 220 OFFCURVE",
"141 254 CURVE",
"130 279 OFFCURVE",
"115 294 OFFCURVE",
"91 294 CURVE SMOOTH",
"51 294 OFFCURVE",
"40 255 OFFCURVE",
"40 224 CURVE SMOOTH",
"40 124 OFFCURVE",
"129 15 OFFCURVE",
"233 15 CURVE SMOOTH"
);
}
);
width = 614;
}
);
note = J;
unicode = 004A;
},
{
glyphname = K;
lastChange = "2021-10-16 03:32:20 +0000";
layers = (
{
background = {
paths = (
{
closed = 1;
nodes = (
"86 30 LINE SMOOTH",
"105 30 OFFCURVE",
"117 40 OFFCURVE",
"128 59 CURVE SMOOTH",
"139 80 OFFCURVE",
"145 107 OFFCURVE",
"151 130 CURVE SMOOTH",
"156 151 OFFCURVE",
"167 241 OFFCURVE",
"177 279 CURVE SMOOTH",
"181 295 OFFCURVE",
"186 300 OFFCURVE",
"190 300 CURVE SMOOTH",
"196 300 OFFCURVE",
"202 293 OFFCURVE",
"205 290 CURVE SMOOTH",
"229 270 LINE SMOOTH",
"242 259 OFFCURVE",
"269 244 OFFCURVE",
"305 219 CURVE SMOOTH",
"339 194 OFFCURVE",
"374 162 OFFCURVE",
"387 154 CURVE SMOOTH",
"390 152 OFFCURVE",
"398 146 OFFCURVE",
"408 137 CURVE SMOOTH",
"436 112 LINE SMOOTH",
"454 95 OFFCURVE",
"473 79 OFFCURVE",
"480 75 CURVE",
"500 58 OFFCURVE",
"520 46 OFFCURVE",
"532 46 CURVE SMOOTH",
"559 46 OFFCURVE",
"564 54 OFFCURVE",
"564 66 CURVE SMOOTH",
"564 129 OFFCURVE",
"485 184 OFFCURVE",
"438 219 CURVE SMOOTH",
"421 231 OFFCURVE",
"342 286 OFFCURVE",
"324 298 CURVE SMOOTH",
"294 315 LINE SMOOTH",
"287 319 OFFCURVE",
"284 322 OFFCURVE",
"284 326 CURVE SMOOTH",
"284 330 OFFCURVE",
"288 334 OFFCURVE",
"294 338 CURVE",
"317 359 OFFCURVE",
"419 441 OFFCURVE",
"436 457 CURVE SMOOTH",
"486 506 OFFCURVE",
"553 579 OFFCURVE",
"553 637 CURVE SMOOTH",
"553 657 OFFCURVE",
"536 674 OFFCURVE",
"516 674 CURVE SMOOTH",
"492 674 OFFCURVE",
"471 646 OFFCURVE",
"451 617 CURVE SMOOTH",
"438 599 OFFCURVE",
"426 580 OFFCURVE",
"415 563 CURVE SMOOTH",
"404 546 OFFCURVE",
"392 529 OFFCURVE",
"381 517 CURVE SMOOTH",
"366 500 OFFCURVE",
"300 426 OFFCURVE",
"282 409 CURVE",
"266 398 OFFCURVE",
"229 363 OFFCURVE",
"223 357 CURVE SMOOTH",
"215 347 OFFCURVE",
"207 342 OFFCURVE",
"201 342 CURVE SMOOTH",
"193 342 OFFCURVE",
"187 350 OFFCURVE",
"187 369 CURVE SMOOTH",
"187 416 OFFCURVE",
"182 531 OFFCURVE",
"182 553 CURVE SMOOTH",
"182 591 OFFCURVE",
"183 674 OFFCURVE",
"134 674 CURVE SMOOTH",
"111 674 OFFCURVE",
"106 670 OFFCURVE",
"103 651 CURVE",
"103 610 LINE SMOOTH",
"103 547 OFFCURVE",
"108 484 OFFCURVE",
"108 420 CURVE SMOOTH",
"108 340 LINE",
"102 296 OFFCURVE",
"90 253 OFFCURVE",
"79 209 CURVE SMOOTH",
"68 167 OFFCURVE",
"59 127 OFFCURVE",
"59 88 CURVE SMOOTH",
"59 59 OFFCURVE",
"60 43 OFFCURVE",
"73 30 CURVE"
);
}
);
};
layerId = "8F40E529-D5F5-4815-B22D-63C5267C70E2";
paths = (
{
closed = 1;
nodes = (
"86 30 LINE SMOOTH",
"105 30 OFFCURVE",
"117 40 OFFCURVE",
"128 59 CURVE SMOOTH",
"139 80 OFFCURVE",
"145 107 OFFCURVE",
"151 130 CURVE SMOOTH",
"156 151 OFFCURVE",
"167 241 OFFCURVE",
"177 279 CURVE SMOOTH",
"181 295 OFFCURVE",
"186 300 OFFCURVE",
"190 300 CURVE SMOOTH",
"196 300 OFFCURVE",
"202 293 OFFCURVE",
"205 290 CURVE SMOOTH",
"229 270 LINE SMOOTH",
"242 259 OFFCURVE",
"269 244 OFFCURVE",
"305 219 CURVE SMOOTH",
"339 194 OFFCURVE",
"374 162 OFFCURVE",
"387 154 CURVE SMOOTH",
"390 152 OFFCURVE",
"398 146 OFFCURVE",
"408 137 CURVE SMOOTH",
"436 112 LINE SMOOTH",
"454 95 OFFCURVE",
"473 79 OFFCURVE",
"480 75 CURVE",
"500 58 OFFCURVE",
"520 46 OFFCURVE",
"532 46 CURVE SMOOTH",
"559 46 OFFCURVE",
"564 54 OFFCURVE",
"564 66 CURVE SMOOTH",
"564 129 OFFCURVE",
"485 184 OFFCURVE",
"438 219 CURVE SMOOTH",
"421 231 OFFCURVE",
"342 286 OFFCURVE",
"324 298 CURVE SMOOTH",
"294 315 LINE SMOOTH",
"287 319 OFFCURVE",
"284 322 OFFCURVE",
"284 326 CURVE SMOOTH",
"284 330 OFFCURVE",
"288 334 OFFCURVE",
"294 338 CURVE",
"317 359 OFFCURVE",
"419 441 OFFCURVE",
"436 457 CURVE SMOOTH",
"486 506 OFFCURVE",
"553 579 OFFCURVE",
"553 637 CURVE SMOOTH",
"553 657 OFFCURVE",
"536 674 OFFCURVE",
"516 674 CURVE SMOOTH",
"492 674 OFFCURVE",
"471 646 OFFCURVE",
"451 617 CURVE SMOOTH",
"438 599 OFFCURVE",
"426 580 OFFCURVE",
"415 563 CURVE SMOOTH",
"404 546 OFFCURVE",
"392 529 OFFCURVE",
"381 517 CURVE SMOOTH",
"366 500 OFFCURVE",
"300 426 OFFCURVE",
"282 409 CURVE",
"266 398 OFFCURVE",
"229 363 OFFCURVE",
"223 357 CURVE SMOOTH",
"215 347 OFFCURVE",
"207 342 OFFCURVE",
"201 342 CURVE SMOOTH",
"193 342 OFFCURVE",
"187 350 OFFCURVE",
"187 369 CURVE SMOOTH",
"187 416 OFFCURVE",
"182 531 OFFCURVE",
"182 553 CURVE SMOOTH",
"182 591 OFFCURVE",
"183 674 OFFCURVE",
"134 674 CURVE SMOOTH",
"111 674 OFFCURVE",
"106 670 OFFCURVE",
"103 651 CURVE",
"103 610 LINE SMOOTH",
"103 547 OFFCURVE",
"108 484 OFFCURVE",
"108 420 CURVE SMOOTH",
"108 340 LINE",
"102 296 OFFCURVE",
"90 253 OFFCURVE",
"79 209 CURVE SMOOTH",
"68 167 OFFCURVE",
"59 127 OFFCURVE",
"59 88 CURVE SMOOTH",
"59 59 OFFCURVE",
"60 43 OFFCURVE",
"73 30 CURVE"
);
}
);
width = 619;
},
{
background = {
paths = (
{
closed = 1;
nodes = (
"545 45 OFFCURVE",
"564 56 OFFCURVE",
"564 85 CURVE SMOOTH",
"564 123 OFFCURVE",
"541 156 OFFCURVE",
"516 181 CURVE SMOOTH",
"472 227 OFFCURVE",
"387 285 OFFCURVE",
"336 318 CURVE",
"332 323 LINE",
"332 327 LINE",
"360 354 OFFCURVE",
"426 421 OFFCURVE",
"440 434 CURVE SMOOTH",
"484 478 OFFCURVE",
"554 553 OFFCURVE",
"554 618 CURVE SMOOTH",
"554 649 OFFCURVE",
"528 674 OFFCURVE",
"499 674 CURVE SMOOTH",
"455 674 OFFCURVE",
"411 596 OFFCURVE",
"389 561 CURVE SMOOTH",
"357 511 OFFCURVE",
"314 473 OFFCURVE",
"271 432 CURVE",
"258 423 OFFCURVE",
"234 403 OFFCURVE",
"222 392 CURVE",
"218 392 LINE",
"217 443 OFFCURVE",
"214 522 OFFCURVE",
"214 539 CURVE SMOOTH",
"214 585 OFFCURVE",
"214 674 OFFCURVE",
"149 674 CURVE SMOOTH",
"120 674 OFFCURVE",
"105 665 OFFCURVE",
"99 633 CURVE",
"99 593 LINE SMOOTH",
"99 534 OFFCURVE",
"104 475 OFFCURVE",
"104 416 CURVE SMOOTH",
"104 342 LINE",
"94 262 OFFCURVE",
"59 186 OFFCURVE",
"59 105 CURVE SMOOTH",
"59 71 OFFCURVE",
"62 52 OFFCURVE",
"84 30 CURVE",
"105 30 LINE SMOOTH",
"132 30 OFFCURVE",
"150 46 OFFCURVE",
"162 68 CURVE SMOOTH",
"191 122 OFFCURVE",
"194 204 OFFCURVE",
"205 262 CURVE",
"208 262 LINE",
"264 228 OFFCURVE",
"314 181 OFFCURVE",
"370 148 CURVE SMOOTH",
"392 136 OFFCURVE",
"427 93 OFFCURVE",
"453 76 CURVE",
"471 61 OFFCURVE",
"494 45 OFFCURVE",
"513 45 CURVE SMOOTH"
);
}
);
};
layerId = "33ACAFD4-38EF-4E3F-A654-B3CAAACD5815";
paths = (
{
closed = 1;
nodes = (
"105 30 LINE SMOOTH",
"132 30 OFFCURVE",
"150 46 OFFCURVE",
"162 68 CURVE SMOOTH",
"191 122 OFFCURVE",
"194 204 OFFCURVE",
"205 262 CURVE",
"208 262 LINE",
"264 228 OFFCURVE",
"314 181 OFFCURVE",
"370 148 CURVE SMOOTH",
"392 136 OFFCURVE",
"427 93 OFFCURVE",
"453 76 CURVE",
"471 61 OFFCURVE",
"494 45 OFFCURVE",
"513 45 CURVE SMOOTH",
"545 45 OFFCURVE",
"564 56 OFFCURVE",
"564 85 CURVE SMOOTH",
"564 123 OFFCURVE",
"541 156 OFFCURVE",
"516 181 CURVE SMOOTH",
"472 227 OFFCURVE",
"387 285 OFFCURVE",
"336 318 CURVE",
"332 323 LINE",
"332 327 LINE",
"360 354 OFFCURVE",
"426 421 OFFCURVE",
"440 434 CURVE SMOOTH",
"484 478 OFFCURVE",
"554 553 OFFCURVE",
"554 618 CURVE SMOOTH",
"554 649 OFFCURVE",
"528 674 OFFCURVE",
"499 674 CURVE SMOOTH",
"455 674 OFFCURVE",
"411 596 OFFCURVE",
"389 561 CURVE SMOOTH",
"357 511 OFFCURVE",
"314 473 OFFCURVE",
"271 432 CURVE",
"258 423 OFFCURVE",
"234 403 OFFCURVE",
"222 392 CURVE",
"218 392 LINE",
"217 443 OFFCURVE",
"214 522 OFFCURVE",
"214 539 CURVE SMOOTH",
"214 585 OFFCURVE",
"214 674 OFFCURVE",
"149 674 CURVE SMOOTH",
"120 674 OFFCURVE",
"105 665 OFFCURVE",
"99 633 CURVE",
"99 593 LINE SMOOTH",
"99 534 OFFCURVE",
"104 475 OFFCURVE",
"104 416 CURVE SMOOTH",
"104 342 LINE",
"94 262 OFFCURVE",
"59 186 OFFCURVE",
"59 105 CURVE SMOOTH",
"59 71 OFFCURVE",
"62 52 OFFCURVE",
"84 30 CURVE"
);
}
);
width = 619;
}
);
note = K;
unicode = 004B;
},
{
glyphname = L;
lastChange = "2021-10-16 03:32:22 +0000";
layers = (
{
background = {
paths = (
{
closed = 1;
nodes = (
"111 25 LINE",
"218 54 OFFCURVE",
"337 66 OFFCURVE",
"417 66 CURVE SMOOTH",
"451 66 OFFCURVE",
"500 56 OFFCURVE",
"500 104 CURVE SMOOTH",
"500 146 OFFCURVE",
"426 141 OFFCURVE",
"397 141 CURVE SMOOTH",
"366 141 LINE",
"314 136 OFFCURVE",
"197 122 OFFCURVE",
"140 115 CURVE",
"140 284 OFFCURVE",
"162 432 OFFCURVE",
"162 580 CURVE SMOOTH",
"162 611 OFFCURVE",
"170 654 OFFCURVE",
"129 654 CURVE SMOOTH",
"104 654 OFFCURVE",
"86 632 OFFCURVE",
"86 601 CURVE SMOOTH",
"86 432 OFFCURVE",
"59 263 OFFCURVE",
"59 98 CURVE SMOOTH",
"59 53 LINE",
"63 33 OFFCURVE",
"71 25 OFFCURVE",
"96 25 CURVE SMOOTH"
);
}
);
};
layerId = "8F40E529-D5F5-4815-B22D-63C5267C70E2";
paths = (
{
closed = 1;
nodes = (
"111 25 LINE",
"218 54 OFFCURVE",
"337 66 OFFCURVE",
"417 66 CURVE SMOOTH",
"451 66 OFFCURVE",
"500 56 OFFCURVE",
"500 104 CURVE SMOOTH",
"500 146 OFFCURVE",
"426 141 OFFCURVE",
"397 141 CURVE SMOOTH",
"366 141 LINE",
"314 136 OFFCURVE",
"197 122 OFFCURVE",
"140 115 CURVE",
"140 284 OFFCURVE",
"162 432 OFFCURVE",
"162 580 CURVE SMOOTH",
"162 611 OFFCURVE",
"170 654 OFFCURVE",
"129 654 CURVE SMOOTH",
"104 654 OFFCURVE",
"86 632 OFFCURVE",
"86 601 CURVE SMOOTH",
"86 432 OFFCURVE",
"59 263 OFFCURVE",
"59 98 CURVE SMOOTH",
"59 53 LINE",
"63 33 OFFCURVE",
"71 25 OFFCURVE",
"96 25 CURVE SMOOTH"
);
}
);
width = 525;
},
{
background = {
paths = (
{
closed = 1;
nodes = (
"400 55 LINE SMOOTH",
"440 55 OFFCURVE",
"500 66 OFFCURVE",
"500 120 CURVE SMOOTH",
"500 180 OFFCURVE",
"424 176 OFFCURVE",
"386 176 CURVE SMOOTH",
"356 176 LINE",
"327 171 OFFCURVE",
"232 157 OFFCURVE",
"203 151 CURVE",
"174 151 LINE",
"176 300 OFFCURVE",
"194 432 OFFCURVE",
"194 564 CURVE SMOOTH",
"194 601 OFFCURVE",
"199 654 OFFCURVE",
"144 654 CURVE SMOOTH",
"105 654 OFFCURVE",
"84 620 OFFCURVE",
"84 583 CURVE SMOOTH",
"84 425 OFFCURVE",
"59 268 OFFCURVE",
"59 115 CURVE SMOOTH",
"59 71 LINE",
"65 39 OFFCURVE",
"81 25 OFFCURVE",
"113 25 CURVE SMOOTH",
"129 25 LINE",
"158 31 OFFCURVE",
"262 49 OFFCURVE",
"292 55 CURVE"
);
}
);
};
layerId = "33ACAFD4-38EF-4E3F-A654-B3CAAACD5815";
paths = (
{
closed = 1;
nodes = (
"129 25 LINE",
"158 31 OFFCURVE",
"262 49 OFFCURVE",
"292 55 CURVE",
"400 55 LINE SMOOTH",
"440 55 OFFCURVE",
"500 66 OFFCURVE",
"500 120 CURVE SMOOTH",
"500 180 OFFCURVE",
"424 176 OFFCURVE",
"386 176 CURVE SMOOTH",
"356 176 LINE",
"327 171 OFFCURVE",
"232 157 OFFCURVE",
"203 151 CURVE",
"174 151 LINE",
"176 307 OFFCURVE",
"194 445 OFFCURVE",
"194 582 CURVE SMOOTH",
"194 616 OFFCURVE",
"191 654 OFFCURVE",
"144 654 CURVE SMOOTH",
"105 654 OFFCURVE",
"84 620 OFFCURVE",
"84 583 CURVE SMOOTH",
"84 425 OFFCURVE",
"59 268 OFFCURVE",
"59 115 CURVE SMOOTH",
"59 71 LINE",
"65 39 OFFCURVE",
"81 25 OFFCURVE",
"113 25 CURVE SMOOTH"
);
}
);
width = 525;
}
);
note = L;
unicode = 004C;
},
{
glyphname = M;
lastChange = "2021-10-16 03:32:20 +0000";
layers = (
{
background = {
paths = (
{
closed = 1;
nodes = (
"122 5 OFFCURVE",
"129 52 OFFCURVE",
"132 86 CURVE SMOOTH",
"140 163 OFFCURVE",
"148 225 OFFCURVE",
"159 295 CURVE SMOOTH",
"163 322 OFFCURVE",
"168 348 OFFCURVE",
"170 358 CURVE SMOOTH",
"172 367 OFFCURVE",
"176 387 OFFCURVE",
"181 407 CURVE SMOOTH",
"186 429 OFFCURVE",
"192 452 OFFCURVE",
"195 465 CURVE",
"196 481 OFFCURVE",
"204 519 OFFCURVE",
"226 519 CURVE SMOOTH",
"250 519 OFFCURVE",
"256 487 OFFCURVE",
"258 478 CURVE",
"341 233 LINE SMOOTH",
"350 208 OFFCURVE",
"372 158 OFFCURVE",
"405 158 CURVE SMOOTH",
"451 158 OFFCURVE",
"488 255 OFFCURVE",
"501 291 CURVE SMOOTH",
"512 323 OFFCURVE",
"569 480 OFFCURVE",
"584 527 CURVE",
"590 539 OFFCURVE",
"599 545 OFFCURVE",
"608 545 CURVE SMOOTH",
"616 545 OFFCURVE",
"623 539 OFFCURVE",
"625 527 CURVE SMOOTH",
"636 484 OFFCURVE",
"645 454 OFFCURVE",
"673 181 CURVE SMOOTH",
"676 156 OFFCURVE",
"677 130 OFFCURVE",
"685 106 CURVE SMOOTH",
"692 84 OFFCURVE",
"703 73 OFFCURVE",
"721 73 CURVE SMOOTH",
"745 73 OFFCURVE",
"751 75 OFFCURVE",
"757 93 CURVE",
"757 132 LINE SMOOTH",
"757 271 OFFCURVE",
"737 412 OFFCURVE",
"701 548 CURVE SMOOTH",
"687 597 OFFCURVE",
"664 663 OFFCURVE",
"611 663 CURVE SMOOTH",
"563 663 OFFCURVE",
"541 626 OFFCURVE",
"520 571 CURVE SMOOTH",
"509 542 OFFCURVE",
"464 416 OFFCURVE",
"442 358 CURVE SMOOTH",
"431 329 OFFCURVE",
"419 315 OFFCURVE",
"408 315 CURVE SMOOTH",
"399 315 OFFCURVE",
"391 324 OFFCURVE",
"386 341 CURVE SMOOTH",
"364 410 OFFCURVE",
"340 482 OFFCURVE",
"317 552 CURVE SMOOTH",
"303 596 OFFCURVE",
"276 658 OFFCURVE",
"227 658 CURVE SMOOTH",
"189 658 OFFCURVE",
"173 638 OFFCURVE",
"158 593 CURVE SMOOTH",
"152 577 OFFCURVE",
"126 495 OFFCURVE",
"121 478 CURVE SMOOTH",
"85 348 OFFCURVE",
"54 218 OFFCURVE",
"54 84 CURVE SMOOTH",
"54 52 OFFCURVE",
"46 5 OFFCURVE",
"86 5 CURVE SMOOTH"
);
}
);
};
layerId = "8F40E529-D5F5-4815-B22D-63C5267C70E2";
paths = (
{
closed = 1;
nodes = (
"122 5 OFFCURVE",
"129 52 OFFCURVE",
"132 86 CURVE SMOOTH",
"140 163 OFFCURVE",
"148 225 OFFCURVE",
"159 295 CURVE SMOOTH",
"163 322 OFFCURVE",
"168 348 OFFCURVE",
"170 358 CURVE SMOOTH",
"172 367 OFFCURVE",
"176 387 OFFCURVE",
"181 407 CURVE SMOOTH",
"186 429 OFFCURVE",
"192 452 OFFCURVE",
"195 465 CURVE",
"196 481 OFFCURVE",
"204 519 OFFCURVE",
"226 519 CURVE SMOOTH",
"250 519 OFFCURVE",
"256 487 OFFCURVE",
"258 478 CURVE",
"341 233 LINE SMOOTH",
"350 208 OFFCURVE",
"372 158 OFFCURVE",
"405 158 CURVE SMOOTH",
"451 158 OFFCURVE",
"488 255 OFFCURVE",
"501 291 CURVE SMOOTH",
"512 323 OFFCURVE",
"569 480 OFFCURVE",
"584 527 CURVE",
"590 539 OFFCURVE",
"599 545 OFFCURVE",
"608 545 CURVE SMOOTH",
"616 545 OFFCURVE",
"623 539 OFFCURVE",
"625 527 CURVE SMOOTH",
"636 484 OFFCURVE",
"645 454 OFFCURVE",
"673 181 CURVE SMOOTH",
"676 156 OFFCURVE",
"677 130 OFFCURVE",
"685 106 CURVE SMOOTH",
"692 84 OFFCURVE",
"703 73 OFFCURVE",
"721 73 CURVE SMOOTH",
"745 73 OFFCURVE",
"751 75 OFFCURVE",
"757 93 CURVE",
"757 132 LINE SMOOTH",
"757 271 OFFCURVE",
"737 412 OFFCURVE",
"701 548 CURVE SMOOTH",
"687 597 OFFCURVE",
"664 663 OFFCURVE",
"611 663 CURVE SMOOTH",
"563 663 OFFCURVE",
"541 626 OFFCURVE",
"520 571 CURVE SMOOTH",
"509 542 OFFCURVE",
"464 416 OFFCURVE",
"442 358 CURVE SMOOTH",
"431 329 OFFCURVE",
"419 315 OFFCURVE",
"408 315 CURVE SMOOTH",
"399 315 OFFCURVE",
"391 324 OFFCURVE",
"386 341 CURVE SMOOTH",
"364 410 OFFCURVE",
"340 482 OFFCURVE",
"317 552 CURVE SMOOTH",
"303 596 OFFCURVE",
"276 658 OFFCURVE",
"227 658 CURVE SMOOTH",
"189 658 OFFCURVE",
"173 638 OFFCURVE",
"158 593 CURVE SMOOTH",
"152 577 OFFCURVE",
"126 495 OFFCURVE",
"121 478 CURVE SMOOTH",
"85 348 OFFCURVE",
"54 218 OFFCURVE",
"54 84 CURVE SMOOTH",
"54 52 OFFCURVE",
"46 5 OFFCURVE",
"86 5 CURVE SMOOTH"
);
}
);
width = 812;
},
{
background = {
paths = (
{
closed = 1;
nodes = (
"728 69 OFFCURVE",
"745 73 OFFCURVE",
"757 105 CURVE",
"757 145 LINE SMOOTH",
"757 277 OFFCURVE",
"738 411 OFFCURVE",
"703 539 CURVE SMOOTH",
"689 594 OFFCURVE",
"658 663 OFFCURVE",
"598 663 CURVE SMOOTH",
"537 663 OFFCURVE",
"512 613 OFFCURVE",
"493 563 CURVE SMOOTH",
"483 535 OFFCURVE",
"431 398 OFFCURVE",
"418 362 CURVE",
"417 356 OFFCURVE",
"414 353 OFFCURVE",
"410 349 CURVE",
"406 353 LINE",
"343 544 LINE SMOOTH",
"326 594 OFFCURVE",
"293 658 OFFCURVE",
"238 658 CURVE SMOOTH",
"188 658 OFFCURVE",
"167 628 OFFCURVE",
"152 583 CURVE SMOOTH",
"101 428 OFFCURVE",
"54 266 OFFCURVE",
"54 100 CURVE SMOOTH",
"54 63 OFFCURVE",
"48 5 OFFCURVE",
"105 5 CURVE SMOOTH",
"150 5 OFFCURVE",
"167 59 OFFCURVE",
"171 100 CURVE SMOOTH",
"172 118 OFFCURVE",
"185 210 OFFCURVE",
"186 233 CURVE",
"189 246 OFFCURVE",
"192 270 OFFCURVE",
"196 294 CURVE SMOOTH",
"204 349 OFFCURVE",
"218 400 OFFCURVE",
"230 454 CURVE",
"230 460 OFFCURVE",
"231 466 OFFCURVE",
"238 476 CURVE",
"243 471 OFFCURVE",
"246 468 OFFCURVE",
"246 463 CURVE",
"277 372 OFFCURVE",
"326 148 OFFCURVE",
"405 148 CURVE SMOOTH",
"455 148 OFFCURVE",
"502 247 OFFCURVE",
"515 287 CURVE SMOOTH",
"525 314 OFFCURVE",
"570 437 OFFCURVE",
"589 493 CURVE",
"592 493 LINE",
"597 484 LINE",
"620 384 OFFCURVE",
"625 286 OFFCURVE",
"635 189 CURVE SMOOTH",
"640 146 OFFCURVE",
"641 69 OFFCURVE",
"702 69 CURVE SMOOTH"
);
}
);
};
layerId = "33ACAFD4-38EF-4E3F-A654-B3CAAACD5815";
paths = (
{
closed = 1;
nodes = (
"150 5 OFFCURVE",
"167 59 OFFCURVE",
"171 100 CURVE SMOOTH",
"172 118 OFFCURVE",
"185 210 OFFCURVE",
"186 233 CURVE",
"189 246 OFFCURVE",
"192 270 OFFCURVE",
"196 294 CURVE SMOOTH",
"204 349 OFFCURVE",
"218 400 OFFCURVE",
"230 454 CURVE",
"230 460 OFFCURVE",
"231 466 OFFCURVE",
"238 476 CURVE",
"243 471 OFFCURVE",
"246 468 OFFCURVE",
"246 463 CURVE",
"277 372 OFFCURVE",
"326 148 OFFCURVE",
"405 148 CURVE SMOOTH",
"455 148 OFFCURVE",
"502 247 OFFCURVE",
"515 287 CURVE SMOOTH",
"525 314 OFFCURVE",
"570 437 OFFCURVE",
"589 493 CURVE",
"592 493 LINE",
"597 484 LINE",
"620 384 OFFCURVE",
"625 286 OFFCURVE",
"635 189 CURVE SMOOTH",
"640 146 OFFCURVE",
"641 69 OFFCURVE",
"702 69 CURVE SMOOTH",
"728 69 OFFCURVE",
"745 73 OFFCURVE",
"757 105 CURVE",
"757 145 LINE SMOOTH",
"757 277 OFFCURVE",
"738 411 OFFCURVE",
"703 539 CURVE SMOOTH",
"689 594 OFFCURVE",
"658 663 OFFCURVE",
"598 663 CURVE SMOOTH",
"537 663 OFFCURVE",
"512 613 OFFCURVE",
"493 563 CURVE SMOOTH",
"483 535 OFFCURVE",
"431 398 OFFCURVE",
"418 362 CURVE",
"417 356 OFFCURVE",
"414 353 OFFCURVE",
"410 349 CURVE",
"406 353 LINE",
"343 544 LINE SMOOTH",
"326 594 OFFCURVE",
"293 658 OFFCURVE",
"238 658 CURVE SMOOTH",
"188 658 OFFCURVE",
"167 628 OFFCURVE",
"152 583 CURVE SMOOTH",
"101 428 OFFCURVE",
"54 266 OFFCURVE",
"54 100 CURVE SMOOTH",
"54 63 OFFCURVE",
"48 5 OFFCURVE",
"105 5 CURVE SMOOTH"
);
}
);
width = 812;
}
);
note = M;
unicode = 004D;
},
{
glyphname = N;
lastChange = "2021-10-16 03:32:20 +0000";
layers = (
{
background = {
paths = (
{
closed = 1;
nodes = (
"124 5 OFFCURVE",
"133 69 OFFCURVE",
"139 99 CURVE SMOOTH",
"157 193 OFFCURVE",
"171 421 OFFCURVE",
"171 473 CURVE",
"190 473 OFFCURVE",
"194 449 OFFCURVE",
"380 169 CURVE SMOOTH",
"415 115 OFFCURVE",
"471 47 OFFCURVE",
"527 47 CURVE SMOOTH",
"628 47 OFFCURVE",
"648 231 OFFCURVE",
"648 506 CURVE SMOOTH",
"648 553 OFFCURVE",
"646 610 OFFCURVE",
"638 646 CURVE SMOOTH",
"634 662 OFFCURVE",
"626 668 OFFCURVE",
"601 668 CURVE SMOOTH",
"579 668 OFFCURVE",
"561 655 OFFCURVE",
"564 632 CURVE SMOOTH",
"569 594 OFFCURVE",
"572 549 OFFCURVE",
"572 500 CURVE SMOOTH",
"572 387 OFFCURVE",
"559 258 OFFCURVE",
"540 162 CURVE SMOOTH",
"536 144 OFFCURVE",
"531 135 OFFCURVE",
"523 135 CURVE SMOOTH",
"515 135 OFFCURVE",
"505 143 OFFCURVE",
"493 158 CURVE SMOOTH",
"451 210 OFFCURVE",
"381 303 OFFCURVE",
"347 360 CURVE SMOOTH",
"300 437 OFFCURVE",
"248 515 OFFCURVE",
"205 584 CURVE SMOOTH",
"201 590 OFFCURVE",
"196 598 OFFCURVE",
"191 607 CURVE SMOOTH",
"181 622 OFFCURVE",
"158 653 OFFCURVE",
"139 653 CURVE SMOOTH",
"99 653 OFFCURVE",
"97 602 OFFCURVE",
"97 573 CURVE SMOOTH",
"97 558 OFFCURVE",
"91 421 OFFCURVE",
"91 405 CURVE SMOOTH",
"91 373 OFFCURVE",
"75 210 OFFCURVE",
"70 171 CURVE SMOOTH",
"69 162 OFFCURVE",
"65 142 OFFCURVE",
"62 122 CURVE SMOOTH",
"60 112 OFFCURVE",
"58 101 OFFCURVE",
"56 93 CURVE SMOOTH",
"54 79 LINE",
"54 63 LINE SMOOTH",
"54 34 OFFCURVE",
"53 5 OFFCURVE",
"86 5 CURVE SMOOTH"
);
}
);
};
layerId = "8F40E529-D5F5-4815-B22D-63C5267C70E2";
paths = (
{
closed = 1;
nodes = (
"124 5 OFFCURVE",
"133 69 OFFCURVE",
"139 99 CURVE SMOOTH",
"157 193 OFFCURVE",
"171 421 OFFCURVE",
"171 473 CURVE",
"190 473 OFFCURVE",
"194 449 OFFCURVE",
"380 169 CURVE SMOOTH",
"415 115 OFFCURVE",
"471 47 OFFCURVE",
"527 47 CURVE SMOOTH",
"628 47 OFFCURVE",
"648 231 OFFCURVE",
"648 506 CURVE SMOOTH",
"648 553 OFFCURVE",
"646 610 OFFCURVE",
"638 646 CURVE SMOOTH",
"634 662 OFFCURVE",
"626 668 OFFCURVE",
"601 668 CURVE SMOOTH",
"579 668 OFFCURVE",
"561 655 OFFCURVE",
"564 632 CURVE SMOOTH",
"569 594 OFFCURVE",
"572 549 OFFCURVE",
"572 500 CURVE SMOOTH",
"572 387 OFFCURVE",
"559 258 OFFCURVE",
"540 162 CURVE SMOOTH",
"536 144 OFFCURVE",
"531 135 OFFCURVE",
"523 135 CURVE SMOOTH",
"515 135 OFFCURVE",
"505 143 OFFCURVE",
"493 158 CURVE SMOOTH",
"451 210 OFFCURVE",
"381 303 OFFCURVE",
"347 360 CURVE SMOOTH",
"300 437 OFFCURVE",
"248 515 OFFCURVE",
"205 584 CURVE SMOOTH",
"201 590 OFFCURVE",
"196 598 OFFCURVE",
"191 607 CURVE SMOOTH",
"181 622 OFFCURVE",
"158 653 OFFCURVE",
"139 653 CURVE SMOOTH",
"99 653 OFFCURVE",
"97 602 OFFCURVE",
"97 573 CURVE SMOOTH",
"97 558 OFFCURVE",
"91 421 OFFCURVE",
"91 405 CURVE SMOOTH",
"91 373 OFFCURVE",
"75 210 OFFCURVE",
"70 171 CURVE SMOOTH",
"69 162 OFFCURVE",
"65 142 OFFCURVE",
"62 122 CURVE SMOOTH",
"60 112 OFFCURVE",
"58 101 OFFCURVE",
"56 93 CURVE SMOOTH",
"54 79 LINE",
"54 63 LINE SMOOTH",
"54 34 OFFCURVE",
"53 5 OFFCURVE",
"86 5 CURVE SMOOTH"
);
}
);
width = 703;
},
{
background = {
paths = (
{
closed = 1;
nodes = (
"632 226 OFFCURVE",
"638 322 OFFCURVE",
"638 342 CURVE SMOOTH",
"638 484 LINE",
"638 628 LINE",
"632 659 OFFCURVE",
"611 668 OFFCURVE",
"583 668 CURVE SMOOTH",
"552 668 OFFCURVE",
"527 648 OFFCURVE",
"527 612 CURVE SMOOTH",
"527 292 LINE SMOOTH",
"527 264 OFFCURVE",
"523 224 OFFCURVE",
"502 177 CURVE",
"383 295 OFFCURVE",
"320 439 OFFCURVE",
"234 579 CURVE SMOOTH",
"218 604 OFFCURVE",
"185 654 OFFCURVE",
"154 654 CURVE SMOOTH",
"104 654 OFFCURVE",
"94 594 OFFCURVE",
"94 558 CURVE SMOOTH",
"94 544 OFFCURVE",
"89 416 OFFCURVE",
"89 401 CURVE SMOOTH",
"89 371 OFFCURVE",
"74 220 OFFCURVE",
"69 185 CURVE SMOOTH",
"65 160 OFFCURVE",
"61 136 OFFCURVE",
"57 112 CURVE SMOOTH",
"55 104 LINE SMOOTH",
"54 100 OFFCURVE",
"54 97 OFFCURVE",
"54 95 CURVE SMOOTH",
"54 80 LINE SMOOTH",
"54 45 OFFCURVE",
"57 5 OFFCURVE",
"105 5 CURVE SMOOTH",
"149 5 OFFCURVE",
"170 73 OFFCURVE",
"175 110 CURVE",
"180 131 OFFCURVE",
"188 181 OFFCURVE",
"190 193 CURVE SMOOTH",
"195 224 OFFCURVE",
"202 324 OFFCURVE",
"204 408 CURVE",
"211 400 LINE",
"360 168 LINE SMOOTH",
"390 120 OFFCURVE",
"449 45 OFFCURVE",
"513 45 CURVE SMOOTH",
"602 45 OFFCURVE",
"617 137 OFFCURVE",
"628 204 CURVE SMOOTH"
);
}
);
};
layerId = "33ACAFD4-38EF-4E3F-A654-B3CAAACD5815";
paths = (
{
closed = 1;
nodes = (
"149 5 OFFCURVE",
"170 73 OFFCURVE",
"175 110 CURVE",
"180 131 OFFCURVE",
"188 181 OFFCURVE",
"190 193 CURVE SMOOTH",
"195 224 OFFCURVE",
"202 324 OFFCURVE",
"204 408 CURVE",
"211 400 LINE",
"360 168 LINE SMOOTH",
"390 120 OFFCURVE",
"449 45 OFFCURVE",
"513 45 CURVE SMOOTH",
"602 45 OFFCURVE",
"617 137 OFFCURVE",
"628 204 CURVE SMOOTH",
"632 226 OFFCURVE",
"638 322 OFFCURVE",
"638 342 CURVE SMOOTH",
"638 628 LINE",
"632 659 OFFCURVE",
"611 668 OFFCURVE",
"583 668 CURVE SMOOTH",
"552 668 OFFCURVE",
"527 648 OFFCURVE",
"527 612 CURVE SMOOTH",
"527 292 LINE SMOOTH",
"527 264 OFFCURVE",
"523 224 OFFCURVE",
"502 177 CURVE",
"383 295 OFFCURVE",
"320 439 OFFCURVE",
"234 579 CURVE SMOOTH",
"218 604 OFFCURVE",
"185 654 OFFCURVE",
"154 654 CURVE SMOOTH",
"104 654 OFFCURVE",
"94 594 OFFCURVE",
"94 558 CURVE SMOOTH",
"94 544 OFFCURVE",
"89 416 OFFCURVE",
"89 401 CURVE SMOOTH",
"89 371 OFFCURVE",
"74 220 OFFCURVE",
"69 185 CURVE SMOOTH",
"57 112 LINE",
"55 104 LINE SMOOTH",
"54 100 OFFCURVE",
"54 97 OFFCURVE",
"54 95 CURVE SMOOTH",
"54 80 LINE SMOOTH",
"54 45 OFFCURVE",
"57 5 OFFCURVE",
"105 5 CURVE SMOOTH"
);
}
);
width = 703;
}
);
note = N;
unicode = 004E;
},
{
color = 3;
glyphname = Eng;
lastChange = "2021-10-16 03:32:20 +0000";
layers = (
{
background = {
paths = (
{
closed = 1;
nodes = (
"595 -281 OFFCURVE",
"621 -55 OFFCURVE",
"629 83 CURVE SMOOTH",
"638 303 OFFCURVE",
"637 558 OFFCURVE",
"638 646 CURVE",
"635 662 OFFCURVE",
"626 668 OFFCURVE",
"601 668 CURVE SMOOTH",
"579 668 OFFCURVE",
"564 655 OFFCURVE",
"564 632 CURVE SMOOTH",
"564 288 LINE SMOOTH",
"564 250 OFFCURVE",
"552 191 OFFCURVE",
"544 120 CURVE",
"459 199 OFFCURVE",
"382 283 OFFCURVE",
"336 360 CURVE SMOOTH",
"289 437 OFFCURVE",
"248 515 OFFCURVE",
"205 584 CURVE SMOOTH",
"201 590 OFFCURVE",
"196 598 OFFCURVE",
"191 607 CURVE SMOOTH",
"181 622 OFFCURVE",
"158 653 OFFCURVE",
"139 653 CURVE SMOOTH",
"99 653 OFFCURVE",
"97 602 OFFCURVE",
"97 573 CURVE SMOOTH",
"97 558 OFFCURVE",
"91 421 OFFCURVE",
"91 405 CURVE SMOOTH",
"91 373 OFFCURVE",
"75 210 OFFCURVE",
"70 171 CURVE SMOOTH",
"69 162 OFFCURVE",
"65 142 OFFCURVE",
"62 122 CURVE SMOOTH",
"60 112 OFFCURVE",
"57 101 OFFCURVE",
"56 93 CURVE SMOOTH",
"54 79 LINE",
"54 63 LINE SMOOTH",
"54 34 OFFCURVE",
"53 5 OFFCURVE",
"86 5 CURVE SMOOTH",
"124 5 OFFCURVE",
"135 68 OFFCURVE",
"139 99 CURVE",
"145 120 OFFCURVE",
"155 180 OFFCURVE",
"155 186 CURVE",
"162 224 OFFCURVE",
"171 379 OFFCURVE",
"171 473 CURVE",
"219 418 LINE",
"380 169 LINE SMOOTH",
"415 115 OFFCURVE",
"471 47 OFFCURVE",
"527 47 CURVE SMOOTH",
"534 47 OFFCURVE",
"540 48 OFFCURVE",
"545 49 CURVE",
"538 3 OFFCURVE",
"528 -42 OFFCURVE",
"516 -86 CURVE SMOOTH",
"504 -131 OFFCURVE",
"473 -208 OFFCURVE",
"415 -208 CURVE SMOOTH",
"390 -208 OFFCURVE",
"369 -192 OFFCURVE",
"354 -178 CURVE",
"348 -167 OFFCURVE",
"336 -142 OFFCURVE",
"323 -116 CURVE SMOOTH",
"311 -90 OFFCURVE",
"300 -67 OFFCURVE",
"294 -59 CURVE",
"284 -36 OFFCURVE",
"274 -29 OFFCURVE",
"260 -29 CURVE SMOOTH",
"239 -29 OFFCURVE",
"228 -48 OFFCURVE",
"228 -81 CURVE SMOOTH",
"228 -177 OFFCURVE",
"317 -281 OFFCURVE",
"415 -281 CURVE SMOOTH"
);
}
);
};
layerId = "8F40E529-D5F5-4815-B22D-63C5267C70E2";
paths = (
{
closed = 1;
nodes = (
"595 -281 OFFCURVE",
"621 -55 OFFCURVE",
"629 83 CURVE SMOOTH",
"638 303 OFFCURVE",
"637 558 OFFCURVE",
"638 646 CURVE",
"635 662 OFFCURVE",
"626 668 OFFCURVE",
"601 668 CURVE SMOOTH",
"579 668 OFFCURVE",
"564 655 OFFCURVE",
"564 632 CURVE SMOOTH",
"564 288 LINE SMOOTH",
"564 250 OFFCURVE",
"552 191 OFFCURVE",
"544 120 CURVE",
"459 199 OFFCURVE",
"382 283 OFFCURVE",
"336 360 CURVE SMOOTH",
"289 437 OFFCURVE",
"248 515 OFFCURVE",
"205 584 CURVE SMOOTH",
"201 590 OFFCURVE",
"196 598 OFFCURVE",
"191 607 CURVE SMOOTH",
"181 622 OFFCURVE",
"158 653 OFFCURVE",
"139 653 CURVE SMOOTH",
"99 653 OFFCURVE",
"97 602 OFFCURVE",
"97 573 CURVE SMOOTH",
"97 558 OFFCURVE",
"91 421 OFFCURVE",
"91 405 CURVE SMOOTH",
"91 373 OFFCURVE",
"75 210 OFFCURVE",
"70 171 CURVE SMOOTH",
"69 162 OFFCURVE",
"65 142 OFFCURVE",
"62 122 CURVE SMOOTH",
"60 112 OFFCURVE",
"57 101 OFFCURVE",
"56 93 CURVE SMOOTH",
"54 79 LINE",
"54 63 LINE SMOOTH",
"54 34 OFFCURVE",
"53 5 OFFCURVE",
"86 5 CURVE SMOOTH",
"124 5 OFFCURVE",
"135 68 OFFCURVE",
"139 99 CURVE",
"145 120 OFFCURVE",
"155 180 OFFCURVE",
"155 186 CURVE",
"162 224 OFFCURVE",
"171 379 OFFCURVE",
"171 473 CURVE",
"219 418 LINE",
"380 169 LINE SMOOTH",
"415 115 OFFCURVE",
"471 47 OFFCURVE",
"527 47 CURVE SMOOTH",
"534 47 OFFCURVE",
"540 48 OFFCURVE",
"545 49 CURVE",
"538 3 OFFCURVE",
"528 -42 OFFCURVE",
"516 -86 CURVE SMOOTH",
"504 -131 OFFCURVE",
"473 -208 OFFCURVE",
"415 -208 CURVE SMOOTH",
"390 -208 OFFCURVE",
"369 -192 OFFCURVE",
"354 -178 CURVE",
"348 -167 OFFCURVE",
"336 -142 OFFCURVE",
"323 -116 CURVE SMOOTH",
"311 -90 OFFCURVE",
"300 -67 OFFCURVE",
"294 -59 CURVE",
"284 -36 OFFCURVE",
"274 -29 OFFCURVE",
"260 -29 CURVE SMOOTH",
"239 -29 OFFCURVE",
"228 -48 OFFCURVE",
"228 -81 CURVE SMOOTH",
"228 -177 OFFCURVE",
"317 -281 OFFCURVE",
"415 -281 CURVE SMOOTH"
);
}
);
width = 703;
},
{
background = {
paths = (
{
closed = 1;
nodes = (
"552 668 OFFCURVE",
"527 648 OFFCURVE",
"527 612 CURVE SMOOTH",
"527 292 LINE SMOOTH",
"527 264 OFFCURVE",
"519 174 OFFCURVE",
"514 154 CURVE",
"395 272 OFFCURVE",
"320 439 OFFCURVE",
"234 579 CURVE SMOOTH",
"218 604 OFFCURVE",
"185 654 OFFCURVE",
"154 654 CURVE SMOOTH",
"104 654 OFFCURVE",
"94 594 OFFCURVE",
"94 558 CURVE SMOOTH",
"94 544 OFFCURVE",
"89 416 OFFCURVE",
"89 401 CURVE SMOOTH",
"89 371 OFFCURVE",
"74 220 OFFCURVE",
"69 185 CURVE SMOOTH",
"65 160 OFFCURVE",
"63 136 OFFCURVE",
"57 112 CURVE SMOOTH",
"55 104 LINE SMOOTH",
"54 100 OFFCURVE",
"54 97 OFFCURVE",
"54 95 CURVE SMOOTH",
"54 80 LINE SMOOTH",
"54 45 OFFCURVE",
"57 5 OFFCURVE",
"105 5 CURVE SMOOTH",
"149 5 OFFCURVE",
"170 73 OFFCURVE",
"175 110 CURVE",
"180 131 OFFCURVE",
"188 181 OFFCURVE",
"190 193 CURVE SMOOTH",
"195 224 OFFCURVE",
"202 324 OFFCURVE",
"204 408 CURVE",
"211 400 LINE",
"360 168 LINE SMOOTH",
"391 120 OFFCURVE",
"449 45 OFFCURVE",
"513 45 CURVE SMOOTH",
"514 45 LINE",
"500 -72 OFFCURVE",
"472 -191 OFFCURVE",
"414 -191 CURVE SMOOTH",
"401 -191 OFFCURVE",
"387 -183 OFFCURVE",
"375 -172 CURVE",
"356 -137 OFFCURVE",
"343 -98 OFFCURVE",
"322 -64 CURVE",
"311 -39 OFFCURVE",
"296 -24 OFFCURVE",
"272 -24 CURVE SMOOTH",
"232 -24 OFFCURVE",
"221 -63 OFFCURVE",
"221 -94 CURVE SMOOTH",
"221 -194 OFFCURVE",
"310 -303 OFFCURVE",
"414 -303 CURVE SMOOTH",
"593 -303 OFFCURVE",
"624 -81 OFFCURVE",
"633 58 CURVE SMOOTH",
"634 58 OFFCURVE",
"638 341 OFFCURVE",
"638 342 CURVE SMOOTH",
"638 628 LINE",
"632 659 OFFCURVE",
"611 668 OFFCURVE",
"583 668 CURVE SMOOTH"
);
}
);
};
layerId = "33ACAFD4-38EF-4E3F-A654-B3CAAACD5815";
paths = (
{
closed = 1;
nodes = (
"593 -303 OFFCURVE",
"624 -81 OFFCURVE",
"633 58 CURVE",
"634 58 OFFCURVE",
"638 341 OFFCURVE",
"638 342 CURVE SMOOTH",
"638 628 LINE",
"632 659 OFFCURVE",
"611 668 OFFCURVE",
"583 668 CURVE SMOOTH",
"552 668 OFFCURVE",
"527 648 OFFCURVE",
"527 612 CURVE SMOOTH",
"527 292 LINE SMOOTH",
"527 264 OFFCURVE",
"519 174 OFFCURVE",
"514 154 CURVE",
"395 272 OFFCURVE",
"320 439 OFFCURVE",
"234 579 CURVE SMOOTH",
"218 604 OFFCURVE",
"185 654 OFFCURVE",
"154 654 CURVE SMOOTH",
"104 654 OFFCURVE",
"94 594 OFFCURVE",
"94 558 CURVE SMOOTH",
"94 544 OFFCURVE",
"89 416 OFFCURVE",
"89 401 CURVE SMOOTH",
"89 371 OFFCURVE",
"74 220 OFFCURVE",
"69 185 CURVE SMOOTH",
"65 160 OFFCURVE",
"63 136 OFFCURVE",
"57 112 CURVE SMOOTH",
"55 104 LINE SMOOTH",
"54 100 OFFCURVE",
"54 97 OFFCURVE",
"54 95 CURVE SMOOTH",
"54 80 LINE SMOOTH",
"54 45 OFFCURVE",
"57 5 OFFCURVE",
"105 5 CURVE SMOOTH",
"149 5 OFFCURVE",
"170 73 OFFCURVE",
"175 110 CURVE",
"180 131 OFFCURVE",
"188 181 OFFCURVE",
"190 193 CURVE SMOOTH",
"195 224 OFFCURVE",
"202 324 OFFCURVE",
"204 408 CURVE",
"211 400 LINE",
"360 168 LINE SMOOTH",
"391 120 OFFCURVE",
"449 45 OFFCURVE",
"513 45 CURVE SMOOTH",
"514 45 LINE",
"500 -72 OFFCURVE",
"472 -191 OFFCURVE",
"414 -191 CURVE SMOOTH",
"401 -191 OFFCURVE",
"387 -183 OFFCURVE",
"375 -172 CURVE",
"356 -137 OFFCURVE",
"343 -98 OFFCURVE",
"322 -64 CURVE",
"311 -39 OFFCURVE",
"296 -24 OFFCURVE",
"272 -24 CURVE SMOOTH",
"232 -24 OFFCURVE",
"221 -63 OFFCURVE",
"221 -94 CURVE SMOOTH",
"221 -194 OFFCURVE",
"310 -303 OFFCURVE",
"414 -303 CURVE SMOOTH"
);
}
);
width = 703;
}
);
unicode = 014A;
},
{
glyphname = O;
lastChange = "2021-10-16 03:32:20 +0000";
layers = (
{
background = {
paths = (
{
closed = 1;
nodes = (
"513 0 OFFCURVE",
"644 166 OFFCURVE",
"644 347 CURVE SMOOTH",
"644 433 OFFCURVE",
"629 501 OFFCURVE",
"580 569 CURVE SMOOTH",
"569 585 OFFCURVE",
"555 605 OFFCURVE",
"545 615 CURVE",
"545 631 OFFCURVE",
"541 648 OFFCURVE",
"526 664 CURVE SMOOTH",
"505 688 OFFCURVE",
"471 698 OFFCURVE",
"431 698 CURVE SMOOTH",
"389 698 OFFCURVE",
"334 679 OFFCURVE",
"292 663 CURVE SMOOTH",
"133 598 OFFCURVE",
"50 489 OFFCURVE",
"50 315 CURVE SMOOTH",
"50 154 OFFCURVE",
"161 0 OFFCURVE",
"326 0 CURVE SMOOTH"
);
},
{
closed = 1;
nodes = (
"191 73 OFFCURVE",
"129 200 OFFCURVE",
"129 315 CURVE SMOOTH",
"129 465 OFFCURVE",
"236 614 OFFCURVE",
"405 614 CURVE SMOOTH",
"513 614 OFFCURVE",
"564 433 OFFCURVE",
"564 362 CURVE SMOOTH",
"564 239 OFFCURVE",
"494 73 OFFCURVE",
"336 73 CURVE SMOOTH"
);
}
);
};
layerId = "8F40E529-D5F5-4815-B22D-63C5267C70E2";
paths = (
{
closed = 1;
nodes = (
"513 0 OFFCURVE",
"644 166 OFFCURVE",
"644 347 CURVE SMOOTH",
"644 433 OFFCURVE",
"629 501 OFFCURVE",
"580 569 CURVE SMOOTH",
"569 585 OFFCURVE",
"555 605 OFFCURVE",
"545 615 CURVE",
"545 631 OFFCURVE",
"541 648 OFFCURVE",
"526 664 CURVE SMOOTH",
"505 688 OFFCURVE",
"471 698 OFFCURVE",
"431 698 CURVE SMOOTH",
"389 698 OFFCURVE",
"334 679 OFFCURVE",
"292 663 CURVE SMOOTH",
"133 598 OFFCURVE",
"50 489 OFFCURVE",
"50 315 CURVE SMOOTH",
"50 154 OFFCURVE",
"161 0 OFFCURVE",
"326 0 CURVE SMOOTH"
);
},
{
closed = 1;
nodes = (
"191 73 OFFCURVE",
"129 200 OFFCURVE",
"129 315 CURVE SMOOTH",
"129 465 OFFCURVE",
"236 614 OFFCURVE",
"405 614 CURVE SMOOTH",
"513 614 OFFCURVE",
"564 433 OFFCURVE",
"564 362 CURVE SMOOTH",
"564 239 OFFCURVE",
"494 73 OFFCURVE",
"336 73 CURVE SMOOTH"
);
}
);
width = 698;
},
{
background = {
paths = (
{
closed = 1;
nodes = (
"548 613 LINE",
"541 628 OFFCURVE",
"539 643 OFFCURVE",
"530 658 CURVE",
"504 688 OFFCURVE",
"465 698 OFFCURVE",
"425 698 CURVE SMOOTH",
"381 698 OFFCURVE",
"326 679 OFFCURVE",
"288 663 CURVE SMOOTH",
"134 600 OFFCURVE",
"50 490 OFFCURVE",
"50 317 CURVE SMOOTH",
"50 158 OFFCURVE",
"159 0 OFFCURVE",
"327 0 CURVE SMOOTH",
"515 0 OFFCURVE",
"644 168 OFFCURVE",
"644 347 CURVE SMOOTH",
"644 431 OFFCURVE",
"630 500 OFFCURVE",
"580 568 CURVE SMOOTH",
"575 576 OFFCURVE",
"552 606 OFFCURVE",
"549 613 CURVE"
);
},
{
closed = 1;
nodes = (
"491 576 OFFCURVE",
"527 420 OFFCURVE",
"527 361 CURVE SMOOTH",
"527 249 OFFCURVE",
"464 112 OFFCURVE",
"337 112 CURVE SMOOTH",
"220 112 OFFCURVE",
"166 214 OFFCURVE",
"166 317 CURVE SMOOTH",
"166 449 OFFCURVE",
"259 576 OFFCURVE",
"401 576 CURVE SMOOTH"
);
}
);
};
layerId = "33ACAFD4-38EF-4E3F-A654-B3CAAACD5815";
paths = (
{
closed = 1;
nodes = (
"515 0 OFFCURVE",
"644 168 OFFCURVE",
"644 347 CURVE SMOOTH",
"644 431 OFFCURVE",
"630 500 OFFCURVE",
"580 568 CURVE SMOOTH",
"575 576 OFFCURVE",
"552 606 OFFCURVE",
"549 613 CURVE",
"548 613 LINE",
"541 628 OFFCURVE",
"539 643 OFFCURVE",
"530 658 CURVE",
"504 688 OFFCURVE",
"465 698 OFFCURVE",
"425 698 CURVE SMOOTH",
"381 698 OFFCURVE",
"326 679 OFFCURVE",
"288 663 CURVE SMOOTH",
"134 600 OFFCURVE",
"50 490 OFFCURVE",
"50 317 CURVE SMOOTH",
"50 158 OFFCURVE",
"159 0 OFFCURVE",
"327 0 CURVE SMOOTH"
);
},
{
closed = 1;
nodes = (
"220 112 OFFCURVE",
"166 214 OFFCURVE",
"166 317 CURVE SMOOTH",
"166 449 OFFCURVE",
"259 576 OFFCURVE",
"401 576 CURVE SMOOTH",
"491 576 OFFCURVE",
"527 420 OFFCURVE",
"527 361 CURVE SMOOTH",
"527 249 OFFCURVE",
"464 112 OFFCURVE",
"337 112 CURVE SMOOTH"
);
}
);
width = 698;
}
);
note = O;
unicode = 004F;
},
{
glyphname = OE;
lastChange = "2021-10-16 03:32:20 +0000";
layers = (
{
background = {
paths = (
{
closed = 1;
nodes = (
"418 0 OFFCURVE",
"497 40 OFFCURVE",
"553 103 CURVE",
"577 44 OFFCURVE",
"627 10 OFFCURVE",
"720 10 CURVE SMOOTH",
"736 10 OFFCURVE",
"761 10 OFFCURVE",
"788 11 CURVE SMOOTH",
"815 13 OFFCURVE",
"845 15 OFFCURVE",
"873 21 CURVE SMOOTH",
"933 33 OFFCURVE",
"963 54 OFFCURVE",
"963 84 CURVE SMOOTH",
"963 113 OFFCURVE",
"958 115 OFFCURVE",
"931 115 CURVE SMOOTH",
"898 115 OFFCURVE",
"867 109 OFFCURVE",
"833 102 CURVE SMOOTH",
"797 96 OFFCURVE",
"762 89 OFFCURVE",
"726 89 CURVE SMOOTH",
"674 89 LINE",
"623 100 OFFCURVE",
"610 144 OFFCURVE",
"607 185 CURVE",
"627 226 OFFCURVE",
"639 271 OFFCURVE",
"643 317 CURVE",
"648 319 OFFCURVE",
"653 320 OFFCURVE",
"659 320 CURVE SMOOTH",
"827 331 LINE SMOOTH",
"852 333 OFFCURVE",
"866 344 OFFCURVE",
"866 358 CURVE SMOOTH",
"866 381 OFFCURVE",
"854 396 OFFCURVE",
"826 405 CURVE",
"785 405 LINE SMOOTH",
"748 405 OFFCURVE",
"710 399 OFFCURVE",
"644 399 CURVE",
"644 481 OFFCURVE",
"670 604 OFFCURVE",
"758 604 CURVE SMOOTH",
"931 604 LINE SMOOTH",
"942 604 OFFCURVE",
"952 616 OFFCURVE",
"952 631 CURVE SMOOTH",
"952 684 OFFCURVE",
"844 678 OFFCURVE",
"807 678 CURVE SMOOTH",
"722 678 OFFCURVE",
"647 667 OFFCURVE",
"561 653 CURVE SMOOTH",
"550 651 OFFCURVE",
"541 648 OFFCURVE",
"534 645 CURVE",
"533 648 LINE SMOOTH",
"532 652 OFFCURVE",
"531 656 OFFCURVE",
"526 664 CURVE",
"505 688 OFFCURVE",
"471 698 OFFCURVE",
"431 698 CURVE SMOOTH",
"389 698 OFFCURVE",
"334 679 OFFCURVE",
"292 663 CURVE SMOOTH",
"133 598 OFFCURVE",
"50 489 OFFCURVE",
"50 315 CURVE SMOOTH",
"50 154 OFFCURVE",
"161 0 OFFCURVE",
"326 0 CURVE SMOOTH"
);
},
{
closed = 1;
nodes = (
"191 73 OFFCURVE",
"129 200 OFFCURVE",
"129 315 CURVE SMOOTH",
"129 465 OFFCURVE",
"236 614 OFFCURVE",
"405 614 CURVE SMOOTH",
"492 614 OFFCURVE",
"542 498 OFFCURVE",
"558 415 CURVE",
"557 412 OFFCURVE",
"555 410 OFFCURVE",
"553 408 CURVE SMOOTH",
"546 398 OFFCURVE",
"538 391 OFFCURVE",
"531 385 CURVE SMOOTH",
"524 380 OFFCURVE",
"517 377 OFFCURVE",
"511 372 CURVE SMOOTH",
"503 367 OFFCURVE",
"498 362 OFFCURVE",
"498 347 CURVE SMOOTH",
"498 324 OFFCURVE",
"503 321 OFFCURVE",
"532 299 CURVE",
"531 281 OFFCURVE",
"531 264 OFFCURVE",
"531 247 CURVE SMOOTH",
"531 235 OFFCURVE",
"531 223 OFFCURVE",
"532 212 CURVE",
"497 136 OFFCURVE",
"433 73 OFFCURVE",
"336 73 CURVE SMOOTH"
);
}
);
};
layerId = "8F40E529-D5F5-4815-B22D-63C5267C70E2";
paths = (
{
closed = 1;
nodes = (
"418 0 OFFCURVE",
"497 40 OFFCURVE",
"553 103 CURVE",
"577 44 OFFCURVE",
"627 10 OFFCURVE",
"720 10 CURVE SMOOTH",
"736 10 OFFCURVE",
"761 10 OFFCURVE",
"788 11 CURVE SMOOTH",
"815 13 OFFCURVE",
"845 15 OFFCURVE",
"873 21 CURVE SMOOTH",
"933 33 OFFCURVE",
"963 54 OFFCURVE",
"963 84 CURVE SMOOTH",
"963 113 OFFCURVE",
"958 115 OFFCURVE",
"931 115 CURVE SMOOTH",
"898 115 OFFCURVE",
"867 109 OFFCURVE",
"833 102 CURVE SMOOTH",
"797 96 OFFCURVE",
"762 89 OFFCURVE",
"726 89 CURVE SMOOTH",
"674 89 LINE",
"623 100 OFFCURVE",
"610 144 OFFCURVE",
"607 185 CURVE",
"627 226 OFFCURVE",
"639 271 OFFCURVE",
"643 317 CURVE",
"648 319 OFFCURVE",
"653 320 OFFCURVE",
"659 320 CURVE SMOOTH",
"827 331 LINE SMOOTH",
"852 333 OFFCURVE",
"866 344 OFFCURVE",
"866 358 CURVE SMOOTH",
"866 381 OFFCURVE",
"854 396 OFFCURVE",
"826 405 CURVE",
"785 405 LINE SMOOTH",
"748 405 OFFCURVE",
"710 399 OFFCURVE",
"644 399 CURVE",
"644 481 OFFCURVE",
"670 604 OFFCURVE",
"758 604 CURVE SMOOTH",
"931 604 LINE SMOOTH",
"942 604 OFFCURVE",
"952 616 OFFCURVE",
"952 631 CURVE SMOOTH",
"952 684 OFFCURVE",
"844 678 OFFCURVE",
"807 678 CURVE SMOOTH",
"722 678 OFFCURVE",
"647 667 OFFCURVE",
"561 653 CURVE SMOOTH",
"550 651 OFFCURVE",
"541 648 OFFCURVE",
"534 645 CURVE",
"533 648 LINE SMOOTH",
"532 652 OFFCURVE",
"531 656 OFFCURVE",
"526 664 CURVE",
"505 688 OFFCURVE",
"471 698 OFFCURVE",
"431 698 CURVE SMOOTH",
"389 698 OFFCURVE",
"334 679 OFFCURVE",
"292 663 CURVE SMOOTH",
"133 598 OFFCURVE",
"50 489 OFFCURVE",
"50 315 CURVE SMOOTH",
"50 154 OFFCURVE",
"161 0 OFFCURVE",
"326 0 CURVE SMOOTH"
);
},
{
closed = 1;
nodes = (
"191 73 OFFCURVE",
"129 200 OFFCURVE",
"129 315 CURVE SMOOTH",
"129 465 OFFCURVE",
"236 614 OFFCURVE",
"405 614 CURVE SMOOTH",
"492 614 OFFCURVE",
"542 498 OFFCURVE",
"558 415 CURVE",
"557 412 OFFCURVE",
"555 410 OFFCURVE",
"553 408 CURVE SMOOTH",
"546 398 OFFCURVE",
"538 391 OFFCURVE",
"531 385 CURVE SMOOTH",
"524 380 OFFCURVE",
"517 377 OFFCURVE",
"511 372 CURVE SMOOTH",
"503 367 OFFCURVE",
"498 362 OFFCURVE",
"498 347 CURVE SMOOTH",
"498 324 OFFCURVE",
"503 321 OFFCURVE",
"532 299 CURVE",
"531 281 OFFCURVE",
"531 264 OFFCURVE",
"531 247 CURVE SMOOTH",
"531 235 OFFCURVE",
"531 223 OFFCURVE",
"532 212 CURVE",
"497 136 OFFCURVE",
"433 73 OFFCURVE",
"336 73 CURVE SMOOTH"
);
}
);
width = 1018;
},
{
background = {
paths = (
{
closed = 1;
nodes = (
"737 306 OFFCURVE",
"870 293 OFFCURVE",
"870 357 CURVE SMOOTH",
"870 391 OFFCURVE",
"850 412 OFFCURVE",
"814 423 CURVE",
"772 423 LINE SMOOTH",
"741 423 OFFCURVE",
"709 419 OFFCURVE",
"660 418 CURVE",
"663 483 OFFCURVE",
"681 567 OFFCURVE",
"746 567 CURVE SMOOTH",
"911 567 LINE SMOOTH",
"937 567 OFFCURVE",
"953 591 OFFCURVE",
"953 614 CURVE SMOOTH",
"953 684 OFFCURVE",
"839 679 OFFCURVE",
"793 679 CURVE SMOOTH",
"723 679 OFFCURVE",
"612 668 OFFCURVE",
"545 653 CURVE",
"542 658 LINE",
"515 688 OFFCURVE",
"476 698 OFFCURVE",
"435 698 CURVE SMOOTH",
"390 698 OFFCURVE",
"334 679 OFFCURVE",
"294 663 CURVE SMOOTH",
"136 600 OFFCURVE",
"50 490 OFFCURVE",
"50 317 CURVE SMOOTH",
"50 158 OFFCURVE",
"162 0 OFFCURVE",
"334 0 CURVE SMOOTH",
"418 0 OFFCURVE",
"490 32 OFFCURVE",
"545 82 CURVE",
"576 35 OFFCURVE",
"629 9 OFFCURVE",
"710 9 CURVE SMOOTH",
"775 9 OFFCURVE",
"963 9 OFFCURVE",
"963 100 CURVE SMOOTH",
"963 141 OFFCURVE",
"947 151 OFFCURVE",
"911 151 CURVE SMOOTH",
"845 151 OFFCURVE",
"782 126 OFFCURVE",
"715 126 CURVE SMOOTH",
"669 126 LINE",
"639 134 OFFCURVE",
"628 158 OFFCURVE",
"625 191 CURVE",
"641 226 OFFCURVE",
"652 262 OFFCURVE",
"656 301 CURVE"
);
},
{
closed = 1;
nodes = (
"512 389 OFFCURVE",
"477 391 OFFCURVE",
"477 347 CURVE SMOOTH",
"477 318 OFFCURVE",
"487 308 OFFCURVE",
"508 291 CURVE",
"508 268 OFFCURVE",
"508 246 OFFCURVE",
"509 225 CURVE",
"477 160 OFFCURVE",
"423 112 OFFCURVE",
"344 112 CURVE SMOOTH",
"224 112 OFFCURVE",
"169 214 OFFCURVE",
"169 317 CURVE SMOOTH",
"169 449 OFFCURVE",
"265 576 OFFCURVE",
"410 576 CURVE SMOOTH",
"470 576 OFFCURVE",
"515 494 OFFCURVE",
"532 416 CURVE"
);
}
);
};
layerId = "33ACAFD4-38EF-4E3F-A654-B3CAAACD5815";
paths = (
{
closed = 1;
nodes = (
"418 0 OFFCURVE",
"490 32 OFFCURVE",
"545 82 CURVE",
"576 35 OFFCURVE",
"629 9 OFFCURVE",
"710 9 CURVE SMOOTH",
"775 9 OFFCURVE",
"963 9 OFFCURVE",
"963 100 CURVE SMOOTH",
"963 141 OFFCURVE",
"947 151 OFFCURVE",
"911 151 CURVE SMOOTH",
"845 151 OFFCURVE",
"782 126 OFFCURVE",
"715 126 CURVE SMOOTH",
"669 126 LINE",
"639 134 OFFCURVE",
"628 158 OFFCURVE",
"625 191 CURVE",
"641 226 OFFCURVE",
"652 262 OFFCURVE",
"656 301 CURVE",
"737 306 OFFCURVE",
"870 293 OFFCURVE",
"870 357 CURVE SMOOTH",
"870 391 OFFCURVE",
"850 412 OFFCURVE",
"814 423 CURVE",
"772 423 LINE SMOOTH",
"741 423 OFFCURVE",
"709 419 OFFCURVE",
"660 418 CURVE",
"663 483 OFFCURVE",
"681 567 OFFCURVE",
"746 567 CURVE SMOOTH",
"911 567 LINE SMOOTH",
"937 567 OFFCURVE",
"953 591 OFFCURVE",
"953 614 CURVE SMOOTH",
"953 684 OFFCURVE",
"839 679 OFFCURVE",
"793 679 CURVE SMOOTH",
"723 679 OFFCURVE",
"612 668 OFFCURVE",
"545 653 CURVE",
"542 658 LINE",
"515 688 OFFCURVE",
"476 698 OFFCURVE",
"435 698 CURVE SMOOTH",
"390 698 OFFCURVE",
"334 679 OFFCURVE",
"294 663 CURVE SMOOTH",
"136 600 OFFCURVE",
"50 490 OFFCURVE",
"50 317 CURVE SMOOTH",
"50 158 OFFCURVE",
"162 0 OFFCURVE",
"334 0 CURVE SMOOTH"
);
},
{
closed = 1;
nodes = (
"224 112 OFFCURVE",
"169 214 OFFCURVE",
"169 317 CURVE SMOOTH",
"169 449 OFFCURVE",
"265 576 OFFCURVE",
"410 576 CURVE SMOOTH",
"470 576 OFFCURVE",
"515 494 OFFCURVE",
"532 416 CURVE",
"512 389 OFFCURVE",
"477 391 OFFCURVE",
"477 347 CURVE SMOOTH",
"477 318 OFFCURVE",
"487 308 OFFCURVE",
"508 291 CURVE",
"508 268 OFFCURVE",
"508 246 OFFCURVE",
"509 225 CURVE",
"477 160 OFFCURVE",
"423 112 OFFCURVE",
"344 112 CURVE SMOOTH"
);
}
);
width = 1018;
}
);
note = OE;
unicode = 0152;
},
{
glyphname = P;
lastChange = "2021-10-16 03:32:22 +0000";
layers = (
{
background = {
paths = (
{
closed = 1;
nodes = (
"188 -10 OFFCURVE",
"196 -4 OFFCURVE",
"201 19 CURVE SMOOTH",
"203 30 OFFCURVE",
"204 42 OFFCURVE",
"204 53 CURVE SMOOTH",
"204 84 LINE SMOOTH",
"204 131 OFFCURVE",
"199 179 OFFCURVE",
"199 253 CURVE",
"218 251 OFFCURVE",
"239 250 OFFCURVE",
"258 250 CURVE SMOOTH",
"275 250 OFFCURVE",
"290 251 OFFCURVE",
"303 252 CURVE SMOOTH",
"453 266 OFFCURVE",
"604 377 OFFCURVE",
"604 509 CURVE SMOOTH",
"604 646 OFFCURVE",
"515 689 OFFCURVE",
"318 689 CURVE SMOOTH",
"272 689 OFFCURVE",
"142 679 OFFCURVE",
"118 672 CURVE",
"75 667 OFFCURVE",
"50 648 OFFCURVE",
"50 625 CURVE SMOOTH",
"50 585 OFFCURVE",
"65 577 OFFCURVE",
"135 577 CURVE",
"135 457 OFFCURVE",
"119 352 OFFCURVE",
"119 252 CURVE SMOOTH",
"119 141 LINE SMOOTH",
"119 106 OFFCURVE",
"114 -10 OFFCURVE",
"178 -10 CURVE SMOOTH"
);
},
{
closed = 1;
nodes = (
"203 405 OFFCURVE",
"209 510 OFFCURVE",
"220 585 CURVE SMOOTH",
"222 601 OFFCURVE",
"234 607 OFFCURVE",
"243 609 CURVE SMOOTH",
"261 612 OFFCURVE",
"291 614 OFFCURVE",
"322 614 CURVE SMOOTH",
"348 614 OFFCURVE",
"376 613 OFFCURVE",
"397 609 CURVE SMOOTH",
"458 599 OFFCURVE",
"531 592 OFFCURVE",
"531 510 CURVE SMOOTH",
"531 429 OFFCURVE",
"382 336 OFFCURVE",
"321 336 CURVE SMOOTH",
"199 336 LINE"
);
}
);
};
layerId = "8F40E529-D5F5-4815-B22D-63C5267C70E2";
paths = (
{
closed = 1;
nodes = (
"188 -10 OFFCURVE",
"196 -4 OFFCURVE",
"201 19 CURVE SMOOTH",
"203 30 OFFCURVE",
"204 42 OFFCURVE",
"204 53 CURVE SMOOTH",
"204 84 LINE SMOOTH",
"204 131 OFFCURVE",
"199 179 OFFCURVE",
"199 253 CURVE",
"218 251 OFFCURVE",
"239 250 OFFCURVE",
"258 250 CURVE SMOOTH",
"275 250 OFFCURVE",
"290 251 OFFCURVE",
"303 252 CURVE SMOOTH",
"453 266 OFFCURVE",
"604 377 OFFCURVE",
"604 509 CURVE SMOOTH",
"604 646 OFFCURVE",
"515 689 OFFCURVE",
"318 689 CURVE SMOOTH",
"272 689 OFFCURVE",
"142 679 OFFCURVE",
"118 672 CURVE",
"75 667 OFFCURVE",
"50 648 OFFCURVE",
"50 625 CURVE SMOOTH",
"50 585 OFFCURVE",
"65 577 OFFCURVE",
"135 577 CURVE",
"135 457 OFFCURVE",
"119 352 OFFCURVE",
"119 252 CURVE SMOOTH",
"119 141 LINE SMOOTH",
"119 106 OFFCURVE",
"114 -10 OFFCURVE",
"178 -10 CURVE SMOOTH"
);
},
{
closed = 1;
nodes = (
"203 405 OFFCURVE",
"209 510 OFFCURVE",
"220 585 CURVE SMOOTH",
"222 601 OFFCURVE",
"234 607 OFFCURVE",
"243 609 CURVE SMOOTH",
"261 612 OFFCURVE",
"291 614 OFFCURVE",
"322 614 CURVE SMOOTH",
"348 614 OFFCURVE",
"376 613 OFFCURVE",
"397 609 CURVE SMOOTH",
"458 599 OFFCURVE",
"531 592 OFFCURVE",
"531 510 CURVE SMOOTH",
"531 429 OFFCURVE",
"382 336 OFFCURVE",
"321 336 CURVE SMOOTH",
"199 336 LINE"
);
}
);
width = 644;
},
{
background = {
paths = (
{
closed = 1;
nodes = (
"436 232 OFFCURVE",
"604 359 OFFCURVE",
"604 509 CURVE SMOOTH",
"604 543 LINE",
"573 673 OFFCURVE",
"410 693 OFFCURVE",
"302 693 CURVE SMOOTH",
"298 693 LINE",
"244 685 OFFCURVE",
"182 685 OFFCURVE",
"130 673 CURVE",
"90 668 OFFCURVE",
"50 648 OFFCURVE",
"50 608 CURVE SMOOTH",
"50 556 OFFCURVE",
"78 544 OFFCURVE",
"128 542 CURVE",
"127 437 OFFCURVE",
"113 345 OFFCURVE",
"113 257 CURVE SMOOTH",
"113 154 LINE SMOOTH",
"113 100 OFFCURVE",
"113 -10 OFFCURVE",
"190 -10 CURVE SMOOTH",
"239 -10 OFFCURVE",
"235 67 OFFCURVE",
"235 100 CURVE SMOOTH",
"235 139 OFFCURVE",
"231 179 OFFCURVE",
"230 236 CURVE",
"260 235 OFFCURVE",
"278 232 OFFCURVE",
"298 232 CURVE SMOOTH"
);
},
{
closed = 1;
nodes = (
"392 571 LINE SMOOTH",
"426 571 OFFCURVE",
"494 546 OFFCURVE",
"494 499 CURVE SMOOTH",
"494 441 OFFCURVE",
"372 358 OFFCURVE",
"322 358 CURVE SMOOTH",
"230 358 LINE",
"230 436 OFFCURVE",
"239 486 OFFCURVE",
"250 562 CURVE",
"259 571 LINE"
);
}
);
};
layerId = "33ACAFD4-38EF-4E3F-A654-B3CAAACD5815";
paths = (
{
closed = 1;
nodes = (
"232 -10 OFFCURVE",
"235 47 OFFCURVE",
"235 84 CURVE SMOOTH",
"235 128 OFFCURVE",
"231 171 OFFCURVE",
"230 236 CURVE",
"260 235 OFFCURVE",
"278 232 OFFCURVE",
"298 232 CURVE SMOOTH",
"436 232 OFFCURVE",
"604 359 OFFCURVE",
"604 509 CURVE SMOOTH",
"604 543 LINE",
"573 673 OFFCURVE",
"410 693 OFFCURVE",
"302 693 CURVE SMOOTH",
"298 693 LINE",
"244 685 OFFCURVE",
"182 685 OFFCURVE",
"130 673 CURVE",
"90 668 OFFCURVE",
"50 648 OFFCURVE",
"50 608 CURVE SMOOTH",
"50 556 OFFCURVE",
"78 544 OFFCURVE",
"128 542 CURVE",
"127 437 OFFCURVE",
"113 345 OFFCURVE",
"113 257 CURVE SMOOTH",
"113 154 LINE SMOOTH",
"113 100 OFFCURVE",
"113 -10 OFFCURVE",
"190 -10 CURVE SMOOTH"
);
},
{
closed = 1;
nodes = (
"230 436 OFFCURVE",
"239 486 OFFCURVE",
"250 562 CURVE",
"259 571 LINE",
"392 571 LINE SMOOTH",
"426 571 OFFCURVE",
"494 546 OFFCURVE",
"494 499 CURVE SMOOTH",
"494 441 OFFCURVE",
"372 358 OFFCURVE",
"322 358 CURVE SMOOTH",
"230 358 LINE"
);
}
);
width = 644;
}
);
note = P;
unicode = 0050;
},
{
glyphname = Thorn;
lastChange = "2021-10-16 03:32:22 +0000";
layers = (
{
background = {
paths = (
{
closed = 1;
nodes = (
"188 -10 OFFCURVE",
"196 -4 OFFCURVE",
"201 19 CURVE SMOOTH",
"203 30 OFFCURVE",
"204 42 OFFCURVE",
"204 53 CURVE SMOOTH",
"204 84 LINE SMOOTH",
"204 131 OFFCURVE",
"199 179 OFFCURVE",
"199 253 CURVE",
"247 253 OFFCURVE",
"294 253 OFFCURVE",
"321 258 CURVE SMOOTH",
"461 286 OFFCURVE",
"604 394 OFFCURVE",
"604 530 CURVE SMOOTH",
"604 620 OFFCURVE",
"503 693 OFFCURVE",
"300 693 CURVE SMOOTH",
"297 693 LINE",
"282 690 OFFCURVE",
"253 687 OFFCURVE",
"220 684 CURVE SMOOTH",
"218 684 OFFCURVE",
"218 697 OFFCURVE",
"218 716 CURVE SMOOTH",
"218 752 OFFCURVE",
"220 806 OFFCURVE",
"220 809 CURVE SMOOTH",
"220 832 OFFCURVE",
"206 850 OFFCURVE",
"188 850 CURVE SMOOTH",
"173 850 OFFCURVE",
"157 839 OFFCURVE",
"144 810 CURVE SMOOTH",
"140 802 OFFCURVE",
"144 677 OFFCURVE",
"137 676 CURVE SMOOTH",
"114 672 LINE SMOOTH",
"71 667 OFFCURVE",
"50 648 OFFCURVE",
"50 625 CURVE SMOOTH",
"50 585 OFFCURVE",
"65 577 OFFCURVE",
"135 577 CURVE",
"135 457 OFFCURVE",
"119 352 OFFCURVE",
"119 252 CURVE SMOOTH",
"119 141 LINE SMOOTH",
"119 106 OFFCURVE",
"114 -10 OFFCURVE",
"178 -10 CURVE SMOOTH"
);
},
{
closed = 1;
nodes = (
"199 465 OFFCURVE",
"214 568 OFFCURVE",
"212 609 CURVE",
"227 615 OFFCURVE",
"258 619 OFFCURVE",
"296 619 CURVE SMOOTH",
"327 619 OFFCURVE",
"362 616 OFFCURVE",
"397 609 CURVE SMOOTH",
"432 602 OFFCURVE",
"514 582 OFFCURVE",
"514 510 CURVE SMOOTH",
"514 429 OFFCURVE",
"382 336 OFFCURVE",
"321 336 CURVE SMOOTH",
"199 336 LINE"
);
}
);
};
layerId = "8F40E529-D5F5-4815-B22D-63C5267C70E2";
paths = (
{
closed = 1;
nodes = (
"188 -10 OFFCURVE",
"196 -4 OFFCURVE",
"201 19 CURVE SMOOTH",
"203 30 OFFCURVE",
"204 42 OFFCURVE",
"204 53 CURVE SMOOTH",
"204 84 LINE SMOOTH",
"204 131 OFFCURVE",
"199 179 OFFCURVE",
"199 253 CURVE",
"247 253 OFFCURVE",
"294 253 OFFCURVE",
"321 258 CURVE SMOOTH",
"461 286 OFFCURVE",
"604 394 OFFCURVE",
"604 530 CURVE SMOOTH",
"604 620 OFFCURVE",
"503 693 OFFCURVE",
"300 693 CURVE SMOOTH",
"297 693 LINE",
"282 690 OFFCURVE",
"253 687 OFFCURVE",
"220 684 CURVE SMOOTH",
"218 684 OFFCURVE",
"218 697 OFFCURVE",
"218 716 CURVE SMOOTH",
"218 752 OFFCURVE",
"220 806 OFFCURVE",
"220 809 CURVE SMOOTH",
"220 832 OFFCURVE",
"206 850 OFFCURVE",
"188 850 CURVE SMOOTH",
"173 850 OFFCURVE",
"157 839 OFFCURVE",
"144 810 CURVE SMOOTH",
"140 802 OFFCURVE",
"144 677 OFFCURVE",
"137 676 CURVE SMOOTH",
"114 672 LINE SMOOTH",
"71 667 OFFCURVE",
"50 648 OFFCURVE",
"50 625 CURVE SMOOTH",
"50 585 OFFCURVE",
"65 577 OFFCURVE",
"135 577 CURVE",
"135 457 OFFCURVE",
"119 352 OFFCURVE",
"119 252 CURVE SMOOTH",
"119 141 LINE SMOOTH",
"119 106 OFFCURVE",
"114 -10 OFFCURVE",
"178 -10 CURVE SMOOTH"
);
},
{
closed = 1;
nodes = (
"199 465 OFFCURVE",
"214 568 OFFCURVE",
"212 609 CURVE",
"227 615 OFFCURVE",
"258 619 OFFCURVE",
"296 619 CURVE SMOOTH",
"327 619 OFFCURVE",
"362 616 OFFCURVE",
"397 609 CURVE SMOOTH",
"432 602 OFFCURVE",
"514 582 OFFCURVE",
"514 510 CURVE SMOOTH",
"514 429 OFFCURVE",
"382 336 OFFCURVE",
"321 336 CURVE SMOOTH",
"199 336 LINE"
);
}
);
width = 644;
},
{
background = {
paths = (
{
closed = 1;
nodes = (
"280 690 OFFCURVE",
"262 689 OFFCURVE",
"243 687 CURVE",
"256 812 LINE",
"261 913 OFFCURVE",
"169 877 OFFCURVE",
"162 833 CURVE SMOOTH",
"147 735 OFFCURVE",
"144 706 OFFCURVE",
"141 675 CURVE",
"137 675 OFFCURVE",
"134 674 OFFCURVE",
"130 673 CURVE SMOOTH",
"90 668 OFFCURVE",
"50 648 OFFCURVE",
"50 608 CURVE SMOOTH",
"50 556 OFFCURVE",
"78 544 OFFCURVE",
"128 542 CURVE",
"127 437 OFFCURVE",
"113 345 OFFCURVE",
"113 257 CURVE SMOOTH",
"113 154 LINE SMOOTH",
"113 100 OFFCURVE",
"113 -10 OFFCURVE",
"190 -10 CURVE SMOOTH",
"239 -10 OFFCURVE",
"235 67 OFFCURVE",
"235 100 CURVE SMOOTH",
"235 139 OFFCURVE",
"231 179 OFFCURVE",
"230 236 CURVE",
"260 235 OFFCURVE",
"278 232 OFFCURVE",
"298 232 CURVE SMOOTH",
"436 232 OFFCURVE",
"604 359 OFFCURVE",
"604 509 CURVE SMOOTH",
"604 543 LINE",
"573 673 OFFCURVE",
"410 693 OFFCURVE",
"302 693 CURVE SMOOTH",
"298 693 LINE"
);
},
{
closed = 1;
nodes = (
"230 436 OFFCURVE",
"239 486 OFFCURVE",
"250 562 CURVE",
"259 571 LINE",
"392 571 LINE SMOOTH",
"426 571 OFFCURVE",
"494 546 OFFCURVE",
"494 499 CURVE SMOOTH",
"494 441 OFFCURVE",
"372 358 OFFCURVE",
"322 358 CURVE SMOOTH",
"230 358 LINE"
);
}
);
};
layerId = "33ACAFD4-38EF-4E3F-A654-B3CAAACD5815";
paths = (
{
closed = 1;
nodes = (
"232 -10 OFFCURVE",
"235 47 OFFCURVE",
"235 84 CURVE SMOOTH",
"235 128 OFFCURVE",
"231 171 OFFCURVE",
"230 236 CURVE",
"260 235 OFFCURVE",
"278 232 OFFCURVE",
"298 232 CURVE SMOOTH",
"436 232 OFFCURVE",
"604 359 OFFCURVE",
"604 509 CURVE SMOOTH",
"604 543 LINE",
"573 673 OFFCURVE",
"410 693 OFFCURVE",
"302 693 CURVE SMOOTH",
"298 693 LINE",
"280 690 OFFCURVE",
"262 689 OFFCURVE",
"243 687 CURVE",
"256 812 LINE",
"258 860 OFFCURVE",
"239 877 OFFCURVE",
"217 877 CURVE SMOOTH",
"193 877 OFFCURVE",
"166 856 OFFCURVE",
"162 833 CURVE SMOOTH",
"147 735 OFFCURVE",
"144 706 OFFCURVE",
"141 675 CURVE",
"137 675 OFFCURVE",
"134 674 OFFCURVE",
"130 673 CURVE SMOOTH",
"90 668 OFFCURVE",
"50 648 OFFCURVE",
"50 608 CURVE SMOOTH",
"50 556 OFFCURVE",
"78 544 OFFCURVE",
"128 542 CURVE",
"127 437 OFFCURVE",
"113 345 OFFCURVE",
"113 257 CURVE SMOOTH",
"113 154 LINE SMOOTH",
"113 100 OFFCURVE",
"113 -10 OFFCURVE",
"190 -10 CURVE SMOOTH"
);
},
{
closed = 1;
nodes = (
"230 436 OFFCURVE",
"239 486 OFFCURVE",
"250 562 CURVE",
"259 571 LINE",
"392 571 LINE SMOOTH",
"426 571 OFFCURVE",
"494 546 OFFCURVE",
"494 499 CURVE SMOOTH",
"494 441 OFFCURVE",
"372 358 OFFCURVE",
"322 358 CURVE SMOOTH",
"230 358 LINE"
);
}
);
width = 644;
}
);
unicode = 00DE;
},
{
glyphname = R;
lastChange = "2021-10-16 03:32:22 +0000";
layers = (
{
background = {
hints = (
{
horizontal = 1;
place = "{599, 79}";
type = Stem;
},
{
place = "{123, 71}";
type = Stem;
},
{
place = "{539, 69}";
type = Stem;
}
);
paths = (
{
closed = 1;
nodes = (
"160 0 OFFCURVE",
"170 12 OFFCURVE",
"176 34 CURVE SMOOTH",
"179 46 OFFCURVE",
"181 59 OFFCURVE",
"182 71 CURVE SMOOTH",
"183 84 OFFCURVE",
"182 97 OFFCURVE",
"183 107 CURVE SMOOTH",
"210 588 LINE SMOOTH",
"210 596 OFFCURVE",
"216 601 OFFCURVE",
"222 601 CURVE SMOOTH",
"285 601 LINE SMOOTH",
"327 601 OFFCURVE",
"386 598 OFFCURVE",
"425 587 CURVE SMOOTH",
"473 574 OFFCURVE",
"539 535 OFFCURVE",
"539 473 CURVE SMOOTH",
"539 435 OFFCURVE",
"499 402 OFFCURVE",
"471 384 CURVE SMOOTH",
"443 367 OFFCURVE",
"407 356 OFFCURVE",
"374 346 CURVE SMOOTH",
"340 337 OFFCURVE",
"307 328 OFFCURVE",
"282 318 CURVE SMOOTH",
"256 307 OFFCURVE",
"247 314 OFFCURVE",
"247 305 CURVE SMOOTH",
"247 290 OFFCURVE",
"264 270 OFFCURVE",
"293 247 CURVE SMOOTH",
"321 225 OFFCURVE",
"353 207 OFFCURVE",
"371 191 CURVE SMOOTH",
"433 137 OFFCURVE",
"466 102 OFFCURVE",
"497 47 CURVE SMOOTH",
"501 40 OFFCURVE",
"507 35 OFFCURVE",
"511 31 CURVE SMOOTH",
"513 29 OFFCURVE",
"515 27 OFFCURVE",
"516 25 CURVE",
"517 25 OFFCURVE",
"518 24 OFFCURVE",
"518 24 CURVE",
"519 23 OFFCURVE",
"528 21 OFFCURVE",
"535 21 CURVE SMOOTH",
"564 21 OFFCURVE",
"578 36 OFFCURVE",
"578 64 CURVE SMOOTH",
"578 97 OFFCURVE",
"548 136 OFFCURVE",
"520 164 CURVE SMOOTH",
"475 213 LINE SMOOTH",
"460 229 OFFCURVE",
"443 242 OFFCURVE",
"428 256 CURVE SMOOTH",
"401 280 LINE",
"428 290 LINE SMOOTH",
"527 327 OFFCURVE",
"616 365 OFFCURVE",
"616 469 CURVE SMOOTH",
"616 479 OFFCURVE",
"615 489 OFFCURVE",
"613 498 CURVE SMOOTH",
"588 636 OFFCURVE",
"419 678 OFFCURVE",
"278 678 CURVE SMOOTH",
"248 678 OFFCURVE",
"189 678 OFFCURVE",
"138 667 CURVE SMOOTH",
"84 655 OFFCURVE",
"53 634 OFFCURVE",
"53 619 CURVE SMOOTH",
"53 595 OFFCURVE",
"74 585 OFFCURVE",
"104 576 CURVE SMOOTH",
"114 573 LINE",
"116 563 LINE SMOOTH",
"123 529 OFFCURVE",
"122 495 OFFCURVE",
"122 461 CURVE SMOOTH",
"122 339 OFFCURVE",
"102 218 OFFCURVE",
"102 96 CURVE SMOOTH",
"102 77 OFFCURVE",
"102 57 OFFCURVE",
"103 38 CURVE SMOOTH",
"103 36 OFFCURVE",
"104 34 OFFCURVE",
"105 32 CURVE SMOOTH",
"114 9 OFFCURVE",
"118 0 OFFCURVE",
"141 0 CURVE SMOOTH"
);
}
);
};
layerId = "8F40E529-D5F5-4815-B22D-63C5267C70E2";
paths = (
{
closed = 1;
nodes = (
"160 0 OFFCURVE",
"170 12 OFFCURVE",
"176 34 CURVE SMOOTH",
"179 46 OFFCURVE",
"181 59 OFFCURVE",
"182 71 CURVE SMOOTH",
"183 84 OFFCURVE",
"182 97 OFFCURVE",
"183 107 CURVE SMOOTH",
"210 588 LINE SMOOTH",
"210 596 OFFCURVE",
"216 601 OFFCURVE",
"222 601 CURVE SMOOTH",
"285 601 LINE SMOOTH",
"327 601 OFFCURVE",
"386 598 OFFCURVE",
"425 587 CURVE SMOOTH",
"473 574 OFFCURVE",
"539 535 OFFCURVE",
"539 473 CURVE SMOOTH",
"539 435 OFFCURVE",
"499 402 OFFCURVE",
"471 384 CURVE SMOOTH",
"443 367 OFFCURVE",
"407 356 OFFCURVE",
"374 346 CURVE SMOOTH",
"340 337 OFFCURVE",
"307 328 OFFCURVE",
"282 318 CURVE SMOOTH",
"256 307 OFFCURVE",
"247 314 OFFCURVE",
"247 305 CURVE SMOOTH",
"247 290 OFFCURVE",
"264 270 OFFCURVE",
"293 247 CURVE SMOOTH",
"321 225 OFFCURVE",
"353 207 OFFCURVE",
"371 191 CURVE SMOOTH",
"433 137 OFFCURVE",
"466 102 OFFCURVE",
"497 47 CURVE SMOOTH",
"501 40 OFFCURVE",
"507 35 OFFCURVE",
"511 31 CURVE SMOOTH",
"513 29 OFFCURVE",
"515 27 OFFCURVE",
"516 25 CURVE",
"517 25 OFFCURVE",
"518 24 OFFCURVE",
"518 24 CURVE",
"519 23 OFFCURVE",
"528 21 OFFCURVE",
"535 21 CURVE SMOOTH",
"564 21 OFFCURVE",
"578 36 OFFCURVE",
"578 64 CURVE SMOOTH",
"578 97 OFFCURVE",
"548 136 OFFCURVE",
"520 164 CURVE SMOOTH",
"475 213 LINE SMOOTH",
"460 229 OFFCURVE",
"443 242 OFFCURVE",
"428 256 CURVE SMOOTH",
"401 280 LINE",
"428 290 LINE SMOOTH",
"527 327 OFFCURVE",
"616 365 OFFCURVE",
"616 469 CURVE SMOOTH",
"616 479 OFFCURVE",
"615 489 OFFCURVE",
"613 498 CURVE SMOOTH",
"588 636 OFFCURVE",
"419 678 OFFCURVE",
"278 678 CURVE SMOOTH",
"248 678 OFFCURVE",
"189 678 OFFCURVE",
"138 667 CURVE SMOOTH",
"84 655 OFFCURVE",
"53 634 OFFCURVE",
"53 619 CURVE SMOOTH",
"53 595 OFFCURVE",
"74 585 OFFCURVE",
"104 576 CURVE SMOOTH",
"114 573 LINE",
"116 563 LINE SMOOTH",
"123 529 OFFCURVE",
"122 495 OFFCURVE",
"122 461 CURVE SMOOTH",
"122 339 OFFCURVE",
"102 218 OFFCURVE",
"102 96 CURVE SMOOTH",
"102 77 OFFCURVE",
"102 57 OFFCURVE",
"103 38 CURVE SMOOTH",
"103 36 OFFCURVE",
"104 34 OFFCURVE",
"105 32 CURVE SMOOTH",
"114 9 OFFCURVE",
"118 0 OFFCURVE",
"141 0 CURVE SMOOTH"
);
}
);
width = 663;
},
{
background = {
paths = (
{
closed = 1;
nodes = (
"529 306 OFFCURVE",
"579 336 OFFCURVE",
"604 395 CURVE SMOOTH",
"613 415 OFFCURVE",
"608 438 OFFCURVE",
"608 459 CURVE SMOOTH",
"608 500 LINE",
"567 645 OFFCURVE",
"434 678 OFFCURVE",
"302 678 CURVE SMOOTH",
"246 678 OFFCURVE",
"54 682 OFFCURVE",
"54 593 CURVE SMOOTH",
"54 560 OFFCURVE",
"80 546 OFFCURVE",
"112 538 CURVE",
"118 501 OFFCURVE",
"118 471 OFFCURVE",
"118 444 CURVE SMOOTH",
"118 329 OFFCURVE",
"99 215 OFFCURVE",
"99 100 CURVE SMOOTH",
"99 46 LINE",
"109 13 OFFCURVE",
"125 -5 OFFCURVE",
"159 -5 CURVE SMOOTH",
"215 -5 OFFCURVE",
"212 73 OFFCURVE",
"214 110 CURVE SMOOTH",
"239 557 LINE",
"243 561 LINE",
"292 561 LINE SMOOTH",
"355 561 OFFCURVE",
"502 562 OFFCURVE",
"502 464 CURVE SMOOTH",
"502 350 OFFCURVE",
"241 372 OFFCURVE",
"241 297 CURVE SMOOTH",
"241 250 OFFCURVE",
"337 205 OFFCURVE",
"365 178 CURVE",
"395 155 OFFCURVE",
"440 106 OFFCURVE",
"463 72 CURVE SMOOTH",
"478 52 OFFCURVE",
"491 38 OFFCURVE",
"508 20 CURVE",
"518 16 OFFCURVE",
"523 15 OFFCURVE",
"533 15 CURVE SMOOTH",
"568 15 OFFCURVE",
"589 35 OFFCURVE",
"589 70 CURVE SMOOTH",
"589 105 OFFCURVE",
"559 145 OFFCURVE",
"529 175 CURVE SMOOTH",
"501 203 OFFCURVE",
"473 234 OFFCURVE",
"441 258 CURVE",
"441 263 LINE SMOOTH",
"441 272 OFFCURVE",
"467 278 OFFCURVE",
"476 281 CURVE"
);
}
);
};
layerId = "33ACAFD4-38EF-4E3F-A654-B3CAAACD5815";
paths = (
{
closed = 1;
nodes = (
"215 -5 OFFCURVE",
"212 73 OFFCURVE",
"214 110 CURVE SMOOTH",
"239 557 LINE",
"243 561 LINE",
"292 561 LINE SMOOTH",
"355 561 OFFCURVE",
"502 562 OFFCURVE",
"502 464 CURVE SMOOTH",
"502 350 OFFCURVE",
"241 372 OFFCURVE",
"241 297 CURVE SMOOTH",
"241 250 OFFCURVE",
"337 205 OFFCURVE",
"365 178 CURVE",
"395 155 OFFCURVE",
"440 106 OFFCURVE",
"463 72 CURVE SMOOTH",
"478 52 OFFCURVE",
"491 38 OFFCURVE",
"508 20 CURVE",
"518 16 OFFCURVE",
"523 15 OFFCURVE",
"533 15 CURVE SMOOTH",
"568 15 OFFCURVE",
"589 35 OFFCURVE",
"589 70 CURVE SMOOTH",
"589 105 OFFCURVE",
"559 145 OFFCURVE",
"529 175 CURVE SMOOTH",
"501 203 OFFCURVE",
"473 234 OFFCURVE",
"441 258 CURVE",
"441 263 LINE SMOOTH",
"441 272 OFFCURVE",
"467 278 OFFCURVE",
"476 281 CURVE",
"529 306 OFFCURVE",
"579 336 OFFCURVE",
"604 395 CURVE SMOOTH",
"608 404 OFFCURVE",
"609 415 OFFCURVE",
"609 425 CURVE SMOOTH",
"609 436 OFFCURVE",
"608 448 OFFCURVE",
"608 459 CURVE SMOOTH",
"608 500 LINE",
"567 645 OFFCURVE",
"434 678 OFFCURVE",
"302 678 CURVE SMOOTH",
"246 678 OFFCURVE",
"54 682 OFFCURVE",
"54 593 CURVE SMOOTH",
"54 560 OFFCURVE",
"80 546 OFFCURVE",
"112 538 CURVE",
"118 501 OFFCURVE",
"118 471 OFFCURVE",
"118 444 CURVE SMOOTH",
"118 329 OFFCURVE",
"99 215 OFFCURVE",
"99 100 CURVE SMOOTH",
"99 46 LINE",
"109 13 OFFCURVE",
"125 -5 OFFCURVE",
"159 -5 CURVE SMOOTH"
);
}
);
width = 663;
}
);
note = R;
unicode = 0052;
},
{
glyphname = S;
lastChange = "2021-10-16 03:32:22 +0000";
layers = (
{
background = {
paths = (
{
closed = 1;
nodes = (
"406 0 OFFCURVE",
"525 69 OFFCURVE",
"525 189 CURVE SMOOTH",
"525 286 OFFCURVE",
"455 332 OFFCURVE",
"372 372 CURVE SMOOTH",
"352 382 OFFCURVE",
"331 391 OFFCURVE",
"312 401 CURVE SMOOTH",
"292 411 OFFCURVE",
"273 421 OFFCURVE",
"257 431 CURVE SMOOTH",
"224 453 OFFCURVE",
"196 483 OFFCURVE",
"196 526 CURVE SMOOTH",
"196 576 OFFCURVE",
"256 610 OFFCURVE",
"314 610 CURVE SMOOTH",
"365 610 OFFCURVE",
"395 592 OFFCURVE",
"420 575 CURVE SMOOTH",
"442 560 OFFCURVE",
"459 547 OFFCURVE",
"488 547 CURVE SMOOTH",
"508 547 OFFCURVE",
"525 564 OFFCURVE",
"525 583 CURVE SMOOTH",
"525 651 OFFCURVE",
"399 678 OFFCURVE",
"338 678 CURVE SMOOTH",
"208 678 OFFCURVE",
"120 621 OFFCURVE",
"120 520 CURVE SMOOTH",
"120 387 OFFCURVE",
"214 372 OFFCURVE",
"384 279 CURVE SMOOTH",
"415 262 OFFCURVE",
"444 231 OFFCURVE",
"444 189 CURVE SMOOTH",
"444 104 OFFCURVE",
"370 73 OFFCURVE",
"272 73 CURVE SMOOTH",
"169 73 OFFCURVE",
"134 154 OFFCURVE",
"112 220 CURVE",
"104 232 OFFCURVE",
"83 236 OFFCURVE",
"78 236 CURVE SMOOTH",
"53 236 OFFCURVE",
"45 223 OFFCURVE",
"45 195 CURVE SMOOTH",
"45 83 OFFCURVE",
"134 0 OFFCURVE",
"283 0 CURVE SMOOTH"
);
}
);
};
layerId = "8F40E529-D5F5-4815-B22D-63C5267C70E2";
paths = (
{
closed = 1;
nodes = (
"406 0 OFFCURVE",
"525 69 OFFCURVE",
"525 189 CURVE SMOOTH",
"525 286 OFFCURVE",
"455 332 OFFCURVE",
"372 372 CURVE SMOOTH",
"352 382 OFFCURVE",
"331 391 OFFCURVE",
"312 401 CURVE SMOOTH",
"292 411 OFFCURVE",
"273 421 OFFCURVE",
"257 431 CURVE SMOOTH",
"224 453 OFFCURVE",
"196 483 OFFCURVE",
"196 526 CURVE SMOOTH",
"196 576 OFFCURVE",
"256 610 OFFCURVE",
"314 610 CURVE SMOOTH",
"365 610 OFFCURVE",
"395 592 OFFCURVE",
"420 575 CURVE SMOOTH",
"442 560 OFFCURVE",
"459 547 OFFCURVE",
"488 547 CURVE SMOOTH",
"508 547 OFFCURVE",
"525 564 OFFCURVE",
"525 583 CURVE SMOOTH",
"525 651 OFFCURVE",
"399 678 OFFCURVE",
"338 678 CURVE SMOOTH",
"208 678 OFFCURVE",
"120 621 OFFCURVE",
"120 520 CURVE SMOOTH",
"120 387 OFFCURVE",
"214 372 OFFCURVE",
"384 279 CURVE SMOOTH",
"415 262 OFFCURVE",
"444 231 OFFCURVE",
"444 189 CURVE SMOOTH",
"444 104 OFFCURVE",
"370 73 OFFCURVE",
"272 73 CURVE SMOOTH",
"169 73 OFFCURVE",
"134 154 OFFCURVE",
"112 220 CURVE",
"104 232 OFFCURVE",
"83 236 OFFCURVE",
"78 236 CURVE SMOOTH",
"53 236 OFFCURVE",
"45 223 OFFCURVE",
"45 195 CURVE SMOOTH",
"45 83 OFFCURVE",
"134 0 OFFCURVE",
"283 0 CURVE SMOOTH"
);
}
);
width = 584;
},
{
background = {
paths = (
{
closed = 1;
nodes = (
"400 0 OFFCURVE",
"525 69 OFFCURVE",
"525 199 CURVE SMOOTH",
"525 407 OFFCURVE",
"224 393 OFFCURVE",
"224 514 CURVE SMOOTH",
"224 535 OFFCURVE",
"249 557 OFFCURVE",
"283 571 CURVE",
"312 571 LINE SMOOTH",
"390 571 OFFCURVE",
"406 513 OFFCURVE",
"470 513 CURVE SMOOTH",
"499 513 OFFCURVE",
"525 538 OFFCURVE",
"525 568 CURVE SMOOTH",
"525 657 OFFCURVE",
"362 678 OFFCURVE",
"307 678 CURVE SMOOTH",
"208 678 OFFCURVE",
"113 619 OFFCURVE",
"113 509 CURVE SMOOTH",
"113 380 OFFCURVE",
"224 336 OFFCURVE",
"317 291 CURVE SMOOTH",
"352 273 OFFCURVE",
"409 246 OFFCURVE",
"409 199 CURVE SMOOTH",
"409 133 OFFCURVE",
"313 102 OFFCURVE",
"263 116 CURVE SMOOTH",
"174 141 OFFCURVE",
"145 203 OFFCURVE",
"135 239 CURVE",
"124 254 OFFCURVE",
"109 264 OFFCURVE",
"96 264 CURVE SMOOTH",
"57 264 OFFCURVE",
"45 236 OFFCURVE",
"45 204 CURVE SMOOTH",
"45 164 OFFCURVE",
"55 140 OFFCURVE",
"75 104 CURVE",
"140 34 OFFCURVE",
"190 0 OFFCURVE",
"283 0 CURVE SMOOTH"
);
}
);
};
layerId = "33ACAFD4-38EF-4E3F-A654-B3CAAACD5815";
paths = (
{
closed = 1;
nodes = (
"400 0 OFFCURVE",
"525 69 OFFCURVE",
"525 199 CURVE SMOOTH",
"525 407 OFFCURVE",
"224 393 OFFCURVE",
"224 514 CURVE SMOOTH",
"224 535 OFFCURVE",
"249 557 OFFCURVE",
"283 571 CURVE",
"312 571 LINE SMOOTH",
"390 571 OFFCURVE",
"406 513 OFFCURVE",
"470 513 CURVE SMOOTH",
"499 513 OFFCURVE",
"525 538 OFFCURVE",
"525 568 CURVE SMOOTH",
"525 657 OFFCURVE",
"362 678 OFFCURVE",
"307 678 CURVE SMOOTH",
"208 678 OFFCURVE",
"113 619 OFFCURVE",
"113 509 CURVE SMOOTH",
"113 380 OFFCURVE",
"224 336 OFFCURVE",
"317 291 CURVE SMOOTH",
"352 273 OFFCURVE",
"409 246 OFFCURVE",
"409 199 CURVE SMOOTH",
"409 143 OFFCURVE",
"341 113 OFFCURVE",
"290 113 CURVE SMOOTH",
"280 113 OFFCURVE",
"271 114 OFFCURVE",
"263 116 CURVE SMOOTH",
"174 141 OFFCURVE",
"145 203 OFFCURVE",
"135 239 CURVE",
"124 254 OFFCURVE",
"109 264 OFFCURVE",
"96 264 CURVE SMOOTH",
"57 264 OFFCURVE",
"45 236 OFFCURVE",
"45 204 CURVE SMOOTH",
"45 164 OFFCURVE",
"55 140 OFFCURVE",
"75 104 CURVE",
"140 34 OFFCURVE",
"190 0 OFFCURVE",
"283 0 CURVE SMOOTH"
);
}
);
width = 584;
}
);
note = S;
unicode = 0053;
},
{
color = 3;
glyphname = Germandbls;
lastChange = "2021-10-16 03:32:22 +0000";
layers = (
{
background = {
paths = (
{
closed = 1;
nodes = (
"217 -40 OFFCURVE",
"219 -7 OFFCURVE",
"219 19 CURVE SMOOTH",
"219 53 OFFCURVE",
"213 124 OFFCURVE",
"213 171 CURVE SMOOTH",
"213 194 OFFCURVE",
"218 278 OFFCURVE",
"221 390 CURVE SMOOTH",
"225 521 OFFCURVE",
"246 661 OFFCURVE",
"280 680 CURVE SMOOTH",
"302 693 OFFCURVE",
"344 695 OFFCURVE",
"384 695 CURVE SMOOTH",
"404 695 OFFCURVE",
"424 695 OFFCURVE",
"441 694 CURVE SMOOTH",
"523 691 OFFCURVE",
"567 685 OFFCURVE",
"567 646 CURVE SMOOTH",
"567 610 OFFCURVE",
"499 553 OFFCURVE",
"464 529 CURVE SMOOTH",
"385 475 OFFCURVE",
"322 446 OFFCURVE",
"322 390 CURVE SMOOTH",
"322 315 OFFCURVE",
"379 286 OFFCURVE",
"452 262 CURVE SMOOTH",
"470 256 OFFCURVE",
"488 251 OFFCURVE",
"505 246 CURVE SMOOTH",
"523 240 OFFCURVE",
"540 234 OFFCURVE",
"554 227 CURVE SMOOTH",
"583 214 OFFCURVE",
"612 192 OFFCURVE",
"612 140 CURVE SMOOTH",
"612 70 OFFCURVE",
"519 44 OFFCURVE",
"459 44 CURVE SMOOTH",
"372 44 OFFCURVE",
"364 94 OFFCURVE",
"334 94 CURVE SMOOTH",
"324 94 OFFCURVE",
"318 83 OFFCURVE",
"318 61 CURVE SMOOTH",
"318 -8 OFFCURVE",
"403 -15 OFFCURVE",
"475 -15 CURVE SMOOTH",
"586 -15 OFFCURVE",
"683 31 OFFCURVE",
"683 145 CURVE SMOOTH",
"683 221 OFFCURVE",
"624 270 OFFCURVE",
"552 297 CURVE SMOOTH",
"515 311 OFFCURVE",
"479 321 OFFCURVE",
"451 332 CURVE SMOOTH",
"412 349 OFFCURVE",
"395 362 OFFCURVE",
"395 375 CURVE SMOOTH",
"395 398 OFFCURVE",
"446 423 OFFCURVE",
"513 473 CURVE SMOOTH",
"573 518 OFFCURVE",
"659 576 OFFCURVE",
"659 673 CURVE SMOOTH",
"659 727 OFFCURVE",
"582 754 OFFCURVE",
"528 756 CURVE SMOOTH",
"485 758 OFFCURVE",
"454 759 OFFCURVE",
"423 759 CURVE SMOOTH",
"393 759 OFFCURVE",
"362 758 OFFCURVE",
"318 757 CURVE SMOOTH",
"232 755 OFFCURVE",
"200 723 OFFCURVE",
"183 666 CURVE SMOOTH",
"160 591 OFFCURVE",
"154 474 OFFCURVE",
"154 335 CURVE SMOOTH",
"154 251 OFFCURVE",
"149 174 OFFCURVE",
"149 91 CURVE SMOOTH",
"149 1 LINE SMOOTH",
"149 -20 OFFCURVE",
"169 -40 OFFCURVE",
"186 -40 CURVE SMOOTH"
);
}
);
};
layerId = "8F40E529-D5F5-4815-B22D-63C5267C70E2";
paths = (
{
closed = 1;
nodes = (
"217 -40 OFFCURVE",
"219 -7 OFFCURVE",
"219 19 CURVE SMOOTH",
"219 53 OFFCURVE",
"213 124 OFFCURVE",
"213 171 CURVE SMOOTH",
"213 194 OFFCURVE",
"218 278 OFFCURVE",
"221 390 CURVE SMOOTH",
"225 521 OFFCURVE",
"246 661 OFFCURVE",
"280 680 CURVE SMOOTH",
"302 693 OFFCURVE",
"344 695 OFFCURVE",
"384 695 CURVE SMOOTH",
"404 695 OFFCURVE",
"424 695 OFFCURVE",
"441 694 CURVE SMOOTH",
"523 691 OFFCURVE",
"567 685 OFFCURVE",
"567 646 CURVE SMOOTH",
"567 610 OFFCURVE",
"499 553 OFFCURVE",
"464 529 CURVE SMOOTH",
"385 475 OFFCURVE",
"322 446 OFFCURVE",
"322 390 CURVE SMOOTH",
"322 315 OFFCURVE",
"379 286 OFFCURVE",
"452 262 CURVE SMOOTH",
"470 256 OFFCURVE",
"488 251 OFFCURVE",
"505 246 CURVE SMOOTH",
"523 240 OFFCURVE",
"540 234 OFFCURVE",
"554 227 CURVE SMOOTH",
"583 214 OFFCURVE",
"612 192 OFFCURVE",
"612 140 CURVE SMOOTH",
"612 70 OFFCURVE",
"519 44 OFFCURVE",
"459 44 CURVE SMOOTH",
"372 44 OFFCURVE",
"364 94 OFFCURVE",
"334 94 CURVE SMOOTH",
"324 94 OFFCURVE",
"318 83 OFFCURVE",
"318 61 CURVE SMOOTH",
"318 -8 OFFCURVE",
"403 -15 OFFCURVE",
"475 -15 CURVE SMOOTH",
"586 -15 OFFCURVE",
"683 31 OFFCURVE",
"683 145 CURVE SMOOTH",
"683 221 OFFCURVE",
"624 270 OFFCURVE",
"552 297 CURVE SMOOTH",
"515 311 OFFCURVE",
"479 321 OFFCURVE",
"451 332 CURVE SMOOTH",
"412 349 OFFCURVE",
"395 362 OFFCURVE",
"395 375 CURVE SMOOTH",
"395 398 OFFCURVE",
"446 423 OFFCURVE",
"513 473 CURVE SMOOTH",
"573 518 OFFCURVE",
"659 576 OFFCURVE",
"659 673 CURVE SMOOTH",
"659 727 OFFCURVE",
"582 754 OFFCURVE",
"528 756 CURVE SMOOTH",
"485 758 OFFCURVE",
"454 759 OFFCURVE",
"423 759 CURVE SMOOTH",
"393 759 OFFCURVE",
"362 758 OFFCURVE",
"318 757 CURVE SMOOTH",
"232 755 OFFCURVE",
"200 723 OFFCURVE",
"183 666 CURVE SMOOTH",
"160 591 OFFCURVE",
"154 474 OFFCURVE",
"154 335 CURVE SMOOTH",
"154 251 OFFCURVE",
"149 174 OFFCURVE",
"149 91 CURVE SMOOTH",
"149 1 LINE SMOOTH",
"149 -20 OFFCURVE",
"169 -40 OFFCURVE",
"186 -40 CURVE SMOOTH"
);
}
);
width = 703;
},
{
background = {
paths = (
{
closed = 1;
nodes = (
"430 380 OFFCURVE",
"468 405 OFFCURVE",
"501 430 CURVE SMOOTH",
"530 452 OFFCURVE",
"582 495 OFFCURVE",
"628 545 CURVE SMOOTH",
"714 639 OFFCURVE",
"652 757 OFFCURVE",
"514 757 CURVE SMOOTH",
"447 757 OFFCURVE",
"390 757 OFFCURVE",
"302 757 CURVE SMOOTH",
"213 757 OFFCURVE",
"186 717 OFFCURVE",
"175 674 CURVE SMOOTH",
"151 584 OFFCURVE",
"144 340 OFFCURVE",
"144 336 CURVE SMOOTH",
"144 257 OFFCURVE",
"139 184 OFFCURVE",
"139 105 CURVE SMOOTH",
"139 21 LINE SMOOTH",
"139 -10 OFFCURVE",
"165 -40 OFFCURVE",
"193 -40 CURVE SMOOTH",
"243 -40 OFFCURVE",
"244 9 OFFCURVE",
"244 45 CURVE SMOOTH",
"244 80 OFFCURVE",
"239 119 OFFCURVE",
"239 159 CURVE SMOOTH",
"239 157 OFFCURVE",
"242 418 OFFCURVE",
"264 598 CURVE SMOOTH",
"272 657 OFFCURVE",
"310 669 OFFCURVE",
"359 669 CURVE SMOOTH",
"399 669 OFFCURVE",
"447 669 OFFCURVE",
"471 669 CURVE SMOOTH",
"523 669 OFFCURVE",
"571 628 OFFCURVE",
"522 583 CURVE SMOOTH",
"494 557 OFFCURVE",
"455 535 OFFCURVE",
"415 504 CURVE SMOOTH",
"382 478 OFFCURVE",
"325 450 OFFCURVE",
"325 355 CURVE SMOOTH",
"325 186 OFFCURVE",
"587 229 OFFCURVE",
"587 137 CURVE SMOOTH",
"587 84 OFFCURVE",
"514 70 OFFCURVE",
"469 70 CURVE SMOOTH",
"404 70 OFFCURVE",
"387 102 OFFCURVE",
"371 128 CURVE SMOOTH",
"340 176 OFFCURVE",
"257 75 OFFCURVE",
"324 18 CURVE SMOOTH",
"364 -16 OFFCURVE",
"442 -26 OFFCURVE",
"484 -26 CURVE SMOOTH",
"587 -26 OFFCURVE",
"692 19 OFFCURVE",
"692 142 CURVE SMOOTH",
"692 310 OFFCURVE",
"430 300 OFFCURVE",
"430 360 CURVE SMOOTH"
);
}
);
};
layerId = "33ACAFD4-38EF-4E3F-A654-B3CAAACD5815";
paths = (
{
closed = 1;
nodes = (
"243 -40 OFFCURVE",
"244 9 OFFCURVE",
"244 45 CURVE SMOOTH",
"244 80 OFFCURVE",
"239 119 OFFCURVE",
"239 159 CURVE SMOOTH",
"239 157 OFFCURVE",
"242 418 OFFCURVE",
"264 598 CURVE SMOOTH",
"272 657 OFFCURVE",
"310 669 OFFCURVE",
"359 669 CURVE SMOOTH",
"471 669 LINE SMOOTH",
"508 669 OFFCURVE",
"542 649 OFFCURVE",
"542 621 CURVE SMOOTH",
"542 609 OFFCURVE",
"536 596 OFFCURVE",
"522 583 CURVE SMOOTH",
"494 557 OFFCURVE",
"455 535 OFFCURVE",
"415 504 CURVE SMOOTH",
"382 478 OFFCURVE",
"325 450 OFFCURVE",
"325 355 CURVE SMOOTH",
"325 186 OFFCURVE",
"587 229 OFFCURVE",
"587 137 CURVE SMOOTH",
"587 84 OFFCURVE",
"514 70 OFFCURVE",
"469 70 CURVE SMOOTH",
"404 70 OFFCURVE",
"387 102 OFFCURVE",
"371 128 CURVE SMOOTH",
"365 137 OFFCURVE",
"358 141 OFFCURVE",
"350 141 CURVE SMOOTH",
"326 141 OFFCURVE",
"299 107 OFFCURVE",
"299 71 CURVE SMOOTH",
"299 53 OFFCURVE",
"306 34 OFFCURVE",
"324 18 CURVE SMOOTH",
"364 -16 OFFCURVE",
"442 -26 OFFCURVE",
"484 -26 CURVE SMOOTH",
"587 -26 OFFCURVE",
"692 19 OFFCURVE",
"692 142 CURVE SMOOTH",
"692 310 OFFCURVE",
"430 300 OFFCURVE",
"430 360 CURVE SMOOTH",
"430 380 OFFCURVE",
"468 405 OFFCURVE",
"501 430 CURVE SMOOTH",
"530 452 OFFCURVE",
"582 495 OFFCURVE",
"628 545 CURVE SMOOTH",
"655 575 OFFCURVE",
"667 607 OFFCURVE",
"667 636 CURVE SMOOTH",
"667 702 OFFCURVE",
"609 757 OFFCURVE",
"514 757 CURVE SMOOTH",
"302 757 LINE SMOOTH",
"213 757 OFFCURVE",
"186 717 OFFCURVE",
"175 674 CURVE SMOOTH",
"151 584 OFFCURVE",
"144 340 OFFCURVE",
"144 336 CURVE SMOOTH",
"144 257 OFFCURVE",
"139 184 OFFCURVE",
"139 105 CURVE SMOOTH",
"139 21 LINE SMOOTH",
"139 -10 OFFCURVE",
"165 -40 OFFCURVE",
"193 -40 CURVE SMOOTH"
);
}
);
width = 742;
}
);
unicode = 1E9E;
},
{
glyphname = Schwa;
lastChange = "2021-10-16 03:32:22 +0000";
layers = (
{
background = {
components = (
{
alignment = -1;
name = e;
transform = "{-1.17478, 0, 0, -1.22483, 657, 639}";
}
);
};
components = (
{
alignment = -1;
name = e;
transform = "{-1.17478, 0, 0, -1.22483, 657, 639}";
}
);
layerId = "8F40E529-D5F5-4815-B22D-63C5267C70E2";
width = 668;
},
{
background = {
paths = (
{
closed = 1;
nodes = (
"203 448 OFFCURVE",
"69.61 325.444 OFFCURVE",
"69.61 173.565 CURVE SMOOTH",
"69.61 57.206 OFFCURVE",
"163.592 -10.16 OFFCURVE",
"266.973 -10.16 CURVE SMOOTH",
"470.21 -10.16 OFFCURVE",
"598.261 189.487 OFFCURVE",
"598.261 384.235 CURVE SMOOTH",
"598.261 578.983 OFFCURVE",
"452.588 657.372 OFFCURVE",
"284.595 657.372 CURVE SMOOTH",
"238.778 657.372 OFFCURVE",
"138.922 663.497 OFFCURVE",
"138.922 590.007 CURVE SMOOTH",
"138.922 545.913 OFFCURVE",
"168 531 OFFCURVE",
"202 534 CURVE SMOOTH",
"330 546 OFFCURVE",
"445 538 OFFCURVE",
"470 428 CURVE",
"434 442 OFFCURVE",
"367 448 OFFCURVE",
"342 448 CURVE SMOOTH"
);
},
{
closed = 1;
nodes = (
"221 99 OFFCURVE",
"192 130 OFFCURVE",
"192 208 CURVE SMOOTH",
"192 302 OFFCURVE",
"328 389 OFFCURVE",
"475 312 CURVE",
"475 189 OFFCURVE",
"350 100 OFFCURVE",
"267 99 CURVE SMOOTH"
);
}
);
};
layerId = "33ACAFD4-38EF-4E3F-A654-B3CAAACD5815";
paths = (
{
closed = 1;
nodes = (
"470 -10 OFFCURVE",
"598 189 OFFCURVE",
"598 384 CURVE SMOOTH",
"598 579 OFFCURVE",
"453 657 OFFCURVE",
"285 657 CURVE SMOOTH",
"239 657 OFFCURVE",
"139 663 OFFCURVE",
"139 590 CURVE SMOOTH",
"139 546 OFFCURVE",
"168 531 OFFCURVE",
"202 534 CURVE SMOOTH",
"229 537 OFFCURVE",
"255 538 OFFCURVE",
"280 538 CURVE SMOOTH",
"374 538 OFFCURVE",
"450 515 OFFCURVE",
"470 428 CURVE",
"434 442 OFFCURVE",
"367 448 OFFCURVE",
"342 448 CURVE SMOOTH",
"203 448 OFFCURVE",
"70 325 OFFCURVE",
"70 174 CURVE SMOOTH",
"70 57 OFFCURVE",
"164 -10 OFFCURVE",
"267 -10 CURVE SMOOTH"
);
},
{
closed = 1;
nodes = (
"221 99 OFFCURVE",
"192 130 OFFCURVE",
"192 208 CURVE SMOOTH",
"192 277 OFFCURVE",
"265 342 OFFCURVE",
"361 342 CURVE SMOOTH",
"397 342 OFFCURVE",
"435 333 OFFCURVE",
"475 312 CURVE",
"475 189 OFFCURVE",
"350 100 OFFCURVE",
"267 99 CURVE SMOOTH"
);
}
);
width = 668;
}
);
unicode = 018F;
},
{
glyphname = T;
lastChange = "2021-10-16 03:32:22 +0000";
layers = (
{
background = {
paths = (
{
closed = 1;
nodes = (
"287 20 OFFCURVE",
"304 25 OFFCURVE",
"313 38 CURVE SMOOTH",
"322 52 OFFCURVE",
"329 69 OFFCURVE",
"333 85 CURVE SMOOTH",
"360 187 OFFCURVE",
"369 449 OFFCURVE",
"369 576 CURVE SMOOTH",
"369 587 OFFCURVE",
"376 595 OFFCURVE",
"385 595 CURVE SMOOTH",
"467 595 OFFCURVE",
"515 595 OFFCURVE",
"560 583 CURVE SMOOTH",
"572 580 OFFCURVE",
"582 574 OFFCURVE",
"593 569 CURVE SMOOTH",
"598 566 OFFCURVE",
"603 563 OFFCURVE",
"608 563 CURVE SMOOTH",
"624 563 OFFCURVE",
"639 581 OFFCURVE",
"639 599 CURVE SMOOTH",
"639 678 OFFCURVE",
"514 678 OFFCURVE",
"459 678 CURVE",
"373 672 OFFCURVE",
"168 665 OFFCURVE",
"114 658 CURVE SMOOTH",
"74 653 OFFCURVE",
"40 650 OFFCURVE",
"40 615 CURVE SMOOTH",
"40 593 OFFCURVE",
"48 584 OFFCURVE",
"74 579 CURVE SMOOTH",
"81 578 OFFCURVE",
"89 577 OFFCURVE",
"98 577 CURVE SMOOTH",
"112 577 OFFCURVE",
"128 578 OFFCURVE",
"141 579 CURVE SMOOTH",
"182 581 OFFCURVE",
"220 584 OFFCURVE",
"290 584 CURVE",
"290 398 OFFCURVE",
"284 245 OFFCURVE",
"248 70 CURVE SMOOTH",
"247 65 OFFCURVE",
"246 60 OFFCURVE",
"246 55 CURVE SMOOTH",
"246 31 OFFCURVE",
"261 20 OFFCURVE",
"279 20 CURVE SMOOTH"
);
}
);
};
layerId = "8F40E529-D5F5-4815-B22D-63C5267C70E2";
paths = (
{
closed = 1;
nodes = (
"287 20 OFFCURVE",
"304 25 OFFCURVE",
"313 38 CURVE SMOOTH",
"322 52 OFFCURVE",
"329 69 OFFCURVE",
"333 85 CURVE SMOOTH",
"360 187 OFFCURVE",
"369 449 OFFCURVE",
"369 576 CURVE SMOOTH",
"369 587 OFFCURVE",
"376 595 OFFCURVE",
"385 595 CURVE SMOOTH",
"467 595 OFFCURVE",
"515 595 OFFCURVE",
"560 583 CURVE SMOOTH",
"572 580 OFFCURVE",
"582 574 OFFCURVE",
"593 569 CURVE SMOOTH",
"598 566 OFFCURVE",
"603 563 OFFCURVE",
"608 563 CURVE SMOOTH",
"624 563 OFFCURVE",
"639 581 OFFCURVE",
"639 599 CURVE SMOOTH",
"639 678 OFFCURVE",
"514 678 OFFCURVE",
"459 678 CURVE",
"373 672 OFFCURVE",
"168 665 OFFCURVE",
"114 658 CURVE SMOOTH",
"74 653 OFFCURVE",
"40 650 OFFCURVE",
"40 615 CURVE SMOOTH",
"40 593 OFFCURVE",
"48 584 OFFCURVE",
"74 579 CURVE SMOOTH",
"81 578 OFFCURVE",
"89 577 OFFCURVE",
"98 577 CURVE SMOOTH",
"112 577 OFFCURVE",
"128 578 OFFCURVE",
"141 579 CURVE SMOOTH",
"182 581 OFFCURVE",
"220 584 OFFCURVE",
"290 584 CURVE",
"290 398 OFFCURVE",
"284 245 OFFCURVE",
"248 70 CURVE SMOOTH",
"247 65 OFFCURVE",
"246 60 OFFCURVE",
"246 55 CURVE SMOOTH",
"246 31 OFFCURVE",
"261 20 OFFCURVE",
"279 20 CURVE SMOOTH"
);
}
);
width = 678;
},
{
background = {
paths = (
{
closed = 1;
nodes = (
"618 527 OFFCURVE",
"639 558 OFFCURVE",
"639 583 CURVE SMOOTH",
"639 668 OFFCURVE",
"509 678 OFFCURVE",
"451 678 CURVE SMOOTH",
"411 678 LINE",
"364 673 OFFCURVE",
"181 660 OFFCURVE",
"130 654 CURVE",
"84 659 OFFCURVE",
"40 653 OFFCURVE",
"40 598 CURVE SMOOTH",
"40 564 OFFCURVE",
"59 548 OFFCURVE",
"91 542 CURVE",
"155 542 LINE SMOOTH",
"189 542 OFFCURVE",
"220 546 OFFCURVE",
"272 547 CURVE",
"271 385 OFFCURVE",
"266 248 OFFCURVE",
"237 100 CURVE",
"237 64 OFFCURVE",
"253 20 OFFCURVE",
"292 20 CURVE SMOOTH",
"310 20 OFFCURVE",
"323 31 OFFCURVE",
"333 47 CURVE SMOOTH",
"348 70 OFFCURVE",
"364 127 OFFCURVE",
"369 160 CURVE SMOOTH",
"373 189 OFFCURVE",
"383 254 OFFCURVE",
"383 312 CURVE SMOOTH",
"383 382 OFFCURVE",
"387 520 OFFCURVE",
"388 554 CURVE",
"392 557 LINE",
"431 557 LINE SMOOTH",
"465 557 OFFCURVE",
"504 557 OFFCURVE",
"539 547 CURVE SMOOTH",
"555 543 OFFCURVE",
"573 527 OFFCURVE",
"589 527 CURVE SMOOTH"
);
}
);
};
layerId = "33ACAFD4-38EF-4E3F-A654-B3CAAACD5815";
paths = (
{
closed = 1;
nodes = (
"310 20 OFFCURVE",
"323 31 OFFCURVE",
"333 47 CURVE SMOOTH",
"348 70 OFFCURVE",
"364 127 OFFCURVE",
"369 160 CURVE SMOOTH",
"373 189 OFFCURVE",
"383 254 OFFCURVE",
"383 312 CURVE SMOOTH",
"383 382 OFFCURVE",
"387 520 OFFCURVE",
"388 554 CURVE",
"392 557 LINE",
"431 557 LINE SMOOTH",
"465 557 OFFCURVE",
"504 557 OFFCURVE",
"539 547 CURVE SMOOTH",
"555 543 OFFCURVE",
"573 527 OFFCURVE",
"589 527 CURVE SMOOTH",
"618 527 OFFCURVE",
"639 558 OFFCURVE",
"639 583 CURVE SMOOTH",
"639 668 OFFCURVE",
"509 678 OFFCURVE",
"451 678 CURVE SMOOTH",
"411 678 LINE",
"364 673 OFFCURVE",
"181 660 OFFCURVE",
"130 654 CURVE",
"122 655 OFFCURVE",
"114 655 OFFCURVE",
"106 655 CURVE SMOOTH",
"70 655 OFFCURVE",
"40 643 OFFCURVE",
"40 598 CURVE SMOOTH",
"40 564 OFFCURVE",
"59 548 OFFCURVE",
"91 542 CURVE",
"155 542 LINE SMOOTH",
"189 542 OFFCURVE",
"220 546 OFFCURVE",
"272 547 CURVE",
"271 385 OFFCURVE",
"266 248 OFFCURVE",
"237 100 CURVE",
"237 64 OFFCURVE",
"253 20 OFFCURVE",
"292 20 CURVE SMOOTH"
);
}
);
width = 678;
}
);
note = T;
unicode = 0054;
},
{
glyphname = U;
lastChange = "2021-10-16 03:32:22 +0000";
layers = (
{
background = {
paths = (
{
closed = 1;
nodes = (
"269 50 OFFCURVE",
"320 80 OFFCURVE",
"363 125 CURVE SMOOTH",
"443 205 OFFCURVE",
"498 273 OFFCURVE",
"528 330 CURVE",
"528 257 OFFCURVE",
"539 175 OFFCURVE",
"543 154 CURVE SMOOTH",
"549 110 OFFCURVE",
"562 87 OFFCURVE",
"592 87 CURVE SMOOTH",
"612 87 OFFCURVE",
"628 103 OFFCURVE",
"628 124 CURVE SMOOTH",
"628 135 OFFCURVE",
"627 142 OFFCURVE",
"618 208 CURVE SMOOTH",
"609 273 OFFCURVE",
"605 337 OFFCURVE",
"605 403 CURVE SMOOTH",
"605 469 OFFCURVE",
"609 537 OFFCURVE",
"615 611 CURVE SMOOTH",
"617 633 OFFCURVE",
"601 646 OFFCURVE",
"585 646 CURVE SMOOTH",
"575 646 OFFCURVE",
"565 640 OFFCURVE",
"560 629 CURVE",
"498 407 OFFCURVE",
"459 297 OFFCURVE",
"312 175 CURVE SMOOTH",
"294 160 OFFCURVE",
"238 129 OFFCURVE",
"218 129 CURVE SMOOTH",
"161 129 OFFCURVE",
"135 239 OFFCURVE",
"135 359 CURVE SMOOTH",
"135 406 OFFCURVE",
"139 456 OFFCURVE",
"147 500 CURVE SMOOTH",
"155 544 OFFCURVE",
"166 587 OFFCURVE",
"173 620 CURVE SMOOTH",
"175 630 OFFCURVE",
"176 638 OFFCURVE",
"176 644 CURVE SMOOTH",
"176 658 OFFCURVE",
"172 664 OFFCURVE",
"164 669 CURVE SMOOTH",
"158 673 OFFCURVE",
"152 675 OFFCURVE",
"145 675 CURVE SMOOTH",
"135 675 OFFCURVE",
"125 671 OFFCURVE",
"114 665 CURVE SMOOTH",
"95 654 OFFCURVE",
"74 560 OFFCURVE",
"69 537 CURVE SMOOTH",
"58 493 OFFCURVE",
"52 436 OFFCURVE",
"52 377 CURVE SMOOTH",
"52 221 OFFCURVE",
"95 50 OFFCURVE",
"202 50 CURVE SMOOTH"
);
}
);
};
layerId = "8F40E529-D5F5-4815-B22D-63C5267C70E2";
paths = (
{
closed = 1;
nodes = (
"269 50 OFFCURVE",
"320 80 OFFCURVE",
"363 125 CURVE SMOOTH",
"443 205 OFFCURVE",
"498 273 OFFCURVE",
"528 330 CURVE",
"528 257 OFFCURVE",
"539 175 OFFCURVE",
"543 154 CURVE SMOOTH",
"549 110 OFFCURVE",
"562 87 OFFCURVE",
"592 87 CURVE SMOOTH",
"612 87 OFFCURVE",
"628 103 OFFCURVE",
"628 124 CURVE SMOOTH",
"628 135 OFFCURVE",
"627 142 OFFCURVE",
"618 208 CURVE SMOOTH",
"609 273 OFFCURVE",
"605 337 OFFCURVE",
"605 403 CURVE SMOOTH",
"605 469 OFFCURVE",
"609 537 OFFCURVE",
"615 611 CURVE SMOOTH",
"617 633 OFFCURVE",
"601 646 OFFCURVE",
"585 646 CURVE SMOOTH",
"575 646 OFFCURVE",
"565 640 OFFCURVE",
"560 629 CURVE",
"498 407 OFFCURVE",
"459 297 OFFCURVE",
"312 175 CURVE SMOOTH",
"294 160 OFFCURVE",
"238 129 OFFCURVE",
"218 129 CURVE SMOOTH",
"161 129 OFFCURVE",
"135 239 OFFCURVE",
"135 359 CURVE SMOOTH",
"135 406 OFFCURVE",
"139 456 OFFCURVE",
"147 500 CURVE SMOOTH",
"155 544 OFFCURVE",
"166 587 OFFCURVE",
"173 620 CURVE SMOOTH",
"175 630 OFFCURVE",
"176 638 OFFCURVE",
"176 644 CURVE SMOOTH",
"176 658 OFFCURVE",
"172 664 OFFCURVE",
"164 669 CURVE SMOOTH",
"158 673 OFFCURVE",
"152 675 OFFCURVE",
"145 675 CURVE SMOOTH",
"135 675 OFFCURVE",
"125 671 OFFCURVE",
"114 665 CURVE SMOOTH",
"95 654 OFFCURVE",
"74 560 OFFCURVE",
"69 537 CURVE SMOOTH",
"58 493 OFFCURVE",
"52 436 OFFCURVE",
"52 377 CURVE SMOOTH",
"52 221 OFFCURVE",
"95 50 OFFCURVE",
"202 50 CURVE SMOOTH"
);
}
);
width = 688;
},
{
background = {
paths = (
{
closed = 1;
nodes = (
"603 85 OFFCURVE",
"628 109 OFFCURVE",
"628 140 CURVE SMOOTH",
"628 150 LINE SMOOTH",
"628 156 OFFCURVE",
"624 187 OFFCURVE",
"618 222 CURVE SMOOTH",
"613 257 OFFCURVE",
"609 288 OFFCURVE",
"609 293 CURVE SMOOTH",
"609 382 LINE SMOOTH",
"609 441 OFFCURVE",
"613 499 OFFCURVE",
"613 559 CURVE SMOOTH",
"613 600 OFFCURVE",
"603 634 OFFCURVE",
"558 634 CURVE SMOOTH",
"542 634 OFFCURVE",
"537 632 OFFCURVE",
"527 624 CURVE",
"445 482 OFFCURVE",
"422 300 OFFCURVE",
"282 196 CURVE SMOOTH",
"268 185 OFFCURVE",
"242 167 OFFCURVE",
"228 167 CURVE SMOOTH",
"169 167 OFFCURVE",
"170 322 OFFCURVE",
"170 357 CURVE SMOOTH",
"170 445 OFFCURVE",
"191 527 OFFCURVE",
"210 612 CURVE",
"210 627 LINE",
"215 645 OFFCURVE",
"214 669 OFFCURVE",
"189 669 CURVE SMOOTH",
"139 669 LINE SMOOTH",
"86 669 OFFCURVE",
"59 498 OFFCURVE",
"59 456 CURVE SMOOTH",
"59 392 LINE SMOOTH",
"59 289 OFFCURVE",
"59 50 OFFCURVE",
"213 50 CURVE SMOOTH",
"350 50 OFFCURVE",
"418 175 OFFCURVE",
"485 272 CURVE",
"495 282 LINE",
"498 229 OFFCURVE",
"504 180 OFFCURVE",
"507 165 CURVE SMOOTH",
"513 124 OFFCURVE",
"527 85 OFFCURVE",
"573 85 CURVE SMOOTH"
);
}
);
};
layerId = "33ACAFD4-38EF-4E3F-A654-B3CAAACD5815";
paths = (
{
closed = 1;
nodes = (
"350 50 OFFCURVE",
"418 175 OFFCURVE",
"485 272 CURVE",
"495 282 LINE",
"498 229 OFFCURVE",
"504 180 OFFCURVE",
"507 165 CURVE SMOOTH",
"513 124 OFFCURVE",
"527 85 OFFCURVE",
"573 85 CURVE SMOOTH",
"603 85 OFFCURVE",
"628 109 OFFCURVE",
"628 140 CURVE SMOOTH",
"628 150 LINE SMOOTH",
"628 156 OFFCURVE",
"624 187 OFFCURVE",
"618 222 CURVE SMOOTH",
"613 257 OFFCURVE",
"609 288 OFFCURVE",
"609 293 CURVE SMOOTH",
"609 382 LINE SMOOTH",
"609 441 OFFCURVE",
"613 499 OFFCURVE",
"613 559 CURVE SMOOTH",
"613 600 OFFCURVE",
"603 634 OFFCURVE",
"558 634 CURVE SMOOTH",
"542 634 OFFCURVE",
"537 632 OFFCURVE",
"527 624 CURVE",
"445 482 OFFCURVE",
"422 300 OFFCURVE",
"282 196 CURVE SMOOTH",
"268 185 OFFCURVE",
"242 167 OFFCURVE",
"228 167 CURVE SMOOTH",
"171 167 OFFCURVE",
"170 312 OFFCURVE",
"170 353 CURVE SMOOTH",
"170 443 OFFCURVE",
"191 526 OFFCURVE",
"210 612 CURVE",
"210 627 LINE",
"211 632 OFFCURVE",
"212 638 OFFCURVE",
"212 643 CURVE SMOOTH",
"212 657 OFFCURVE",
"207 669 OFFCURVE",
"189 669 CURVE SMOOTH",
"139 669 LINE SMOOTH",
"86 669 OFFCURVE",
"59 498 OFFCURVE",
"59 456 CURVE SMOOTH",
"59 392 LINE SMOOTH",
"59 289 OFFCURVE",
"59 50 OFFCURVE",
"213 50 CURVE SMOOTH"
);
}
);
width = 688;
}
);
note = U;
unicode = 0055;
},
{
glyphname = V;
lastChange = "2021-10-16 03:32:20 +0000";
layers = (
{
background = {
hints = (
{
horizontal = 1;
place = "{50, 121}";
type = Stem;
},
{
horizontal = 1;
place = "{678, -20}";
target = down;
type = TopGhost;
},
{
place = "{45, 559}";
type = Stem;
}
);
paths = (
{
closed = 1;
nodes = (
"363 50 OFFCURVE",
"403 123 OFFCURVE",
"431 171 CURVE SMOOTH",
"522 331 OFFCURVE",
"604 545 OFFCURVE",
"604 630 CURVE SMOOTH",
"604 653 OFFCURVE",
"608 694 OFFCURVE",
"578 694 CURVE SMOOTH",
"561 694 OFFCURVE",
"543 679 OFFCURVE",
"539 660 CURVE SMOOTH",
"477 379 OFFCURVE",
"374 170 OFFCURVE",
"325 171 CURVE SMOOTH",
"287 171 OFFCURVE",
"280 189 OFFCURVE",
"206 429 CURVE SMOOTH",
"142 634 LINE SMOOTH",
"130 671 OFFCURVE",
"116 678 OFFCURVE",
"82 678 CURVE SMOOTH",
"51 678 OFFCURVE",
"45 672 OFFCURVE",
"45 651 CURVE SMOOTH",
"45 640 LINE",
"96 530 OFFCURVE",
"152 318 OFFCURVE",
"199 178 CURVE SMOOTH",
"214 133 OFFCURVE",
"245 50 OFFCURVE",
"300 50 CURVE SMOOTH"
);
}
);
};
layerId = "8F40E529-D5F5-4815-B22D-63C5267C70E2";
paths = (
{
closed = 1;
nodes = (
"363 50 OFFCURVE",
"403 123 OFFCURVE",
"431 171 CURVE SMOOTH",
"522 331 OFFCURVE",
"604 545 OFFCURVE",
"604 630 CURVE SMOOTH",
"604 653 OFFCURVE",
"608 694 OFFCURVE",
"578 694 CURVE SMOOTH",
"561 694 OFFCURVE",
"543 679 OFFCURVE",
"539 660 CURVE SMOOTH",
"477 379 OFFCURVE",
"374 170 OFFCURVE",
"325 171 CURVE SMOOTH",
"287 171 OFFCURVE",
"280 189 OFFCURVE",
"206 429 CURVE SMOOTH",
"142 634 LINE SMOOTH",
"130 671 OFFCURVE",
"116 678 OFFCURVE",
"82 678 CURVE SMOOTH",
"51 678 OFFCURVE",
"45 672 OFFCURVE",
"45 651 CURVE SMOOTH",
"45 640 LINE",
"96 530 OFFCURVE",
"152 318 OFFCURVE",
"199 178 CURVE SMOOTH",
"214 133 OFFCURVE",
"245 50 OFFCURVE",
"300 50 CURVE SMOOTH"
);
}
);
width = 653;
},
{
background = {
paths = (
{
closed = 1;
nodes = (
"366 272 LINE",
"358 251 OFFCURVE",
"339 233 OFFCURVE",
"326 215 CURVE",
"319 208 LINE",
"311 213 OFFCURVE",
"301 226 OFFCURVE",
"298 231 CURVE",
"294 241 OFFCURVE",
"287 261 OFFCURVE",
"285 270 CURVE",
"285 270 LINE",
"176 623 LINE SMOOTH",
"163 665 OFFCURVE",
"141 679 OFFCURVE",
"100 679 CURVE SMOOTH",
"65 679 OFFCURVE",
"45 668 OFFCURVE",
"45 633 CURVE SMOOTH",
"45 618 LINE",
"85 519 LINE",
"188 184 LINE SMOOTH",
"204 134 OFFCURVE",
"243 50 OFFCURVE",
"302 50 CURVE SMOOTH",
"340 50 OFFCURVE",
"369 72 OFFCURVE",
"391 97 CURVE SMOOTH",
"435 147 OFFCURVE",
"482 250 OFFCURVE",
"510 307 CURVE SMOOTH",
"556 400 OFFCURVE",
"604 509 OFFCURVE",
"604 613 CURVE SMOOTH",
"604 644 OFFCURVE",
"606 694 OFFCURVE",
"559 694 CURVE SMOOTH",
"534 694 OFFCURVE",
"509 674 OFFCURVE",
"503 648 CURVE",
"496 631 OFFCURVE",
"494 611 OFFCURVE",
"491 594 CURVE SMOOTH",
"468 480 OFFCURVE",
"428 371 OFFCURVE",
"367 272 CURVE"
);
}
);
};
layerId = "33ACAFD4-38EF-4E3F-A654-B3CAAACD5815";
paths = (
{
closed = 1;
nodes = (
"340 50 OFFCURVE",
"369 72 OFFCURVE",
"391 97 CURVE SMOOTH",
"435 147 OFFCURVE",
"482 250 OFFCURVE",
"510 307 CURVE SMOOTH",
"556 400 OFFCURVE",
"604 509 OFFCURVE",
"604 613 CURVE SMOOTH",
"604 644 OFFCURVE",
"606 694 OFFCURVE",
"559 694 CURVE SMOOTH",
"534 694 OFFCURVE",
"509 674 OFFCURVE",
"503 648 CURVE",
"496 631 OFFCURVE",
"494 611 OFFCURVE",
"491 594 CURVE SMOOTH",
"468 480 OFFCURVE",
"428 371 OFFCURVE",
"367 272 CURVE",
"366 272 LINE",
"358 251 OFFCURVE",
"339 233 OFFCURVE",
"326 215 CURVE",
"319 208 LINE",
"311 213 OFFCURVE",
"301 226 OFFCURVE",
"298 231 CURVE",
"294 241 OFFCURVE",
"287 261 OFFCURVE",
"285 270 CURVE SMOOTH",
"176 623 LINE SMOOTH",
"163 665 OFFCURVE",
"141 679 OFFCURVE",
"100 679 CURVE SMOOTH",
"65 679 OFFCURVE",
"45 668 OFFCURVE",
"45 633 CURVE SMOOTH",
"45 618 LINE",
"85 519 LINE",
"188 184 LINE SMOOTH",
"204 134 OFFCURVE",
"243 50 OFFCURVE",
"302 50 CURVE SMOOTH"
);
}
);
width = 653;
}
);
note = V;
unicode = 0056;
},
{
glyphname = W;
lastChange = "2021-10-16 03:32:20 +0000";
layers = (
{
background = {
paths = (
{
closed = 1;
nodes = (
"244 40 OFFCURVE",
"277 113 OFFCURVE",
"300 165 CURVE SMOOTH",
"343 257 OFFCURVE",
"373 328 OFFCURVE",
"415 411 CURVE SMOOTH",
"420 421 OFFCURVE",
"425 425 OFFCURVE",
"429 425 CURVE SMOOTH",
"437 425 OFFCURVE",
"443 411 OFFCURVE",
"446 399 CURVE SMOOTH",
"471 299 OFFCURVE",
"508 210 OFFCURVE",
"537 132 CURVE SMOOTH",
"553 92 OFFCURVE",
"573 67 OFFCURVE",
"613 67 CURVE SMOOTH",
"677 67 OFFCURVE",
"717 174 OFFCURVE",
"732 225 CURVE SMOOTH",
"831 567 LINE SMOOTH",
"834 576 OFFCURVE",
"842 609 OFFCURVE",
"846 631 CURVE SMOOTH",
"849 649 OFFCURVE",
"835 663 OFFCURVE",
"811 663 CURVE SMOOTH",
"783 663 OFFCURVE",
"770 639 OFFCURVE",
"762 609 CURVE SMOOTH",
"726 466 OFFCURVE",
"695 349 OFFCURVE",
"641 216 CURVE SMOOTH",
"637 207 OFFCURVE",
"625 188 OFFCURVE",
"612 188 CURVE SMOOTH",
"605 188 OFFCURVE",
"596 189 OFFCURVE",
"583 216 CURVE",
"492 482 LINE SMOOTH",
"482 511 OFFCURVE",
"470 531 OFFCURVE",
"436 531 CURVE SMOOTH",
"399 531 OFFCURVE",
"390 514 OFFCURVE",
"366 477 CURVE SMOOTH",
"343 444 OFFCURVE",
"224 190 OFFCURVE",
"204 151 CURVE SMOOTH",
"200 144 OFFCURVE",
"194 135 OFFCURVE",
"186 135 CURVE SMOOTH",
"181 135 OFFCURVE",
"175 140 OFFCURVE",
"169 151 CURVE SMOOTH",
"165 158 OFFCURVE",
"152 196 OFFCURVE",
"149 208 CURVE SMOOTH",
"138 252 OFFCURVE",
"135 389 OFFCURVE",
"135 500 CURVE SMOOTH",
"135 562 OFFCURVE",
"136 616 OFFCURVE",
"137 642 CURVE SMOOTH",
"138 676 OFFCURVE",
"123 679 OFFCURVE",
"111 679 CURVE SMOOTH",
"62 679 OFFCURVE",
"59 616 OFFCURVE",
"59 574 CURVE SMOOTH",
"59 383 OFFCURVE",
"59 350 OFFCURVE",
"64 285 CURVE SMOOTH",
"69 217 OFFCURVE",
"79 40 OFFCURVE",
"179 40 CURVE SMOOTH"
);
}
);
};
layerId = "8F40E529-D5F5-4815-B22D-63C5267C70E2";
paths = (
{
closed = 1;
nodes = (
"244 40 OFFCURVE",
"277 113 OFFCURVE",
"300 165 CURVE SMOOTH",
"343 257 OFFCURVE",
"373 328 OFFCURVE",
"415 411 CURVE SMOOTH",
"420 421 OFFCURVE",
"425 425 OFFCURVE",
"429 425 CURVE SMOOTH",
"437 425 OFFCURVE",
"443 411 OFFCURVE",
"446 399 CURVE SMOOTH",
"471 299 OFFCURVE",
"508 210 OFFCURVE",
"537 132 CURVE SMOOTH",
"553 92 OFFCURVE",
"573 67 OFFCURVE",
"613 67 CURVE SMOOTH",
"677 67 OFFCURVE",
"717 174 OFFCURVE",
"732 225 CURVE SMOOTH",
"831 567 LINE SMOOTH",
"834 576 OFFCURVE",
"842 609 OFFCURVE",
"846 631 CURVE SMOOTH",
"849 649 OFFCURVE",
"835 663 OFFCURVE",
"811 663 CURVE SMOOTH",
"783 663 OFFCURVE",
"770 639 OFFCURVE",
"762 609 CURVE SMOOTH",
"726 466 OFFCURVE",
"695 349 OFFCURVE",
"641 216 CURVE SMOOTH",
"637 207 OFFCURVE",
"625 188 OFFCURVE",
"612 188 CURVE SMOOTH",
"605 188 OFFCURVE",
"596 189 OFFCURVE",
"583 216 CURVE",
"492 482 LINE SMOOTH",
"482 511 OFFCURVE",
"470 531 OFFCURVE",
"436 531 CURVE SMOOTH",
"399 531 OFFCURVE",
"390 514 OFFCURVE",
"366 477 CURVE SMOOTH",
"343 444 OFFCURVE",
"224 190 OFFCURVE",
"204 151 CURVE SMOOTH",
"200 144 OFFCURVE",
"194 135 OFFCURVE",
"186 135 CURVE SMOOTH",
"181 135 OFFCURVE",
"175 140 OFFCURVE",
"169 151 CURVE SMOOTH",
"165 158 OFFCURVE",
"152 196 OFFCURVE",
"149 208 CURVE SMOOTH",
"138 252 OFFCURVE",
"135 389 OFFCURVE",
"135 500 CURVE SMOOTH",
"135 562 OFFCURVE",
"136 616 OFFCURVE",
"137 642 CURVE SMOOTH",
"138 676 OFFCURVE",
"123 679 OFFCURVE",
"111 679 CURVE SMOOTH",
"62 679 OFFCURVE",
"59 616 OFFCURVE",
"59 574 CURVE SMOOTH",
"59 383 OFFCURVE",
"59 350 OFFCURVE",
"64 285 CURVE SMOOTH",
"69 217 OFFCURVE",
"79 40 OFFCURVE",
"179 40 CURVE SMOOTH"
);
}
);
width = 891;
},
{
background = {
paths = (
{
closed = 1;
nodes = (
"598 227 OFFCURVE",
"597 230 OFFCURVE",
"595 234 CURVE",
"510 481 LINE SMOOTH",
"498 516 OFFCURVE",
"461 541 OFFCURVE",
"425 541 CURVE SMOOTH",
"409 541 LINE",
"357 501 OFFCURVE",
"340 462 OFFCURVE",
"310 406 CURVE",
"296 374 OFFCURVE",
"229 243 OFFCURVE",
"203 186 CURVE",
"200 186 LINE",
"196 194 LINE",
"191 210 OFFCURVE",
"181 238 OFFCURVE",
"181 253 CURVE SMOOTH",
"181 264 OFFCURVE",
"176 302 OFFCURVE",
"176 307 CURVE SMOOTH",
"176 643 LINE SMOOTH",
"176 662 OFFCURVE",
"147 679 OFFCURVE",
"129 679 CURVE SMOOTH",
"58 679 OFFCURVE",
"59 592 OFFCURVE",
"59 544 CURVE SMOOTH",
"59 465 LINE SMOOTH",
"59 401 OFFCURVE",
"59 352 OFFCURVE",
"64 288 CURVE SMOOTH",
"70 209 OFFCURVE",
"82 40 OFFCURVE",
"194 40 CURVE SMOOTH",
"268 40 OFFCURVE",
"303 114 OFFCURVE",
"328 169 CURVE SMOOTH",
"342 198 OFFCURVE",
"404 333 OFFCURVE",
"422 371 CURVE",
"426 375 LINE",
"429 375 LINE",
"452 287 OFFCURVE",
"485 209 OFFCURVE",
"512 140 CURVE SMOOTH",
"528 100 OFFCURVE",
"553 65 OFFCURVE",
"603 65 CURVE SMOOTH",
"672 65 OFFCURVE",
"721 174 OFFCURVE",
"737 228 CURVE SMOOTH",
"831 549 LINE SMOOTH",
"832 554 OFFCURVE",
"836 576 OFFCURVE",
"836 584 CURVE SMOOTH",
"836 593 LINE SMOOTH",
"836 619 OFFCURVE",
"825 664 OFFCURVE",
"790 664 CURVE SMOOTH",
"752 664 OFFCURVE",
"736 628 OFFCURVE",
"724 598 CURVE",
"690 465 OFFCURVE",
"660 357 OFFCURVE",
"610 234 CURVE",
"610 232 OFFCURVE",
"609 226 OFFCURVE",
"608 225 CURVE",
"608 225 OFFCURVE",
"606 225 OFFCURVE",
"603 225 CURVE SMOOTH",
"602 225 OFFCURVE",
"600 225 OFFCURVE",
"599 225 CURVE"
);
}
);
};
layerId = "33ACAFD4-38EF-4E3F-A654-B3CAAACD5815";
paths = (
{
closed = 1;
nodes = (
"268 40 OFFCURVE",
"303 114 OFFCURVE",
"328 169 CURVE SMOOTH",
"342 198 OFFCURVE",
"404 333 OFFCURVE",
"422 371 CURVE",
"426 375 LINE",
"429 375 LINE",
"452 287 OFFCURVE",
"485 209 OFFCURVE",
"512 140 CURVE SMOOTH",
"528 100 OFFCURVE",
"553 65 OFFCURVE",
"603 65 CURVE SMOOTH",
"672 65 OFFCURVE",
"721 174 OFFCURVE",
"737 228 CURVE SMOOTH",
"831 549 LINE SMOOTH",
"832 554 OFFCURVE",
"836 576 OFFCURVE",
"836 584 CURVE SMOOTH",
"836 593 LINE SMOOTH",
"836 619 OFFCURVE",
"825 664 OFFCURVE",
"790 664 CURVE SMOOTH",
"752 664 OFFCURVE",
"736 628 OFFCURVE",
"724 598 CURVE",
"690 465 OFFCURVE",
"660 357 OFFCURVE",
"610 234 CURVE",
"610 232 OFFCURVE",
"609 226 OFFCURVE",
"608 225 CURVE",
"608 225 OFFCURVE",
"606 225 OFFCURVE",
"603 225 CURVE SMOOTH",
"599 225 LINE",
"595 234 LINE",
"510 481 LINE SMOOTH",
"498 516 OFFCURVE",
"461 541 OFFCURVE",
"425 541 CURVE SMOOTH",
"409 541 LINE",
"357 501 OFFCURVE",
"340 462 OFFCURVE",
"310 406 CURVE",
"296 374 OFFCURVE",
"229 243 OFFCURVE",
"203 186 CURVE",
"200 186 LINE",
"196 194 LINE",
"191 210 OFFCURVE",
"181 238 OFFCURVE",
"181 253 CURVE SMOOTH",
"181 264 OFFCURVE",
"176 302 OFFCURVE",
"176 307 CURVE SMOOTH",
"176 643 LINE SMOOTH",
"176 662 OFFCURVE",
"147 679 OFFCURVE",
"129 679 CURVE SMOOTH",
"58 679 OFFCURVE",
"59 592 OFFCURVE",
"59 544 CURVE SMOOTH",
"59 465 LINE SMOOTH",
"59 401 OFFCURVE",
"59 352 OFFCURVE",
"64 288 CURVE SMOOTH",
"70 209 OFFCURVE",
"82 40 OFFCURVE",
"194 40 CURVE SMOOTH"
);
}
);
width = 891;
}
);
note = W;
unicode = 0057;
},
{
glyphname = X;
lastChange = "2021-10-16 03:32:20 +0000";
layers = (
{
background = {
paths = (
{
closed = 1;
nodes = (
"564 40 OFFCURVE",
"598 52 OFFCURVE",
"598 69 CURVE SMOOTH",
"598 74 OFFCURVE",
"595 79 OFFCURVE",
"587 85 CURVE SMOOTH",
"556 108 OFFCURVE",
"494 156 OFFCURVE",
"444 215 CURVE SMOOTH",
"422 241 OFFCURVE",
"364 312 OFFCURVE",
"363 345 CURVE",
"376 380 OFFCURVE",
"471 478 OFFCURVE",
"585 585 CURVE SMOOTH",
"606 604 OFFCURVE",
"626 620 OFFCURVE",
"626 636 CURVE SMOOTH",
"626 644 OFFCURVE",
"621 651 OFFCURVE",
"608 659 CURVE SMOOTH",
"603 662 OFFCURVE",
"598 663 OFFCURVE",
"593 663 CURVE SMOOTH",
"566 663 OFFCURVE",
"533 631 OFFCURVE",
"511 611 CURVE SMOOTH",
"416 522 OFFCURVE",
"369 469 OFFCURVE",
"301 421 CURVE",
"290 421 OFFCURVE",
"286 432 OFFCURVE",
"132 662 CURVE SMOOTH",
"124 673 OFFCURVE",
"115 678 OFFCURVE",
"107 678 CURVE SMOOTH",
"89 678 OFFCURVE",
"74 656 OFFCURVE",
"74 632 CURVE SMOOTH",
"74 622 OFFCURVE",
"77 611 OFFCURVE",
"83 602 CURVE SMOOTH",
"136 519 OFFCURVE",
"186 436 OFFCURVE",
"233 369 CURVE",
"235 365 OFFCURVE",
"236 361 OFFCURVE",
"236 356 CURVE SMOOTH",
"236 334 OFFCURVE",
"212 308 OFFCURVE",
"202 293 CURVE",
"180 269 OFFCURVE",
"108 194 OFFCURVE",
"87 169 CURVE SMOOTH",
"66 143 OFFCURVE",
"54 122 OFFCURVE",
"54 97 CURVE SMOOTH",
"54 72 OFFCURVE",
"61 67 OFFCURVE",
"76 67 CURVE SMOOTH",
"102 67 OFFCURVE",
"141 93 OFFCURVE",
"161 118 CURVE",
"165 121 OFFCURVE",
"188 151 OFFCURVE",
"213 182 CURVE SMOOTH",
"225 198 OFFCURVE",
"237 213 OFFCURVE",
"247 225 CURVE SMOOTH",
"256 237 OFFCURVE",
"264 247 OFFCURVE",
"268 251 CURVE SMOOTH",
"276 258 OFFCURVE",
"290 277 OFFCURVE",
"303 277 CURVE SMOOTH",
"324 277 OFFCURVE",
"351 210 OFFCURVE",
"422 122 CURVE SMOOTH",
"458 79 OFFCURVE",
"502 40 OFFCURVE",
"549 40 CURVE SMOOTH"
);
}
);
};
layerId = "8F40E529-D5F5-4815-B22D-63C5267C70E2";
paths = (
{
closed = 1;
nodes = (
"564 40 OFFCURVE",
"598 52 OFFCURVE",
"598 69 CURVE SMOOTH",
"598 74 OFFCURVE",
"595 79 OFFCURVE",
"587 85 CURVE SMOOTH",
"556 108 OFFCURVE",
"494 156 OFFCURVE",
"444 215 CURVE SMOOTH",
"422 241 OFFCURVE",
"364 312 OFFCURVE",
"363 345 CURVE",
"376 380 OFFCURVE",
"471 478 OFFCURVE",
"585 585 CURVE SMOOTH",
"606 604 OFFCURVE",
"626 620 OFFCURVE",
"626 636 CURVE SMOOTH",
"626 644 OFFCURVE",
"621 651 OFFCURVE",
"608 659 CURVE SMOOTH",
"603 662 OFFCURVE",
"598 663 OFFCURVE",
"593 663 CURVE SMOOTH",
"566 663 OFFCURVE",
"533 631 OFFCURVE",
"511 611 CURVE SMOOTH",
"416 522 OFFCURVE",
"369 469 OFFCURVE",
"301 421 CURVE",
"290 421 OFFCURVE",
"286 432 OFFCURVE",
"132 662 CURVE SMOOTH",
"124 673 OFFCURVE",
"115 678 OFFCURVE",
"107 678 CURVE SMOOTH",
"89 678 OFFCURVE",
"74 656 OFFCURVE",
"74 632 CURVE SMOOTH",
"74 622 OFFCURVE",
"77 611 OFFCURVE",
"83 602 CURVE SMOOTH",
"136 519 OFFCURVE",
"186 436 OFFCURVE",
"233 369 CURVE",
"235 365 OFFCURVE",
"236 361 OFFCURVE",
"236 356 CURVE SMOOTH",
"236 334 OFFCURVE",
"212 308 OFFCURVE",
"202 293 CURVE",
"180 269 OFFCURVE",
"108 194 OFFCURVE",
"87 169 CURVE SMOOTH",
"66 143 OFFCURVE",
"54 122 OFFCURVE",
"54 97 CURVE SMOOTH",
"54 72 OFFCURVE",
"61 67 OFFCURVE",
"76 67 CURVE SMOOTH",
"102 67 OFFCURVE",
"141 93 OFFCURVE",
"161 118 CURVE",
"165 121 OFFCURVE",
"188 151 OFFCURVE",
"213 182 CURVE SMOOTH",
"225 198 OFFCURVE",
"237 213 OFFCURVE",
"247 225 CURVE SMOOTH",
"256 237 OFFCURVE",
"264 247 OFFCURVE",
"268 251 CURVE SMOOTH",
"276 258 OFFCURVE",
"290 277 OFFCURVE",
"303 277 CURVE SMOOTH",
"324 277 OFFCURVE",
"351 210 OFFCURVE",
"422 122 CURVE SMOOTH",
"458 79 OFFCURVE",
"502 40 OFFCURVE",
"549 40 CURVE SMOOTH"
);
}
);
width = 673;
},
{
background = {
paths = (
{
closed = 1;
nodes = (
"602 560 OFFCURVE",
"618 585 OFFCURVE",
"618 618 CURVE SMOOTH",
"618 637 OFFCURVE",
"618 640 OFFCURVE",
"606 659 CURVE",
"588 659 LINE SMOOTH",
"547 659 OFFCURVE",
"508 632 OFFCURVE",
"483 609 CURVE SMOOTH",
"311 447 LINE",
"306 447 LINE SMOOTH",
"302 447 OFFCURVE",
"300 449 OFFCURVE",
"298 451 CURVE",
"165 653 LINE SMOOTH",
"155 669 OFFCURVE",
"140 669 OFFCURVE",
"124 669 CURVE SMOOTH",
"90 669 OFFCURVE",
"74 649 OFFCURVE",
"74 618 CURVE SMOOTH",
"74 603 OFFCURVE",
"74 588 OFFCURVE",
"84 573 CURVE SMOOTH",
"226 352 LINE",
"222 343 LINE",
"197 316 OFFCURVE",
"108 218 OFFCURVE",
"89 195 CURVE SMOOTH",
"70 170 OFFCURVE",
"54 146 OFFCURVE",
"54 115 CURVE SMOOTH",
"54 84 OFFCURVE",
"66 65 OFFCURVE",
"95 65 CURVE SMOOTH",
"129 65 OFFCURVE",
"170 95 OFFCURVE",
"190 120 CURVE SMOOTH",
"197 128 OFFCURVE",
"219 155 OFFCURVE",
"239 181 CURVE SMOOTH",
"246 189 OFFCURVE",
"286 247 OFFCURVE",
"297 247 CURVE SMOOTH",
"301 247 LINE",
"327 213 OFFCURVE",
"385 141 OFFCURVE",
"400 124 CURVE SMOOTH",
"432 84 OFFCURVE",
"479 40 OFFCURVE",
"533 40 CURVE SMOOTH",
"559 40 OFFCURVE",
"589 61 OFFCURVE",
"589 91 CURVE SMOOTH",
"589 118 OFFCURVE",
"562 137 OFFCURVE",
"542 151 CURVE SMOOTH",
"487 192 OFFCURVE",
"447 244 OFFCURVE",
"405 298 CURVE SMOOTH",
"398 307 OFFCURVE",
"395 319 OFFCURVE",
"387 328 CURVE",
"382 337 LINE",
"382 341 LINE",
"389 358 OFFCURVE",
"406 376 OFFCURVE",
"411 381 CURVE SMOOTH",
"446 414 OFFCURVE",
"478 452 OFFCURVE",
"514 484 CURVE SMOOTH",
"536 503 OFFCURVE",
"560 519 OFFCURVE",
"581 539 CURVE SMOOTH"
);
}
);
};
layerId = "33ACAFD4-38EF-4E3F-A654-B3CAAACD5815";
paths = (
{
closed = 1;
nodes = (
"559 40 OFFCURVE",
"589 61 OFFCURVE",
"589 91 CURVE SMOOTH",
"589 118 OFFCURVE",
"562 137 OFFCURVE",
"542 151 CURVE SMOOTH",
"487 192 OFFCURVE",
"447 244 OFFCURVE",
"405 298 CURVE SMOOTH",
"398 307 OFFCURVE",
"395 319 OFFCURVE",
"387 328 CURVE",
"382 337 LINE",
"382 341 LINE",
"389 358 OFFCURVE",
"406 376 OFFCURVE",
"411 381 CURVE SMOOTH",
"446 414 OFFCURVE",
"478 452 OFFCURVE",
"514 484 CURVE SMOOTH",
"536 503 OFFCURVE",
"560 519 OFFCURVE",
"581 539 CURVE SMOOTH",
"602 560 OFFCURVE",
"618 585 OFFCURVE",
"618 618 CURVE SMOOTH",
"618 637 OFFCURVE",
"618 640 OFFCURVE",
"606 659 CURVE",
"588 659 LINE SMOOTH",
"547 659 OFFCURVE",
"508 632 OFFCURVE",
"483 609 CURVE SMOOTH",
"311 447 LINE",
"306 447 LINE SMOOTH",
"302 447 OFFCURVE",
"300 449 OFFCURVE",
"298 451 CURVE",
"165 653 LINE SMOOTH",
"155 669 OFFCURVE",
"140 669 OFFCURVE",
"124 669 CURVE SMOOTH",
"90 669 OFFCURVE",
"74 649 OFFCURVE",
"74 618 CURVE SMOOTH",
"74 603 OFFCURVE",
"74 588 OFFCURVE",
"84 573 CURVE SMOOTH",
"226 352 LINE",
"222 343 LINE",
"197 316 OFFCURVE",
"108 218 OFFCURVE",
"89 195 CURVE SMOOTH",
"70 170 OFFCURVE",
"54 146 OFFCURVE",
"54 115 CURVE SMOOTH",
"54 84 OFFCURVE",
"66 65 OFFCURVE",
"95 65 CURVE SMOOTH",
"129 65 OFFCURVE",
"170 95 OFFCURVE",
"190 120 CURVE SMOOTH",
"197 128 OFFCURVE",
"219 155 OFFCURVE",
"239 181 CURVE SMOOTH",
"246 189 OFFCURVE",
"286 247 OFFCURVE",
"297 247 CURVE SMOOTH",
"301 247 LINE",
"327 213 OFFCURVE",
"385 141 OFFCURVE",
"400 124 CURVE SMOOTH",
"432 84 OFFCURVE",
"479 40 OFFCURVE",
"533 40 CURVE SMOOTH"
);
}
);
width = 673;
}
);
note = X;
unicode = 0058;
},
{
glyphname = Y;
lastChange = "2021-10-16 03:32:20 +0000";
layers = (
{
background = {
paths = (
{
closed = 1;
nodes = (
"296 -5 OFFCURVE",
"293 59 OFFCURVE",
"300 126 CURVE SMOOTH",
"309 220 OFFCURVE",
"326 285 OFFCURVE",
"335 324 CURVE",
"389 374 OFFCURVE",
"427 424 OFFCURVE",
"478 494 CURVE SMOOTH",
"494 517 OFFCURVE",
"512 542 OFFCURVE",
"527 568 CURVE SMOOTH",
"541 593 OFFCURVE",
"551 624 OFFCURVE",
"551 647 CURVE SMOOTH",
"551 667 OFFCURVE",
"543 682 OFFCURVE",
"523 682 CURVE SMOOTH",
"482 682 OFFCURVE",
"451 614 OFFCURVE",
"416 551 CURVE SMOOTH",
"396 515 OFFCURVE",
"377 479 OFFCURVE",
"359 452 CURVE SMOOTH",
"335 418 OFFCURVE",
"310 399 OFFCURVE",
"287 399 CURVE SMOOTH",
"239 399 OFFCURVE",
"166 546 OFFCURVE",
"154 581 CURVE SMOOTH",
"149 593 OFFCURVE",
"146 608 OFFCURVE",
"142 625 CURVE SMOOTH",
"138 639 OFFCURVE",
"134 654 OFFCURVE",
"128 668 CURVE SMOOTH",
"117 694 OFFCURVE",
"102 708 OFFCURVE",
"78 708 CURVE SMOOTH",
"60 708 OFFCURVE",
"45 694 OFFCURVE",
"45 671 CURVE SMOOTH",
"45 633 OFFCURVE",
"63 593 OFFCURVE",
"76 559 CURVE SMOOTH",
"114 462 OFFCURVE",
"159 402 OFFCURVE",
"238 324 CURVE",
"238 304 LINE SMOOTH",
"238 237 OFFCURVE",
"217 168 OFFCURVE",
"217 100 CURVE SMOOTH",
"217 49 LINE",
"222 19 OFFCURVE",
"241 -5 OFFCURVE",
"260 -5 CURVE SMOOTH"
);
}
);
};
layerId = "8F40E529-D5F5-4815-B22D-63C5267C70E2";
paths = (
{
closed = 1;
nodes = (
"296 -5 OFFCURVE",
"293 59 OFFCURVE",
"300 126 CURVE SMOOTH",
"309 220 OFFCURVE",
"326 285 OFFCURVE",
"335 324 CURVE",
"389 374 OFFCURVE",
"427 424 OFFCURVE",
"478 494 CURVE SMOOTH",
"494 517 OFFCURVE",
"512 542 OFFCURVE",
"527 568 CURVE SMOOTH",
"541 593 OFFCURVE",
"551 624 OFFCURVE",
"551 647 CURVE SMOOTH",
"551 667 OFFCURVE",
"543 682 OFFCURVE",
"523 682 CURVE SMOOTH",
"482 682 OFFCURVE",
"451 614 OFFCURVE",
"416 551 CURVE SMOOTH",
"396 515 OFFCURVE",
"377 479 OFFCURVE",
"359 452 CURVE SMOOTH",
"335 418 OFFCURVE",
"310 399 OFFCURVE",
"287 399 CURVE SMOOTH",
"239 399 OFFCURVE",
"166 546 OFFCURVE",
"154 581 CURVE SMOOTH",
"149 593 OFFCURVE",
"146 608 OFFCURVE",
"142 625 CURVE SMOOTH",
"138 639 OFFCURVE",
"134 654 OFFCURVE",
"128 668 CURVE SMOOTH",
"117 694 OFFCURVE",
"102 708 OFFCURVE",
"78 708 CURVE SMOOTH",
"60 708 OFFCURVE",
"45 694 OFFCURVE",
"45 671 CURVE SMOOTH",
"45 633 OFFCURVE",
"63 593 OFFCURVE",
"76 559 CURVE SMOOTH",
"114 462 OFFCURVE",
"159 402 OFFCURVE",
"238 324 CURVE",
"238 304 LINE SMOOTH",
"238 237 OFFCURVE",
"217 168 OFFCURVE",
"217 100 CURVE SMOOTH",
"217 49 LINE",
"222 19 OFFCURVE",
"241 -5 OFFCURVE",
"260 -5 CURVE SMOOTH"
);
}
);
width = 589;
},
{
background = {
paths = (
{
closed = 1;
nodes = (
"540 570 OFFCURVE",
"550 597 OFFCURVE",
"550 628 CURVE SMOOTH",
"550 653 LINE",
"541 674 OFFCURVE",
"523 683 OFFCURVE",
"504 683 CURVE SMOOTH",
"448 683 OFFCURVE",
"409 591 OFFCURVE",
"388 550 CURVE SMOOTH",
"373 523 OFFCURVE",
"324 417 OFFCURVE",
"288 417 CURVE SMOOTH",
"249 417 OFFCURVE",
"195 545 OFFCURVE",
"186 574 CURVE SMOOTH",
"169 622 OFFCURVE",
"165 708 OFFCURVE",
"96 708 CURVE SMOOTH",
"66 708 OFFCURVE",
"45 683 OFFCURVE",
"45 651 CURVE SMOOTH",
"45 630 OFFCURVE",
"50 610 OFFCURVE",
"56 591 CURVE SMOOTH",
"92 478 OFFCURVE",
"139 401 OFFCURVE",
"222 316 CURVE",
"222 307 LINE SMOOTH",
"222 244 OFFCURVE",
"202 179 OFFCURVE",
"202 115 CURVE SMOOTH",
"202 65 LINE",
"208 34 OFFCURVE",
"229 -5 OFFCURVE",
"263 -5 CURVE SMOOTH",
"289 -5 OFFCURVE",
"306 15 OFFCURVE",
"312 51 CURVE SMOOTH",
"324 116 OFFCURVE",
"320 280 OFFCURVE",
"362 326 CURVE SMOOTH",
"367 331 OFFCURVE",
"411 380 OFFCURVE",
"416 385 CURVE SMOOTH",
"439 408 OFFCURVE",
"508 511 OFFCURVE",
"526 544 CURVE SMOOTH"
);
}
);
};
layerId = "33ACAFD4-38EF-4E3F-A654-B3CAAACD5815";
paths = (
{
closed = 1;
nodes = (
"289 -5 OFFCURVE",
"306 15 OFFCURVE",
"312 51 CURVE SMOOTH",
"324 116 OFFCURVE",
"320 280 OFFCURVE",
"362 326 CURVE SMOOTH",
"367 331 OFFCURVE",
"411 380 OFFCURVE",
"416 385 CURVE SMOOTH",
"439 408 OFFCURVE",
"508 511 OFFCURVE",
"526 544 CURVE SMOOTH",
"540 570 OFFCURVE",
"550 597 OFFCURVE",
"550 628 CURVE SMOOTH",
"550 653 LINE",
"541 674 OFFCURVE",
"523 683 OFFCURVE",
"504 683 CURVE SMOOTH",
"448 683 OFFCURVE",
"409 591 OFFCURVE",
"388 550 CURVE SMOOTH",
"373 523 OFFCURVE",
"324 417 OFFCURVE",
"288 417 CURVE SMOOTH",
"249 417 OFFCURVE",
"195 545 OFFCURVE",
"186 574 CURVE SMOOTH",
"169 622 OFFCURVE",
"165 708 OFFCURVE",
"96 708 CURVE SMOOTH",
"66 708 OFFCURVE",
"45 683 OFFCURVE",
"45 651 CURVE SMOOTH",
"45 630 OFFCURVE",
"50 610 OFFCURVE",
"56 591 CURVE SMOOTH",
"92 478 OFFCURVE",
"139 401 OFFCURVE",
"222 316 CURVE",
"222 307 LINE SMOOTH",
"222 244 OFFCURVE",
"202 179 OFFCURVE",
"202 115 CURVE SMOOTH",
"202 65 LINE",
"208 34 OFFCURVE",
"229 -5 OFFCURVE",
"263 -5 CURVE SMOOTH"
);
}
);
width = 589;
}
);
note = Y;
unicode = 0059;
},
{
glyphname = Z;
lastChange = "2021-10-16 03:32:20 +0000";
layers = (
{
background = {
paths = (
{
closed = 1;
nodes = (
"257 69 OFFCURVE",
"368 97 OFFCURVE",
"460 97 CURVE SMOOTH",
"471 97 OFFCURVE",
"482 97 OFFCURVE",
"493 96 CURVE SMOOTH",
"512 94 OFFCURVE",
"521 105 OFFCURVE",
"521 122 CURVE SMOOTH",
"521 159 OFFCURVE",
"491 170 OFFCURVE",
"441 170 CURVE SMOOTH",
"355 170 OFFCURVE",
"275 143 OFFCURVE",
"190 143 CURVE SMOOTH",
"165 143 LINE SMOOTH",
"149 143 OFFCURVE",
"141 150 OFFCURVE",
"141 161 CURVE SMOOTH",
"141 162 OFFCURVE",
"142 164 OFFCURVE",
"142 166 CURVE",
"154 190 LINE SMOOTH",
"185 251 OFFCURVE",
"388 419 OFFCURVE",
"507 516 CURVE",
"543 550 OFFCURVE",
"575 569 OFFCURVE",
"575 606 CURVE SMOOTH",
"575 624 OFFCURVE",
"563 636 OFFCURVE",
"533 643 CURVE SMOOTH",
"515 647 OFFCURVE",
"484 648 OFFCURVE",
"449 648 CURVE SMOOTH",
"375 648 OFFCURVE",
"281 641 OFFCURVE",
"237 631 CURVE SMOOTH",
"198 622 OFFCURVE",
"170 618 OFFCURVE",
"145 609 CURVE SMOOTH",
"122 601 OFFCURVE",
"99 579 OFFCURVE",
"99 557 CURVE SMOOTH",
"99 543 OFFCURVE",
"111 538 OFFCURVE",
"127 538 CURVE SMOOTH",
"141 538 OFFCURVE",
"159 541 OFFCURVE",
"176 546 CURVE SMOOTH",
"286 576 OFFCURVE",
"413 579 OFFCURVE",
"441 579 CURVE",
"448 562 OFFCURVE",
"170 318 OFFCURVE",
"119 267 CURVE SMOOTH",
"77 225 OFFCURVE",
"50 181 OFFCURVE",
"50 132 CURVE SMOOTH",
"50 101 OFFCURVE",
"94 69 OFFCURVE",
"157 69 CURVE SMOOTH"
);
}
);
};
layerId = "8F40E529-D5F5-4815-B22D-63C5267C70E2";
paths = (
{
closed = 1;
nodes = (
"257 69 OFFCURVE",
"368 97 OFFCURVE",
"460 97 CURVE SMOOTH",
"471 97 OFFCURVE",
"482 97 OFFCURVE",
"493 96 CURVE SMOOTH",
"512 94 OFFCURVE",
"521 105 OFFCURVE",
"521 122 CURVE SMOOTH",
"521 159 OFFCURVE",
"491 170 OFFCURVE",
"441 170 CURVE SMOOTH",
"355 170 OFFCURVE",
"275 143 OFFCURVE",
"190 143 CURVE SMOOTH",
"165 143 LINE SMOOTH",
"149 143 OFFCURVE",
"141 150 OFFCURVE",
"141 161 CURVE SMOOTH",
"141 162 OFFCURVE",
"142 164 OFFCURVE",
"142 166 CURVE",
"154 190 LINE SMOOTH",
"185 251 OFFCURVE",
"388 419 OFFCURVE",
"507 516 CURVE",
"543 550 OFFCURVE",
"575 569 OFFCURVE",
"575 606 CURVE SMOOTH",
"575 624 OFFCURVE",
"563 636 OFFCURVE",
"533 643 CURVE SMOOTH",
"515 647 OFFCURVE",
"484 648 OFFCURVE",
"449 648 CURVE SMOOTH",
"375 648 OFFCURVE",
"281 641 OFFCURVE",
"237 631 CURVE SMOOTH",
"198 622 OFFCURVE",
"170 618 OFFCURVE",
"145 609 CURVE SMOOTH",
"122 601 OFFCURVE",
"99 579 OFFCURVE",
"99 557 CURVE SMOOTH",
"99 543 OFFCURVE",
"111 538 OFFCURVE",
"127 538 CURVE SMOOTH",
"141 538 OFFCURVE",
"159 541 OFFCURVE",
"176 546 CURVE SMOOTH",
"286 576 OFFCURVE",
"413 579 OFFCURVE",
"441 579 CURVE",
"448 562 OFFCURVE",
"170 318 OFFCURVE",
"119 267 CURVE SMOOTH",
"77 225 OFFCURVE",
"50 181 OFFCURVE",
"50 132 CURVE SMOOTH",
"50 101 OFFCURVE",
"94 69 OFFCURVE",
"157 69 CURVE SMOOTH"
);
}
);
width = 629;
},
{
background = {
paths = (
{
closed = 1;
nodes = (
"563 545 OFFCURVE",
"575 565 OFFCURVE",
"575 588 CURVE SMOOTH",
"575 652 OFFCURVE",
"479 648 OFFCURVE",
"435 648 CURVE SMOOTH",
"400 648 LINE SMOOTH",
"387 648 OFFCURVE",
"263 633 OFFCURVE",
"228 628 CURVE SMOOTH",
"193 623 OFFCURVE",
"95 608 OFFCURVE",
"95 558 CURVE SMOOTH",
"95 527 OFFCURVE",
"124 508 OFFCURVE",
"155 508 CURVE SMOOTH",
"170 508 LINE SMOOTH",
"190 508 OFFCURVE",
"221 523 OFFCURVE",
"243 526 CURVE",
"264 532 OFFCURVE",
"329 542 OFFCURVE",
"347 542 CURVE SMOOTH",
"386 542 LINE",
"386 539 LINE",
"371 524 LINE",
"324 492 OFFCURVE",
"288 445 OFFCURVE",
"243 412 CURVE",
"219 389 OFFCURVE",
"139 308 OFFCURVE",
"119 288 CURVE SMOOTH",
"80 249 OFFCURVE",
"50 204 OFFCURVE",
"50 149 CURVE SMOOTH",
"50 114 LINE",
"72 69 OFFCURVE",
"127 69 OFFCURVE",
"170 69 CURVE SMOOTH",
"175 69 LINE",
"480 94 LINE SMOOTH",
"505 96 OFFCURVE",
"525 110 OFFCURVE",
"525 139 CURVE SMOOTH",
"525 195 OFFCURVE",
"476 205 OFFCURVE",
"431 205 CURVE SMOOTH",
"352 205 OFFCURVE",
"278 181 OFFCURVE",
"200 181 CURVE SMOOTH",
"185 181 LINE",
"181 184 LINE",
"197 216 OFFCURVE",
"218 231 OFFCURVE",
"239 256 CURVE SMOOTH",
"252 269 OFFCURVE",
"265 284 OFFCURVE",
"279 296 CURVE SMOOTH",
"312 326 OFFCURVE",
"470 459 OFFCURVE",
"505 488 CURVE SMOOTH",
"520 501 OFFCURVE",
"536 514 OFFCURVE",
"549 529 CURVE SMOOTH"
);
}
);
};
layerId = "33ACAFD4-38EF-4E3F-A654-B3CAAACD5815";
paths = (
{
closed = 1;
nodes = (
"175 69 LINE",
"480 94 LINE SMOOTH",
"505 96 OFFCURVE",
"525 110 OFFCURVE",
"525 139 CURVE SMOOTH",
"525 195 OFFCURVE",
"476 205 OFFCURVE",
"431 205 CURVE SMOOTH",
"352 205 OFFCURVE",
"278 181 OFFCURVE",
"200 181 CURVE SMOOTH",
"185 181 LINE",
"181 184 LINE",
"197 216 OFFCURVE",
"218 231 OFFCURVE",
"239 256 CURVE SMOOTH",
"252 269 OFFCURVE",
"265 284 OFFCURVE",
"279 296 CURVE SMOOTH",
"312 326 OFFCURVE",
"470 459 OFFCURVE",
"505 488 CURVE SMOOTH",
"520 501 OFFCURVE",
"536 514 OFFCURVE",
"549 529 CURVE SMOOTH",
"563 545 OFFCURVE",
"575 565 OFFCURVE",
"575 588 CURVE SMOOTH",
"575 652 OFFCURVE",
"479 648 OFFCURVE",
"435 648 CURVE SMOOTH",
"400 648 LINE SMOOTH",
"387 648 OFFCURVE",
"263 633 OFFCURVE",
"228 628 CURVE SMOOTH",
"193 623 OFFCURVE",
"95 608 OFFCURVE",
"95 558 CURVE SMOOTH",
"95 527 OFFCURVE",
"124 508 OFFCURVE",
"155 508 CURVE SMOOTH",
"170 508 LINE SMOOTH",
"190 508 OFFCURVE",
"221 523 OFFCURVE",
"243 526 CURVE",
"264 532 OFFCURVE",
"329 542 OFFCURVE",
"347 542 CURVE SMOOTH",
"386 542 LINE",
"386 539 LINE",
"371 524 LINE",
"324 492 OFFCURVE",
"288 445 OFFCURVE",
"243 412 CURVE",
"219 389 OFFCURVE",
"139 308 OFFCURVE",
"119 288 CURVE SMOOTH",
"80 249 OFFCURVE",
"50 204 OFFCURVE",
"50 149 CURVE SMOOTH",
"50 114 LINE",
"72 69 OFFCURVE",
"127 69 OFFCURVE",
"170 69 CURVE SMOOTH"
);
}
);
width = 629;
}
);
note = Z;
unicode = 005A;
},
{
glyphname = a;
lastChange = "2021-10-16 03:32:20 +0000";
layers = (
{
background = {
paths = (
{
closed = 1;
nodes = (
"269 -10 OFFCURVE",
"317 4 OFFCURVE",
"347 26 CURVE",
"315 2 OFFCURVE",
"437 75 OFFCURVE",
"464 148 CURVE",
"471 91 OFFCURVE",
"474 11 OFFCURVE",
"523 11 CURVE SMOOTH",
"557 11 OFFCURVE",
"550 44 OFFCURVE",
"550 75 CURVE SMOOTH",
"550 138 OFFCURVE",
"539 208 OFFCURVE",
"539 272 CURVE SMOOTH",
"539 352 OFFCURVE",
"544 427 OFFCURVE",
"544 507 CURVE SMOOTH",
"544 542 OFFCURVE",
"536 554 OFFCURVE",
"513 554 CURVE SMOOTH",
"484 554 OFFCURVE",
"475 536 OFFCURVE",
"467 480 CURVE",
"430 502 OFFCURVE",
"380 523 OFFCURVE",
"330 523 CURVE SMOOTH",
"169 523 OFFCURVE",
"50 345 OFFCURVE",
"50 193 CURVE SMOOTH",
"50 140 LINE",
"65 56 OFFCURVE",
"142 -10 OFFCURVE",
"232 -10 CURVE SMOOTH"
);
},
{
closed = 1;
nodes = (
"137 53 OFFCURVE",
"114 138 OFFCURVE",
"114 193 CURVE SMOOTH",
"114 288 OFFCURVE",
"214 459 OFFCURVE",
"330 459 CURVE SMOOTH",
"417 459 OFFCURVE",
"437 366 OFFCURVE",
"437 315 CURVE SMOOTH",
"437 214 OFFCURVE",
"341 53 OFFCURVE",
"222 53 CURVE SMOOTH"
);
}
);
};
layerId = "8F40E529-D5F5-4815-B22D-63C5267C70E2";
paths = (
{
closed = 1;
nodes = (
"269 -10 OFFCURVE",
"317 4 OFFCURVE",
"347 26 CURVE",
"315 2 OFFCURVE",
"437 75 OFFCURVE",
"464 148 CURVE",
"471 91 OFFCURVE",
"474 11 OFFCURVE",
"523 11 CURVE SMOOTH",
"557 11 OFFCURVE",
"550 44 OFFCURVE",
"550 75 CURVE SMOOTH",
"550 138 OFFCURVE",
"539 208 OFFCURVE",
"539 272 CURVE SMOOTH",
"539 352 OFFCURVE",
"544 427 OFFCURVE",
"544 507 CURVE SMOOTH",
"544 542 OFFCURVE",
"536 554 OFFCURVE",
"513 554 CURVE SMOOTH",
"484 554 OFFCURVE",
"475 536 OFFCURVE",
"467 480 CURVE",
"430 502 OFFCURVE",
"380 523 OFFCURVE",
"330 523 CURVE SMOOTH",
"169 523 OFFCURVE",
"50 345 OFFCURVE",
"50 193 CURVE SMOOTH",
"50 140 LINE",
"65 56 OFFCURVE",
"142 -10 OFFCURVE",
"232 -10 CURVE SMOOTH"
);
},
{
closed = 1;
nodes = (
"137 53 OFFCURVE",
"114 138 OFFCURVE",
"114 193 CURVE SMOOTH",
"114 288 OFFCURVE",
"214 459 OFFCURVE",
"330 459 CURVE SMOOTH",
"417 459 OFFCURVE",
"437 366 OFFCURVE",
"437 315 CURVE SMOOTH",
"437 214 OFFCURVE",
"341 53 OFFCURVE",
"222 53 CURVE SMOOTH"
);
}
);
width = 609;
},
{
background = {
paths = (
{
closed = 1;
nodes = (
"550 76 OFFCURVE",
"550 83 OFFCURVE",
"550 90 CURVE SMOOTH",
"550 149 OFFCURVE",
"540 213 OFFCURVE",
"540 272 CURVE SMOOTH",
"540 346 OFFCURVE",
"545 415 OFFCURVE",
"545 489 CURVE SMOOTH",
"545 526 OFFCURVE",
"534 554 OFFCURVE",
"495 554 CURVE SMOOTH",
"463 554 OFFCURVE",
"445 540 OFFCURVE",
"435 486 CURVE",
"404 490 OFFCURVE",
"376 525 OFFCURVE",
"327 525 CURVE SMOOTH",
"164 525 OFFCURVE",
"50 347 OFFCURVE",
"50 199 CURVE SMOOTH",
"50 148 LINE",
"66 58 OFFCURVE",
"145 -10 OFFCURVE",
"238 -10 CURVE SMOOTH",
"340 -10 OFFCURVE",
"371 44 OFFCURVE",
"440 113 CURVE",
"444 109 LINE",
"449 70 OFFCURVE",
"450 10 OFFCURVE",
"504 10 CURVE SMOOTH",
"542 10 OFFCURVE",
"551 39 OFFCURVE",
"550 69 CURVE SMOOTH"
);
},
{
closed = 1;
nodes = (
"386 424 OFFCURVE",
"404 361 OFFCURVE",
"404 312 CURVE SMOOTH",
"404 224 OFFCURVE",
"321 91 OFFCURVE",
"228 91 CURVE SMOOTH",
"171 91 OFFCURVE",
"151 148 OFFCURVE",
"151 199 CURVE SMOOTH",
"151 282 OFFCURVE",
"239 424 OFFCURVE",
"327 424 CURVE SMOOTH"
);
}
);
};
layerId = "33ACAFD4-38EF-4E3F-A654-B3CAAACD5815";
paths = (
{
closed = 1;
nodes = (
"340 -10 OFFCURVE",
"371 44 OFFCURVE",
"440 113 CURVE",
"444 109 LINE",
"449 70 OFFCURVE",
"450 10 OFFCURVE",
"504 10 CURVE SMOOTH",
"542 10 OFFCURVE",
"551 39 OFFCURVE",
"550 69 CURVE SMOOTH",
"550 90 LINE SMOOTH",
"550 149 OFFCURVE",
"540 213 OFFCURVE",
"540 272 CURVE SMOOTH",
"540 346 OFFCURVE",
"545 415 OFFCURVE",
"545 489 CURVE SMOOTH",
"545 526 OFFCURVE",
"534 554 OFFCURVE",
"495 554 CURVE SMOOTH",
"463 554 OFFCURVE",
"445 540 OFFCURVE",
"435 486 CURVE",
"404 490 OFFCURVE",
"376 525 OFFCURVE",
"327 525 CURVE SMOOTH",
"164 525 OFFCURVE",
"50 347 OFFCURVE",
"50 199 CURVE SMOOTH",
"50 148 LINE",
"66 58 OFFCURVE",
"145 -10 OFFCURVE",
"238 -10 CURVE SMOOTH"
);
},
{
closed = 1;
nodes = (
"171 91 OFFCURVE",
"151 148 OFFCURVE",
"151 199 CURVE SMOOTH",
"151 282 OFFCURVE",
"239 424 OFFCURVE",
"327 424 CURVE SMOOTH",
"386 424 OFFCURVE",
"404 361 OFFCURVE",
"404 312 CURVE SMOOTH",
"404 224 OFFCURVE",
"321 91 OFFCURVE",
"228 91 CURVE SMOOTH"
);
}
);
width = 609;
}
);
note = a;
unicode = 0061;
},
